<svg width="20" height="20" viewBox="0 0 20 20" fill="none" xmlns="http://www.w3.org/2000/svg">
<g clip-path="url(#clip0_28_970)">
<path d="M15 4C15 3.44773 14.5523 3 14 3H1C0.447735 3 0 3.44773 0 4C0 4.55227 0.447735 5 1 5H14C14.5523 5 15 4.55223 15 4ZM1 9H19C19.5523 9 20 9.44777 20 10C20 10.5523 19.5523 11 19 11H1C0.447735 11 0 10.5523 0 10C0 9.44777 0.447735 9 1 9ZM1 15H10C10.5522 15 11 15.4477 11 16C11 16.5522 10.5522 17 10 17H1C0.447735 17 0 16.5522 0 16C0 15.4477 0.447735 15 1 15Z" fill="#141736"/>
</g>
<defs>
<clipPath id="clip0_28_970">
<rect width="20" height="20" fill="white" transform="matrix(-1 0 0 1 20 0)"/>
</clipPath>
</defs>
</svg>
