<svg width="14" height="14" viewBox="0 0 14 14" fill="none" xmlns="http://www.w3.org/2000/svg">
<path d="M13.72 10.2004L8.81522 1.70491C8.01408 0.301487 5.98819 0.301487 5.18994 1.70491L0.282271 10.2004C-0.518863 11.6038 0.478232 13.3473 2.09491 13.3473H11.8901C13.5068 13.3473 14.5211 11.5865 13.72 10.2004ZM6.9997 11.4626C6.5732 11.4626 6.21874 11.1082 6.21874 10.6817C6.21874 10.2552 6.5732 9.90069 6.9997 9.90069C7.4262 9.90069 7.78066 10.2552 7.76337 10.7018C7.78354 11.1082 7.40891 11.4626 6.9997 11.4626ZM7.7115 6.41374C7.67692 7.01891 7.63945 7.6212 7.60487 8.22638C7.58758 8.42234 7.58758 8.60101 7.58758 8.79409C7.57029 9.11397 7.31958 9.3618 6.9997 9.3618C6.67982 9.3618 6.43199 9.13126 6.41182 8.81138C6.35994 7.86904 6.30519 6.94399 6.25332 6.00165C6.23603 5.75381 6.21874 5.5031 6.19856 5.25526C6.19856 4.84605 6.42911 4.50888 6.80374 4.40226C7.17837 4.31292 7.55012 4.49159 7.7115 4.84605C7.76625 4.96997 7.78354 5.09389 7.78354 5.23797C7.76625 5.63278 7.72879 6.0247 7.7115 6.41374Z" fill="white"/>
</svg>
