<svg width="17" height="17" viewBox="0 0 17 17" fill="none" xmlns="http://www.w3.org/2000/svg">
<path d="M16.66 8.49997C16.66 12.9994 12.9994 16.66 8.50003 16.66C4.00064 16.66 0.340027 12.9994 0.340027 8.49997C0.340027 8.21828 0.568167 7.98997 0.850027 7.98997C1.13189 7.98997 1.36003 8.21828 1.36003 8.49997C1.36003 12.437 4.563 15.64 8.50003 15.64C12.4371 15.64 15.64 12.437 15.64 8.49997C15.64 4.56294 12.4371 1.35997 8.50003 1.35997C6.60266 1.35997 4.84061 2.0976 3.51529 3.39997H5.44003C5.72189 3.39997 5.95003 3.62828 5.95003 3.90997C5.95003 4.19166 5.72189 4.41997 5.44003 4.41997H2.38003C2.09817 4.41997 1.87003 4.19166 1.87003 3.90997V0.849966C1.87003 0.568276 2.09817 0.339966 2.38003 0.339966C2.66189 0.339966 2.89003 0.568276 2.89003 0.849966V2.58958C4.3947 1.15342 6.3718 0.339966 8.50003 0.339966C12.9994 0.339966 16.66 4.00058 16.66 8.49997ZM9.01003 7.98997H7.99003C7.70868 7.98997 7.48003 7.76115 7.48003 7.47997C7.48003 7.19879 7.70868 6.96997 7.99003 6.96997H10.03C10.3119 6.96997 10.54 6.74166 10.54 6.45997C10.54 6.17828 10.3119 5.94997 10.03 5.94997H9.01003V5.43997C9.01003 5.15828 8.78189 4.92997 8.50003 4.92997C8.21817 4.92997 7.99003 5.15828 7.99003 5.43997V5.94997C7.14632 5.94997 6.46003 6.63626 6.46003 7.47997C6.46003 8.32368 7.14632 9.00997 7.99003 9.00997H9.01003C9.29138 9.00997 9.52003 9.23879 9.52003 9.51997C9.52003 9.80115 9.29138 10.03 9.01003 10.03H6.97003C6.68817 10.03 6.46003 10.2583 6.46003 10.54C6.46003 10.8217 6.68817 11.05 6.97003 11.05H7.99003V11.56C7.99003 11.8417 8.21817 12.07 8.50003 12.07C8.78189 12.07 9.01003 11.8417 9.01003 11.56V11.05C9.85374 11.05 10.54 10.3637 10.54 9.51997C10.54 8.67626 9.85374 7.98997 9.01003 7.98997Z" fill="#3F8CFF"/>
</svg>
