<svg width="16" height="16" viewBox="0 0 16 16" fill="none" xmlns="http://www.w3.org/2000/svg">
<g clip-path="url(#clip0_12_961)">
<path d="M15.8047 14.862L11.8253 10.8827C12.9097 9.5564 13.4429 7.86406 13.3145 6.15571C13.1862 4.44736 12.4061 2.85369 11.1357 1.70435C9.86528 0.555007 8.20171 -0.0620722 6.48907 -0.019251C4.77644 0.0235702 3.14578 0.723015 1.93439 1.93441C0.722993 3.1458 0.0235473 4.77646 -0.0192739 6.4891C-0.0620951 8.20173 0.554984 9.86531 1.70432 11.1357C2.85366 12.4061 4.44733 13.1862 6.15569 13.3146C7.86404 13.4429 9.55638 12.9098 10.8826 11.8253L14.862 15.8047C14.9877 15.9261 15.1561 15.9933 15.3309 15.9918C15.5057 15.9903 15.6729 15.9202 15.7965 15.7966C15.9201 15.6729 15.9902 15.5057 15.9918 15.3309C15.9933 15.1561 15.9261 14.9877 15.8047 14.862ZM6.66665 12C5.61181 12 4.58067 11.6872 3.7036 11.1012C2.82654 10.5151 2.14295 9.68219 1.73929 8.70765C1.33562 7.73311 1.23 6.66075 1.43579 5.62619C1.64158 4.59162 2.14953 3.64131 2.89541 2.89543C3.64129 2.14955 4.5916 1.6416 5.62616 1.43581C6.66073 1.23002 7.73309 1.33564 8.70762 1.73931C9.68216 2.14298 10.5151 2.82656 11.1012 3.70363C11.6872 4.58069 12 5.61183 12 6.66667C11.9984 8.08067 11.436 9.4363 10.4361 10.4362C9.43628 11.436 8.08065 11.9984 6.66665 12Z" fill="#141736"/>
</g>
<defs>
<clipPath id="clip0_12_961">
<rect width="16" height="16" fill="white"/>
</clipPath>
</defs>
</svg>
