<svg id="logo_fomorip" data-name="logo fomorip" xmlns="http://www.w3.org/2000/svg" viewBox="0 0 800 800">
  <defs>
    <style>
      .cls-1 {
        fill: #3f8cff;
      }

      .cls-2 {
        fill: #141736;
      }
    </style>
  </defs>
  <title>fomoriplogo2</title>
  <path class="cls-1" d="M184.07,362.17c-39.26-32.83-88.48,12.68-83.93,44.9,2.52,17.83,11.68,25.65,12.94,28.18.73,1.48-1.89,2.78-2.71,4.53-1.09,2.31.33,5.19,2,7.55s5.84,5.17,8.74,4.78,3.77-5.73,4.86-7.44,3.41-.85,4.89,0c2.34,1.36,1.06,4.46-.39,7.5s-2,5,.95,6.68,9.05,1.82,11,1.08,1.22-7.23,1.22-9.19,2.86-3.26,5.61-2,0,6.86,1.07,8.54,7.55.07,10.66-1.12,2.51-3.91,2.16-5.31-2-3.36-1.85-4.51,2-2.86,4.93-2.86c2.37,0,.49,4.51,2.69,6.71s5.06.22,8.35-1.68c2.61-1.5-1.68-7.32,1-8.08,5.39-1.53,7.73-1.85,11.39-7.75C193.39,426.57,209.88,383.76,184.07,362.17Zm-49.68,56.25c-9.34,0-11.27-10.61-10.52-17.73s7.64-16,14.64-15.48c0,0,9.05-.08,9.66,12.09S142.86,418.41,134.39,418.42ZM154,435.73c-.59,3.36-1.78-5.07-5-5.3-4.26-.3-6,4.88-7.26,4.88-1.38,0,4.29-13,8-12.84S154.55,432.44,154,435.73Zm13-13.26c-9.86,0-16.75-10.42-16-24.6s11.25-14.08,11.25-14.08c8.14-.62,16.18,7.41,17,18C180,411.34,177.88,422.48,167,422.47Z"/>
  <path class="cls-1" d="M76.09,350.11v4.61h11c6.91,0,11.16,4.6,11.16,11,0,6.21-4.25,10.82-11.16,10.82h-11v57.42a14.18,14.18,0,0,1-28.36,0V376.52H43.12c-6.91,0-11.34-4.61-11.34-10.82,0-6.38,4.43-11,11.34-11h4.61v-6.21c0-25.7,22-30.48,32.79-30.48,7.8,0,14.36,1.59,19.32,4.25,5.14,3.37,7.62,6.91,7.62,11.7,0,6-4.43,9.93-10.46,9.93a37.86,37.86,0,0,1-8.33-1.6,12,12,0,0,0-3.72-.53C75.38,341.78,76.09,350.82,76.09,350.11Z"/>
  <path class="cls-1" d="M367.65,397.78v36a14.18,14.18,0,0,1-28.36,0v-36c0-13.82-6.38-20-15.59-20-14.54,0-17.9,14.71-17.9,16.66v39.34a14.1,14.1,0,0,1-28.19,0v-36c0-13.82-6.37-20-15.77-20-14.53,0-17.72,14.71-17.72,16.66v39.34a14.18,14.18,0,0,1-28.36,0V368.54a14.18,14.18,0,1,1,28.36,0V374c.53-6.55,10.63-20.2,28.71-20.2,13.11,0,24.28,6.56,29.6,21.45,4.78-10.82,15.77-21.45,32.08-21.45C352.94,353.83,367.65,366.59,367.65,397.78Z"/>
  <path class="cls-1" d="M481.27,401.15c0,31.73-27.65,47-47.86,47-20.38,0-48-15.24-48-47,0-31.54,27.65-47.5,48-47.5C453.62,353.65,481.27,369.61,481.27,401.15Zm-67.88,0c0,13.29,8.86,22.51,20,22.51,11,0,20-9.22,20-22.51,0-13.82-9-23-20-23C422.25,378.11,413.39,387.33,413.39,401.15Z"/>
  <path class="cls-1" d="M490.13,431.64a16,16,0,1,1,16.13,16.12A16.15,16.15,0,0,1,490.13,431.64Z"/>
  <path class="cls-2" d="M606.4,366.59c0,8-5.85,13.29-17.9,13.29-12.41,0-19.85,9.4-20.21,14.54v39.34a14.18,14.18,0,0,1-28.36,0V368.54a14.18,14.18,0,1,1,28.36,0V374c.53-6.55,11.17-20.2,25.35-20.2C602.14,353.83,606.4,359.86,606.4,366.59Z"/>
  <path class="cls-2" d="M624,332.56c0-7.62,6.73-14,14.35-14s14.36,6.38,14.36,14c0,7.44-6.74,13.83-14.36,13.83S624,340,624,332.56Zm28.53,36v65a14.18,14.18,0,1,1-28.36,0v-65a14.18,14.18,0,1,1,28.36,0Z"/>
  <path class="cls-2" d="M768.22,400.8c0,32.43-23,47.32-42.54,47.32-12.58,0-20.56-6.38-23.22-11V468c0,7.8-6.73,14-14.35,14a14.18,14.18,0,0,1-14.18-14V368.19c0-7.62,7.09-14,14.53-14a14.31,14.31,0,0,1,14.18,14v-1.6c2.3-6.2,11-12.94,23-12.94C744.82,353.65,768.22,369.25,768.22,400.8Zm-28.36,0c0-15.07-9.39-23-19.5-23-7.79,0-19,5.67-19,23,0,17.72,11.17,23.22,19,23.22C730.47,424,739.86,416,739.86,400.8Z"/>
</svg>
