<svg width="126" height="24" viewBox="0 0 126 24" fill="none" xmlns="http://www.w3.org/2000/svg">
<path d="M110.005 12.1018C109.362 11.6777 108.653 11.3762 107.983 10.9993C107.548 10.7543 107.085 10.5375 106.707 10.2265C106.064 9.69877 106.197 8.66218 106.868 8.20982C107.832 7.56902 109.428 7.92706 109.598 9.23702C109.598 9.26524 109.626 9.28415 109.655 9.28415H111.11C111.148 9.28415 111.176 9.25586 111.167 9.21818C111.091 8.31346 110.741 7.55957 110.099 7.07895C109.485 6.61718 108.786 6.37216 108.039 6.37216C104.194 6.37216 103.844 10.4338 105.913 11.7155C106.149 11.8663 108.181 12.884 108.899 13.3269C109.617 13.7698 109.844 14.5803 109.532 15.2211C109.248 15.8054 108.512 16.2106 107.775 16.1635C106.971 16.1164 106.348 15.6829 106.13 15.0044C106.093 14.8819 106.074 14.6463 106.074 14.5426C106.074 14.5143 106.045 14.486 106.017 14.486H104.44C104.411 14.486 104.383 14.5143 104.383 14.5426C104.383 15.6829 104.666 16.3143 105.441 16.8892C106.168 17.4357 106.962 17.6619 107.784 17.6619C109.938 17.6619 111.053 16.4462 111.28 15.1834C111.478 13.9489 111.11 12.8369 110.005 12.1018Z" fill="#ffffff"/>
<path d="M41.496 6.57954H40.7968H40.0315C40.0032 6.57954 39.9843 6.59839 39.9748 6.61724L38.6805 10.8768C38.6616 10.9334 38.586 10.9334 38.5671 10.8768L37.2727 6.61724C37.2632 6.58896 37.2443 6.57954 37.216 6.57954H36.4507H35.7515H34.8067C34.7784 6.57954 34.75 6.60781 34.75 6.63608V17.5112C34.75 17.5394 34.7784 17.5677 34.8067 17.5677H36.3845C36.4129 17.5677 36.4413 17.5394 36.4413 17.5112V9.24647C36.4413 9.1805 36.5357 9.17112 36.5547 9.22763L37.8584 13.5155L37.9529 13.817C37.9624 13.8453 37.9813 13.8548 38.0096 13.8548H39.219C39.2473 13.8548 39.2662 13.8358 39.2757 13.817L39.3701 13.5155L40.674 9.22763C40.6929 9.16167 40.7874 9.1805 40.7874 9.24647V17.5112C40.7874 17.5394 40.8157 17.5677 40.844 17.5677H42.4219C42.4502 17.5677 42.4786 17.5394 42.4786 17.5112V6.63608C42.4786 6.60781 42.4502 6.57954 42.4219 6.57954H41.496Z" fill="#ffffff"/>
<path d="M85.8452 6.57954C85.8169 6.57954 85.798 6.59839 85.7885 6.61724L84.4947 10.8768C84.4758 10.9334 84.4002 10.9334 84.3812 10.8768L83.0867 6.61724C83.0772 6.58896 83.0583 6.57954 83.03 6.57954H80.63C80.6016 6.57954 80.5732 6.60781 80.5732 6.63608V17.5112C80.5732 17.5394 80.6016 17.5677 80.63 17.5677H82.2082C82.2365 17.5677 82.2649 17.5394 82.2649 17.5112V9.24647C82.2649 9.1805 82.3594 9.17112 82.3783 9.22763L83.6816 13.5155L83.7762 13.817C83.7856 13.8453 83.8045 13.8548 83.8329 13.8548H85.0423C85.0707 13.8548 85.0896 13.8358 85.0991 13.817L85.1936 13.5155L86.4976 9.22763C86.5165 9.16167 86.6111 9.1805 86.6111 9.24647V17.5112C86.6111 17.5394 86.6394 17.5677 86.6678 17.5677H88.2452C88.2736 17.5677 88.302 17.5394 88.302 17.5112V6.63608C88.302 6.60781 88.2736 6.57954 88.2452 6.57954H85.8452Z" fill="#ffffff"/>
<path d="M65.4937 6.57954H62.5553H60.9775H58.0391C58.0108 6.57954 57.9824 6.60781 57.9824 6.63608V7.99309C57.9824 8.02138 58.0108 8.04967 58.0391 8.04967H60.9208V17.5112C60.9208 17.5394 60.9491 17.5677 60.9775 17.5677H62.5553C62.5837 17.5677 62.612 17.5394 62.612 17.5112V8.04967H65.4937C65.522 8.04967 65.5503 8.02138 65.5503 7.99309V6.63608C65.5503 6.60781 65.5315 6.57954 65.4937 6.57954Z" fill="#ffffff"/>
<path d="M74.8003 17.5676H76.2359C76.2737 17.5676 76.3021 17.5299 76.2927 17.4922L73.3261 6.57941C73.3167 6.55114 73.2977 6.54172 73.2694 6.54172H72.7215H71.7578H71.2098C71.1815 6.54172 71.1625 6.56057 71.1531 6.57941L68.1864 17.4922C68.1769 17.5299 68.2053 17.5676 68.2431 17.5676H69.6792C69.7076 17.5676 69.7265 17.5487 69.7359 17.5299L70.5957 14.354C70.6051 14.3258 70.624 14.3164 70.6524 14.3164H73.8272C73.8556 14.3164 73.8745 14.3352 73.8839 14.354L74.7436 17.5299C74.753 17.5487 74.7814 17.5676 74.8003 17.5676ZM71.0303 12.7614L72.183 8.51127C72.2018 8.45476 72.2775 8.45476 72.2964 8.51127L73.449 12.7614C73.4585 12.7991 73.4301 12.8368 73.3923 12.8368H71.087C71.0492 12.8368 71.0209 12.7991 71.0303 12.7614Z" fill="#ffffff"/>
<path d="M99.2895 17.5676H100.725C100.763 17.5676 100.791 17.5299 100.782 17.4922L97.8153 6.57941C97.8058 6.55114 97.7869 6.54172 97.7586 6.54172H97.2109H96.2473H95.6989C95.6706 6.54172 95.6517 6.56057 95.6422 6.57941L92.6757 17.4922C92.6662 17.5299 92.6946 17.5676 92.7324 17.5676H94.1688C94.1971 17.5676 94.216 17.5487 94.2255 17.5299L95.0851 14.354C95.0946 14.3258 95.1135 14.3164 95.1418 14.3164H98.3164C98.3448 14.3164 98.3637 14.3352 98.3731 14.354L99.2328 17.5299C99.2422 17.5487 99.2611 17.5676 99.2895 17.5676ZM95.5193 12.7614L96.672 8.51127C96.6909 8.45476 96.7666 8.45476 96.7855 8.51127L97.9382 12.7614C97.9477 12.7991 97.9193 12.8368 97.8815 12.8368H95.576C95.5382 12.8368 95.5098 12.7991 95.5193 12.7614Z" fill="#ffffff"/>
<path d="M48.8846 15.9562V12.5825C48.8846 12.5543 48.9129 12.526 48.9413 12.526H53.1456C53.174 12.526 53.2024 12.4977 53.2024 12.4694V11.1124C53.2024 11.0842 53.174 11.0559 53.1456 11.0559H48.9413C48.9129 11.0559 48.8846 11.0276 48.8846 10.9993V8.11564C48.8846 8.08735 48.9129 8.05906 48.9413 8.05906H53.722C53.7504 8.05906 53.7787 8.03077 53.7787 8.00255V6.6455C53.7787 6.61724 53.7504 6.58896 53.722 6.58896H48.8846H47.2501C47.2217 6.58896 47.1934 6.61724 47.1934 6.6455V8.05906V11.0652V12.5354V16.0222V17.5111C47.1934 17.5394 47.2217 17.5677 47.2501 17.5677H48.8846H53.9204C53.9488 17.5677 53.9771 17.5394 53.9771 17.5111V16.0788C53.9771 16.0505 53.9488 16.0222 53.9204 16.0222H48.9318C48.9035 16.0128 48.8846 15.9939 48.8846 15.9562Z" fill="#ffffff"/>
<path d="M124.421 17.4735L118.96 11.8474C118.941 11.8286 118.941 11.7909 118.96 11.7721L123.874 6.6832C123.912 6.6455 123.883 6.58896 123.836 6.58896H121.824C121.805 6.58896 121.795 6.59838 121.786 6.60781L117.619 10.9239C117.581 10.9616 117.525 10.9333 117.525 10.8862V6.6455C117.525 6.61724 117.496 6.58896 117.468 6.58896H115.89C115.861 6.58896 115.833 6.61724 115.833 6.6455V17.5206C115.833 17.5489 115.861 17.5772 115.89 17.5772H117.468C117.496 17.5772 117.525 17.5489 117.525 17.5206V12.7333C117.525 12.6862 117.591 12.6579 117.619 12.6956L122.343 17.5583C122.352 17.5677 122.371 17.5772 122.381 17.5772H124.393C124.431 17.5677 124.459 17.5018 124.421 17.4735Z" fill="#ffffff"/>
<path d="M23.97 0.72728L14.418 7.79513L16.1943 3.62982L23.97 0.72728Z" fill="#E17726" stroke="#E17726" stroke-width="0.25" stroke-linecap="round" stroke-linejoin="round"/>
<path d="M1.93652 0.72728L11.4035 7.8611L9.71235 3.62981L1.93652 0.72728Z" fill="#E27625" stroke="#E27625" stroke-width="0.25" stroke-linecap="round" stroke-linejoin="round"/>
<path d="M20.5308 17.1152L17.9893 20.9978L23.4314 22.4962L24.9903 17.2001L20.5308 17.1152Z" fill="#E27625" stroke="#E27625" stroke-width="0.25" stroke-linecap="round" stroke-linejoin="round"/>
<path d="M0.925781 17.2001L2.47526 22.4962L7.90796 20.9978L5.37584 17.1152L0.925781 17.2001Z" fill="#E27625" stroke="#E27625" stroke-width="0.25" stroke-linecap="round" stroke-linejoin="round"/>
<path d="M7.61519 10.5563L6.10352 12.8369L11.4889 13.0819L11.3094 7.28625L7.61519 10.5563Z" fill="#E27625" stroke="#E27625" stroke-width="0.25" stroke-linecap="round" stroke-linejoin="round"/>
<path d="M18.2907 10.5564L14.5398 7.22035L14.417 13.082L19.8024 12.8369L18.2907 10.5564Z" fill="#E27625" stroke="#E27625" stroke-width="0.25" stroke-linecap="round" stroke-linejoin="round"/>
<path d="M7.9082 20.9978L11.1678 19.4241L8.36173 17.2377L7.9082 20.9978Z" fill="#E27625" stroke="#E27625" stroke-width="0.25" stroke-linecap="round" stroke-linejoin="round"/>
<path d="M14.7393 19.4241L17.9894 20.9978L17.5453 17.2377L14.7393 19.4241Z" fill="#E27625" stroke="#E27625" stroke-width="0.25" stroke-linecap="round" stroke-linejoin="round"/>
<path d="M17.9894 20.998L14.7393 19.4242L15.0038 21.5351L14.9754 22.4304L17.9894 20.998Z" fill="#D5BFB2" stroke="#D5BFB2" stroke-width="0.25" stroke-linecap="round" stroke-linejoin="round"/>
<path d="M7.9082 20.998L10.9316 22.4304L10.9127 21.5351L11.1678 19.4242L7.9082 20.998Z" fill="#D5BFB2" stroke="#D5BFB2" stroke-width="0.25" stroke-linecap="round" stroke-linejoin="round"/>
<path d="M10.9883 15.843L8.28613 15.0515L10.1946 14.175L10.9883 15.843Z" fill="#ffffff" stroke="#ffffff" stroke-width="0.25" stroke-linecap="round" stroke-linejoin="round"/>
<path d="M14.918 15.843L15.7116 14.175L17.6296 15.0515L14.918 15.843Z" fill="#ffffff" stroke="#ffffff" stroke-width="0.25" stroke-linecap="round" stroke-linejoin="round"/>
<path d="M7.90707 20.9978L8.37951 17.1152L5.375 17.2001L7.90707 20.9978Z" fill="#CC6228" stroke="#CC6228" stroke-width="0.25" stroke-linecap="round" stroke-linejoin="round"/>
<path d="M17.5264 17.1152L17.9893 20.9978L20.5309 17.2001L17.5264 17.1152Z" fill="#CC6228" stroke="#CC6228" stroke-width="0.25" stroke-linecap="round" stroke-linejoin="round"/>
<path d="M19.8024 12.8368L14.417 13.0818L14.9177 15.8431L15.7114 14.175L17.6294 15.0514L19.8024 12.8368Z" fill="#CC6228" stroke="#CC6228" stroke-width="0.25" stroke-linecap="round" stroke-linejoin="round"/>
<path d="M8.28603 15.0514L10.1945 14.175L10.9882 15.8431L11.4889 13.0818L6.10352 12.8368L8.28603 15.0514Z" fill="#CC6228" stroke="#CC6228" stroke-width="0.25" stroke-linecap="round" stroke-linejoin="round"/>
<path d="M6.10352 12.8368L8.36163 17.2378L8.286 15.0514L6.10352 12.8368Z" fill="#E27525" stroke="#E27525" stroke-width="0.25" stroke-linecap="round" stroke-linejoin="round"/>
<path d="M17.6299 15.0514L17.5449 17.2378L19.803 12.8368L17.6299 15.0514Z" fill="#E27525" stroke="#E27525" stroke-width="0.25" stroke-linecap="round" stroke-linejoin="round"/>
<path d="M11.4891 13.0818L10.9883 15.8431L11.6213 19.1036L11.763 14.8064L11.4891 13.0818Z" fill="#E27525" stroke="#E27525" stroke-width="0.25" stroke-linecap="round" stroke-linejoin="round"/>
<path d="M14.4169 13.0818L14.1523 14.797L14.2846 19.1036L14.9177 15.8431L14.4169 13.0818Z" fill="#E27525" stroke="#E27525" stroke-width="0.25" stroke-linecap="round" stroke-linejoin="round"/>
<path d="M14.9182 15.8431L14.2852 19.1037L14.7387 19.4241L17.5448 17.2378L17.6298 15.0515L14.9182 15.8431Z" fill="#F5841F" stroke="#F5841F" stroke-width="0.25" stroke-linecap="round" stroke-linejoin="round"/>
<path d="M8.28613 15.0515L8.36177 17.2378L11.1678 19.4241L11.6213 19.1037L10.9883 15.8431L8.28613 15.0515Z" fill="#F5841F" stroke="#F5841F" stroke-width="0.25" stroke-linecap="round" stroke-linejoin="round"/>
<path d="M14.9754 22.4303L15.0037 21.5351L14.7581 21.3277H11.1489L10.9127 21.5351L10.9316 22.4303L7.9082 20.9979L8.96639 21.8649L11.1111 23.3444H14.7864L16.9406 21.8649L17.9893 20.9979L14.9754 22.4303Z" fill="#C0AC9D" stroke="#C0AC9D" stroke-width="0.25" stroke-linecap="round" stroke-linejoin="round"/>
<path d="M14.7386 19.4241L14.2851 19.1037H11.6207L11.1672 19.4241L10.9121 21.5351L11.1483 21.3277H14.7575L15.0032 21.5351L14.7386 19.4241Z" fill="#ffffff" stroke="#ffffff" stroke-width="0.25" stroke-linecap="round" stroke-linejoin="round"/>
<path d="M24.3763 8.25688L25.1794 4.35545L23.97 0.72728L14.7393 7.55957L18.2917 10.5563L23.3086 12.017L24.4141 10.726L23.9323 10.3772L24.6975 9.67993L24.1118 9.22757L24.8771 8.64328L24.3763 8.25688Z" fill="#763E1A" stroke="#763E1A" stroke-width="0.25" stroke-linecap="round" stroke-linejoin="round"/>
<path d="M0.726562 4.35545L1.5391 8.25688L1.01946 8.64328L1.7942 9.22757L1.20842 9.67993L1.97371 10.3772L1.49186 10.726L2.59729 12.017L7.61427 10.5563L11.1667 7.55957L1.93592 0.72728L0.726562 4.35545Z" fill="#763E1A" stroke="#763E1A" stroke-width="0.25" stroke-linecap="round" stroke-linejoin="round"/>
<path d="M23.3083 12.0169L18.2913 10.5563L19.803 12.8369L17.5449 17.2377L20.5305 17.2001H24.99L23.3083 12.0169Z" fill="#F5841F" stroke="#F5841F" stroke-width="0.25" stroke-linecap="round" stroke-linejoin="round"/>
<path d="M7.61501 10.5563L2.59809 12.0169L0.925781 17.2001H5.37584L8.36141 17.2377L6.10335 12.8369L7.61501 10.5563Z" fill="#F5841F" stroke="#F5841F" stroke-width="0.25" stroke-linecap="round" stroke-linejoin="round"/>
<path d="M14.4171 13.0819L14.7383 7.55949L16.1933 3.62979H9.71191L11.1669 7.55949L11.4881 13.0819L11.611 14.8158L11.6204 19.1037H14.2848L14.2942 14.8158L14.4171 13.0819Z" fill="#F5841F" stroke="#F5841F" stroke-width="0.25" stroke-linecap="round" stroke-linejoin="round"/>
</svg>
