<svg width="176" height="176" viewBox="0 0 176 176" fill="none" xmlns="http://www.w3.org/2000/svg">
<path d="M154.591 150.632C122.812 184.169 73.9977 174.247 66.7823 172.653C57.692 170.644 36.0648 165.866 19.9256 146.998C-4.7835 118.112 -2.28837 72.9671 16.7945 42.5309C22.3469 33.6746 41.0329 7.35615 76.1231 1.63406C78.1741 1.29969 114.816 -4.07288 144.299 20.6646C148.274 24 154.69 30.0401 160.314 38.8352C177.759 66.1183 186.014 117.472 154.591 150.632Z" fill="url(#paint0_linear_2_169)"/>
<path d="M85.7315 9.92632C86.0911 8.16868 87.9213 7.1353 89.6114 7.73779C100.82 11.7344 139.476 24.9356 172.81 29.3309C174.33 29.5316 175.39 30.9384 175.154 32.4538L155.761 156.874C155.495 158.58 153.903 159.752 152.195 159.495C138.226 157.404 80.7425 148.586 60.9234 142.192C59.7171 141.802 58.9998 140.567 59.254 139.325L85.7315 9.92632Z" fill="#91B3FA"/>
<path opacity="0.6" d="M86.4406 13.2958C86.7869 11.6044 88.5484 10.6095 90.1741 11.1899C100.96 15.0358 138.161 27.7398 170.24 31.9699C171.703 32.1629 172.722 33.5168 172.495 34.9747L153.833 154.71C153.577 156.351 152.045 157.478 150.402 157.232C136.959 155.22 81.6396 146.733 62.5668 140.58C61.406 140.205 60.7158 139.016 60.9599 137.821L86.4406 13.2958Z" fill="white"/>
<path opacity="0.78" d="M96.9479 23.171C95.953 22.925 94.96 23.5805 94.7953 24.5918L90.6246 50.2257C90.4858 51.078 91.0265 51.8931 91.8662 52.095C96.5397 53.2186 111.114 56.6632 119.477 57.9755C120.423 58.1237 121.323 57.5231 121.552 56.5932C122.712 51.866 125.978 38.0819 126.114 32.0608C126.136 31.088 125.476 30.2331 124.532 29.9991L96.9479 23.171Z" fill="white"/>
<path d="M108.873 42.6147C111.953 42.6147 114.45 40.1178 114.45 37.0377C114.45 33.9577 111.953 31.4608 108.873 31.4608C105.793 31.4608 103.296 33.9577 103.296 37.0377C103.296 40.1178 105.793 42.6147 108.873 42.6147Z" fill="url(#paint1_linear_2_169)"/>
<path d="M97.2072 51.3127L114.593 54.9769C115.659 55.2015 116.546 54.1593 116.161 53.1398C115.171 50.5178 112.797 46.472 107.414 45.4973C102.225 44.5579 98.522 46.9798 96.5221 48.8554C95.6729 49.6516 96.0678 51.0724 97.2072 51.3127Z" fill="url(#paint2_linear_2_169)"/>
<g opacity="0.6">
<path d="M163.853 41.4539C164.397 41.5687 164.912 41.2773 164.997 40.806C165.082 40.3347 164.708 39.8471 164.166 39.7228L133.808 32.7572C133.265 32.6329 132.881 32.9824 132.954 33.5338L133.012 33.9786C133.085 34.53 133.589 35.0757 134.135 35.1905L163.853 41.4539Z" fill="white"/>
</g>
<g opacity="0.6">
<path d="M132.811 37.4895C132.268 37.3652 131.884 37.7147 131.957 38.2661L132.015 38.7108C132.088 39.2622 132.593 39.8079 133.138 39.9228L162.856 46.1861C163.4 46.301 163.915 46.0095 164 45.5382C164.086 45.067 163.711 44.5793 163.169 44.455L132.811 37.4895Z" fill="white"/>
</g>
<g opacity="0.6">
<path d="M131.799 42.2911C131.256 42.1668 130.872 42.5163 130.945 43.0677L131.003 43.5125C131.076 44.0639 131.581 44.6096 132.126 44.7244L161.844 50.9878C162.388 51.1026 162.903 50.8111 162.988 50.3399C163.074 49.8686 162.7 49.3809 162.157 49.2566L131.799 42.2911Z" fill="white"/>
</g>
<g opacity="0.6">
<path d="M159.924 74.7656C160.468 74.8804 160.969 74.5858 161.037 74.1108C161.105 73.6357 160.715 73.1499 160.172 73.0307L88.9016 57.4221C88.3578 57.3029 88.1175 57.6126 88.3667 58.1104L88.7956 58.9659C89.0448 59.463 89.6947 59.9639 90.2391 60.0787L159.924 74.7656Z" fill="white"/>
</g>
<g opacity="0.6">
<path d="M87.9036 62.155C87.3598 62.0358 87.1194 62.3455 87.3686 62.8433L87.7976 63.6988C88.0468 64.1959 88.6966 64.6968 89.241 64.8116L158.926 79.4985C159.47 79.6134 159.971 79.3187 160.039 78.8437C160.107 78.3686 159.717 77.8829 159.174 77.7636L87.9036 62.155Z" fill="white"/>
</g>
<path opacity="0.6" d="M85.9163 69.9887C87.6607 70.2189 90.8877 70.8353 92.6623 71.1836C93.4143 71.3312 93.9651 71.9778 93.9872 72.7437C94.0301 74.2314 93.9834 76.7889 93.3752 79.3806C93.1929 80.1566 92.4226 80.6449 91.6447 80.472L85.1302 79.0254C84.329 78.8475 83.7915 78.093 83.8855 77.2779L84.606 71.0145C84.6798 70.3666 85.2697 69.9035 85.9163 69.9887Z" fill="white"/>
<g opacity="0.6">
<path d="M97.4595 75.0559C96.9201 74.9183 96.4526 75.2603 96.4198 75.8161L96.3561 76.9025C96.3233 77.4583 96.7422 78.0065 97.2867 78.1213L113.144 81.4637C113.689 81.5785 114.223 81.2259 114.331 80.6802L114.384 80.4114C114.491 79.8657 114.139 79.3067 113.599 79.1692L97.4595 75.0559Z" fill="white"/>
</g>
<path opacity="0.6" d="M121.488 77.4854C123.232 77.7157 126.459 78.3321 128.234 78.6803C128.986 78.8279 129.537 79.4746 129.559 80.2405C129.602 81.7281 129.555 84.2857 128.947 86.8774C128.764 87.6533 127.995 88.1416 127.216 87.9688L120.702 86.5222C119.901 86.3443 119.364 85.5897 119.457 84.7746L120.178 78.5112C120.252 77.864 120.842 77.4003 121.488 77.4854Z" fill="white"/>
<g opacity="0.6">
<path d="M133.031 82.5526C132.492 82.4151 132.024 82.757 131.991 83.3129L131.928 84.3992C131.895 84.955 132.314 85.5033 132.858 85.6181L148.716 88.9605C149.26 89.0753 149.794 88.7227 149.902 88.1769L149.955 87.9082C150.063 87.3625 149.71 86.8035 149.171 86.666L133.031 82.5526Z" fill="white"/>
</g>
<path d="M89.9931 96.3014C89.9874 96.3001 89.9823 96.2989 89.9767 96.2976L83.9637 94.9702C83.1045 94.7803 82.519 94.0384 82.601 93.2441L83.1367 88.0772C83.1682 87.7738 83.3221 87.5 83.5701 87.3057C83.8477 87.0886 84.2186 86.9934 84.5877 87.0451C85.1025 87.1177 85.8305 87.2072 86.6008 87.3025C88.2228 87.5025 90.2416 87.7517 91.3608 87.9731C92.1715 88.1397 92.757 88.7636 92.7992 89.5087C92.8686 90.7351 92.3778 92.9262 91.8251 95.2535C91.6453 96.0099 90.8258 96.4768 89.9931 96.3014ZM84.5221 87.5132C84.2792 87.4792 84.0388 87.5391 83.8615 87.6779C83.7152 87.7921 83.625 87.9511 83.6067 88.1258L83.071 93.2927C83.0136 93.8479 83.4407 94.3703 84.0653 94.5084L90.0782 95.8358C90.082 95.8364 90.0864 95.8377 90.0902 95.8383C90.6738 95.9613 91.2441 95.6522 91.3646 95.1444C91.909 92.8524 92.3923 90.6985 92.3267 89.5352C92.297 89.0141 91.8567 88.5624 91.2687 88.4368C90.1666 88.2192 88.1572 87.9712 86.5428 87.7719C85.7706 87.6766 85.0413 87.5864 84.5221 87.5132Z" fill="white"/>
<path opacity="0.6" d="M85.0602 88.1719C86.3441 88.3523 89.154 88.6526 90.4624 88.9113C91.017 89.0211 91.4315 89.457 91.4599 89.9636C91.5154 90.9478 91.0908 92.7969 90.6864 94.5002C90.5653 95.0106 90.0076 95.3204 89.4335 95.1936L84.6281 94.1324C84.0369 94.0019 83.6306 93.4946 83.6862 92.9571L84.1145 88.828C84.1593 88.4022 84.5845 88.105 85.0602 88.1719Z" fill="white"/>
<g opacity="0.6">
<path d="M95.9921 94.0599C96.0274 94.7583 96.5315 95.3437 97.2166 95.4819L153.064 106.756C153.696 106.883 154.31 106.469 154.429 105.836C154.545 105.22 154.149 104.624 153.537 104.492L97.8412 92.4884C96.8583 92.2764 95.9416 93.0555 95.9921 94.0599Z" fill="white"/>
</g>
<path d="M85.1498 89.0185C85.6526 88.8501 86.1952 89.1283 86.3523 89.6342L87.0916 92.0152C87.1655 92.2537 87.4796 92.3054 87.6266 92.1041L91.957 86.1631C92.1728 85.8666 92.6371 86.0805 92.5563 86.4376C92.1034 88.4387 90.7665 92.142 86.886 94.6598C86.886 94.6598 85.2634 93.6006 84.4987 90.1749C84.389 89.6803 84.6691 89.1794 85.1498 89.0185Z" fill="url(#paint3_linear_2_169)"/>
<path d="M87.2714 109.215C87.2658 109.214 87.2607 109.212 87.255 109.211L81.2421 107.884C80.3829 107.694 79.7974 106.952 79.8794 106.158L80.415 100.991C80.4466 100.687 80.6005 100.413 80.8484 100.219C81.126 100.002 81.497 99.9069 81.8661 99.9586C82.3809 100.031 83.1089 100.121 83.8792 100.216C85.5012 100.416 87.52 100.665 88.6392 100.887C88.6474 100.889 88.6556 100.89 88.6638 100.892C89.4562 101.059 90.036 101.685 90.0782 102.423C90.1476 103.649 89.6568 105.84 89.1042 108.168C88.9237 108.923 88.1042 109.39 87.2714 109.215ZM81.8004 100.427C81.5576 100.393 81.3172 100.453 81.1399 100.591C80.9936 100.706 80.9033 100.865 80.885 101.039L80.3494 106.206C80.292 106.761 80.7191 107.284 81.3437 107.422L87.3566 108.749C87.3604 108.75 87.3648 108.751 87.3686 108.752C87.9522 108.875 88.5225 108.566 88.643 108.058C89.1874 105.765 89.6707 103.612 89.6051 102.449C89.5754 101.928 89.13 101.463 88.5471 101.35C87.4449 101.133 85.4356 100.885 83.8212 100.685C83.049 100.59 82.3197 100.5 81.8004 100.427Z" fill="white"/>
<path opacity="0.6" d="M82.3386 101.085C83.6224 101.266 86.4324 101.566 87.7408 101.825C88.2954 101.935 88.7099 102.37 88.7383 102.877C88.7938 103.861 88.3692 105.71 87.9648 107.414C87.8437 107.924 87.286 108.234 86.7119 108.108L81.9064 107.047C81.3153 106.916 80.909 106.409 80.9645 105.871L81.3929 101.742C81.4377 101.315 81.8629 101.018 82.3386 101.085Z" fill="white"/>
<g opacity="0.6">
<path d="M93.2705 106.973C93.3058 107.672 93.8099 108.257 94.495 108.395L150.342 119.669C150.974 119.797 151.588 119.383 151.708 118.749C151.824 118.134 151.428 117.537 150.815 117.406L95.1196 105.402C94.1367 105.19 93.22 105.969 93.2705 106.973Z" fill="white"/>
</g>
<path d="M82.4282 101.932C82.931 101.764 83.4735 102.042 83.6306 102.548L84.37 104.929C84.4438 105.167 84.758 105.219 84.905 105.018L89.2354 99.0766C89.4511 98.7801 89.9155 98.994 89.8347 99.3511C89.3817 101.352 88.0449 105.056 84.1644 107.573C84.1644 107.573 82.5417 106.514 81.7771 103.088C81.6673 102.593 81.9475 102.093 82.4282 101.932Z" fill="url(#paint4_linear_2_169)"/>
<path d="M84.5498 122.128C84.5442 122.127 84.5391 122.125 84.5334 122.124L78.5205 120.797C77.6612 120.607 77.0758 119.865 77.1578 119.071L77.6934 113.904C77.725 113.601 77.8789 113.327 78.1268 113.133C78.4044 112.916 78.7754 112.82 79.1444 112.872C79.6592 112.945 80.3873 113.034 81.1576 113.13C82.7796 113.33 84.7984 113.579 85.9176 113.8C85.9258 113.802 85.934 113.803 85.9422 113.805C86.7346 113.972 87.3143 114.598 87.3566 115.336C87.426 116.562 86.9352 118.753 86.3825 121.081C86.2021 121.836 85.3826 122.304 84.5498 122.128ZM79.0788 113.34C78.8359 113.306 78.5956 113.366 78.4183 113.505C78.2719 113.619 78.1817 113.778 78.1634 113.953L77.6278 119.12C77.5704 119.675 77.9975 120.197 78.6221 120.335L84.635 121.663C84.6388 121.663 84.6432 121.665 84.647 121.665C85.2305 121.788 85.8009 121.479 85.9214 120.971C86.4658 118.679 86.9491 116.526 86.8835 115.362C86.8538 114.841 86.4084 114.376 85.8255 114.264C84.7233 114.046 82.714 113.798 81.0995 113.599C80.3273 113.503 79.598 113.413 79.0788 113.34Z" fill="white"/>
<path opacity="0.6" d="M79.617 113.999C80.9008 114.179 83.7108 114.48 85.0192 114.738C85.5738 114.848 85.9882 115.284 86.0166 115.791C86.0722 116.775 85.6476 118.624 85.2432 120.327C85.122 120.838 84.5644 121.147 83.9902 121.021L79.1848 119.96C78.5937 119.829 78.1874 119.322 78.2429 118.785L78.6713 114.656C78.7161 114.229 79.1413 113.932 79.617 113.999Z" fill="white"/>
<g opacity="0.6">
<path d="M90.5489 119.887C90.5842 120.585 91.0883 121.171 91.7734 121.309L147.621 132.583C148.252 132.71 148.867 132.296 148.986 131.663C149.102 131.047 148.706 130.451 148.093 130.319L92.398 118.315C91.4151 118.103 90.4984 118.883 90.5489 119.887Z" fill="white"/>
</g>
<path d="M79.7066 114.845C80.2094 114.677 80.7519 114.955 80.909 115.461L81.6484 117.842C81.7222 118.081 82.0364 118.132 82.1834 117.931L86.5138 111.99C86.7295 111.694 87.1939 111.907 87.1131 112.265C86.6601 114.266 85.3233 117.969 81.4428 120.487C81.4428 120.487 79.8201 119.428 79.0555 116.002C78.9457 115.507 79.2258 115.006 79.7066 114.845Z" fill="url(#paint5_linear_2_169)"/>
<path d="M81.8282 135.041C81.8225 135.04 81.8175 135.039 81.8118 135.038L75.7989 133.711C74.9396 133.521 74.3542 132.78 74.4362 131.985L74.9718 126.818C75.0033 126.515 75.1573 126.241 75.4052 126.047C75.6828 125.83 76.0538 125.734 76.4228 125.786C76.9376 125.859 77.6657 125.948 78.436 126.044C80.058 126.244 82.0768 126.493 83.196 126.714C83.2042 126.716 83.2124 126.717 83.2206 126.719C84.0129 126.886 84.5927 127.512 84.635 128.25C84.7044 129.476 84.2136 131.667 83.6609 133.995C83.4805 134.75 82.661 135.217 81.8282 135.041ZM76.3572 126.254C76.1143 126.22 75.874 126.28 75.6967 126.418C75.5503 126.533 75.4601 126.692 75.4418 126.866L74.9062 132.033C74.8488 132.588 75.2759 133.111 75.9005 133.248L81.9134 134.576C81.9172 134.577 81.9216 134.578 81.9254 134.579C82.5089 134.702 83.0792 134.393 83.1997 133.885C83.7442 131.593 84.2274 129.439 84.1618 128.276C84.1322 127.755 83.6874 127.287 83.1038 127.177C82.0017 126.96 79.9923 126.712 78.3779 126.512C77.6057 126.416 76.8764 126.326 76.3572 126.254Z" fill="white"/>
<path opacity="0.6" d="M76.8954 126.912C78.1792 127.093 80.9891 127.393 82.2976 127.652C82.8521 127.761 83.2666 128.197 83.295 128.704C83.3505 129.688 82.9259 131.537 82.5216 133.241C82.4004 133.751 81.8427 134.061 81.2686 133.935L76.4632 132.874C75.8721 132.743 75.4658 132.236 75.5213 131.698L75.9497 127.569C75.9945 127.142 76.4197 126.845 76.8954 126.912Z" fill="white"/>
<g opacity="0.6">
<path d="M87.8273 132.8C87.8626 133.499 88.3667 134.084 89.0518 134.222L144.899 145.496C145.531 145.624 146.145 145.21 146.264 144.576C146.381 143.961 145.984 143.364 145.372 143.233L89.6764 131.229C88.6935 131.017 87.7768 131.795 87.8273 132.8Z" fill="white"/>
</g>
<path d="M76.985 127.759C77.4878 127.591 78.0303 127.869 78.1874 128.375L78.9268 130.756C79.0006 130.994 79.3148 131.046 79.4618 130.845L83.7922 124.904C84.0079 124.607 84.4723 124.821 84.3915 125.178C83.9385 127.179 82.6017 130.882 78.7211 133.4C78.7211 133.4 77.0985 132.341 76.3339 128.915C76.2241 128.42 76.5042 127.92 76.985 127.759Z" fill="url(#paint6_linear_2_169)"/>
<path d="M1.71394 26.709C1.34677 24.9527 2.6161 23.2783 4.40654 23.1603C16.2803 22.3806 57.0012 19.1561 89.3426 9.96103C90.8176 9.5415 92.3481 10.4127 92.733 11.8972L124.311 133.796C124.744 135.467 123.747 137.174 122.078 137.617C108.427 141.242 52.1636 155.96 31.4347 157.957C30.173 158.079 29.0241 157.229 28.7648 155.988L1.71394 26.709Z" fill="#91B3FA"/>
<path opacity="0.6" d="M3.70186 29.5208C3.34794 27.8307 4.57059 26.2188 6.29352 26.1059C17.72 25.3551 56.9078 22.2525 88.031 13.4037C89.4505 13 90.9236 13.8384 91.2933 15.2667L121.682 132.575C122.099 134.184 121.14 135.826 119.533 136.253C106.396 139.74 52.2513 153.905 32.3028 155.826C31.089 155.943 29.9831 155.125 29.7333 153.932L3.70186 29.5208Z" fill="white"/>
<path opacity="0.78" d="M15.8532 36.5728L22.198 61.757C22.4094 62.5948 23.2289 63.1279 24.0799 62.9802C28.8153 62.1569 43.5603 59.5344 51.7573 57.4203C52.6847 57.1812 53.272 56.2727 53.1124 55.3283C52.3017 50.5279 49.8293 36.5804 47.5645 30.9996C47.1985 30.0981 46.2535 29.5751 45.2939 29.7354L17.2652 34.4146C16.2545 34.5837 15.6034 35.5792 15.8532 36.5728Z" fill="white"/>
<path d="M39.2797 42.7889C39.4891 39.7159 37.1677 37.0549 34.0947 36.8455C31.0217 36.636 28.3608 38.9574 28.1514 42.0304C27.9419 45.1034 30.2633 47.7643 33.3363 47.9738C36.4093 48.1832 39.0702 45.8619 39.2797 42.7889Z" fill="#91B3FA"/>
<path d="M28.6715 60.1425L46.0838 56.6058C47.1512 56.3888 47.5512 55.0804 46.7942 54.2974C44.8454 52.2837 41.0601 49.5122 35.7323 50.7544C30.5969 51.9512 28.1598 55.6444 27.0678 58.1591C26.6041 59.2265 27.5309 60.3741 28.6715 60.1425Z" fill="#91B3FA"/>
<g opacity="0.6">
<path d="M85.9321 24.6435C86.4772 24.5324 86.8342 24.0605 86.7257 23.5943C86.6166 23.1281 86.0797 22.8291 85.5327 22.93L54.9035 28.5846C54.3565 28.6855 54.142 29.1587 54.4278 29.6363L54.6581 30.0211C54.9439 30.4987 55.6233 30.799 56.169 30.6879L85.9321 24.6435Z" fill="white"/>
</g>
<g opacity="0.6">
<path d="M55.8656 33.325C55.3186 33.426 55.1041 33.8991 55.3899 34.3767L55.6202 34.7615C55.906 35.2391 56.5854 35.5394 57.1311 35.4284L86.8948 29.3833C87.4399 29.2722 87.797 28.8003 87.6885 28.3341C87.5793 27.8679 87.0424 27.5689 86.4955 27.6698L55.8656 33.325Z" fill="white"/>
</g>
<g opacity="0.6">
<path d="M56.8422 38.1336C56.2952 38.2346 56.0807 38.7077 56.3665 39.1853L56.5968 39.5701C56.8826 40.0477 57.562 40.348 58.1077 40.237L87.8714 34.1919C88.4165 34.0808 88.7736 33.6089 88.6651 33.1427C88.5559 32.6765 88.019 32.3775 87.4721 32.4784L56.8422 38.1336Z" fill="white"/>
</g>
<g opacity="0.6">
<path d="M95.5454 56.7793C96.0905 56.6683 96.4337 56.1996 96.3075 55.7365C96.1814 55.2734 95.6312 54.982 95.0849 55.0886L23.473 69.0468C22.9267 69.1534 22.8289 69.5332 23.2554 69.8903L23.9884 70.5054C24.4149 70.8631 25.2098 71.065 25.7549 70.954L95.5454 56.7793Z" fill="white"/>
</g>
<g opacity="0.6">
<path d="M24.4357 73.7866C23.8894 73.8932 23.7916 74.273 24.2181 74.6301L24.9512 75.2452C25.3776 75.6029 26.1725 75.8048 26.7176 75.6937L96.5081 61.5185C97.0532 61.4074 97.3964 60.9387 97.2703 60.4756C97.1441 60.0126 96.594 59.7211 96.0476 59.8277L24.4357 73.7866Z" fill="white"/>
</g>
<path opacity="0.6" d="M25.7202 81.7653C27.4122 81.2846 30.6196 80.5698 32.3861 80.185C33.135 80.0222 33.8964 80.397 34.2213 81.0909C34.8516 82.4391 35.8231 84.8055 36.2938 87.4262C36.4345 88.211 35.9216 88.9643 35.1386 89.1151L28.5851 90.3731C27.7788 90.5276 26.9864 90.0488 26.7492 89.2634L24.9247 83.2283C24.7354 82.6031 25.0931 81.9439 25.7202 81.7653Z" fill="white"/>
<g opacity="0.6">
<path d="M38.3265 81.8353C37.777 81.923 37.4836 82.4227 37.6741 82.9457L38.0464 83.9677C38.2369 84.4907 38.8387 84.8276 39.3844 84.7172L55.2662 81.4915C55.8113 81.3805 56.1615 80.8448 56.0441 80.301L55.9861 80.0335C55.8687 79.4897 55.323 79.1169 54.7735 79.2046L38.3265 81.8353Z" fill="white"/>
</g>
<path opacity="0.6" d="M61.346 74.5297C63.0381 74.049 66.2455 73.3342 68.0119 72.9494C68.7608 72.7866 69.5223 73.1614 69.8472 73.8553C70.4774 75.2035 71.449 77.5699 71.9196 80.1906C72.0603 80.9754 71.5474 81.7287 70.7645 81.8795L64.2109 83.1375C63.4052 83.292 62.6122 82.8132 62.375 82.0277L60.5505 75.9927C60.3612 75.3675 60.719 74.7076 61.346 74.5297Z" fill="white"/>
<g opacity="0.6">
<path d="M73.9523 74.5998C73.4028 74.6875 73.1094 75.1871 73.3 75.7101L73.6728 76.7321C73.8633 77.2551 74.4652 77.592 75.0109 77.4816L90.8927 74.2559C91.4378 74.1449 91.7879 73.6093 91.6706 73.0655L91.6125 72.798C91.4952 72.2542 90.9495 71.8807 90.4 71.969L73.9523 74.5998Z" fill="white"/>
</g>
<path d="M39.9043 104.3C39.8986 104.301 39.8936 104.302 39.8879 104.303L33.8422 105.471C32.9785 105.637 32.1464 105.189 31.9066 104.427L30.3477 99.4722C30.2562 99.1813 30.289 98.8691 30.4398 98.5921C30.6083 98.2823 30.9111 98.0483 31.2707 97.9486C31.7723 97.8104 32.4757 97.6041 33.2201 97.3859C34.7885 96.926 36.7404 96.3531 37.8552 96.1121C38.6653 95.9437 39.4507 96.2837 39.7851 96.9506C40.3352 98.0489 40.7547 100.254 41.1711 102.61C41.3061 103.376 40.739 104.13 39.9043 104.3ZM31.3956 98.4047C31.159 98.4697 30.9622 98.6205 30.8543 98.818C30.7654 98.9807 30.7458 99.1631 30.7982 99.3302L32.3571 104.285C32.5243 104.818 33.1242 105.127 33.752 105.006L39.7977 103.839C39.8015 103.838 39.8059 103.837 39.8097 103.836C40.3945 103.717 40.7951 103.207 40.7043 102.693C40.2942 100.372 39.8829 98.2041 39.3611 97.1625C39.1271 96.6957 38.5435 96.4566 37.9542 96.5746C36.8559 96.8118 34.9134 97.3821 33.3526 97.8395C32.6063 98.0584 31.901 98.2653 31.3956 98.4047Z" fill="white"/>
<path opacity="0.6" d="M32.1508 98.7953C33.4006 98.4515 36.0995 97.6118 37.4029 97.3304C37.9549 97.2112 38.5088 97.4471 38.7359 97.9007C39.1775 98.782 39.5214 100.648 39.8261 102.372C39.9176 102.888 39.5289 103.394 38.9517 103.505L34.1204 104.439C33.5261 104.553 32.952 104.249 32.7899 103.734L31.5439 99.7738C31.4152 99.3643 31.6877 98.9227 32.1508 98.7953Z" fill="white"/>
<g opacity="0.6">
<path d="M44.5217 99.8608C44.8308 100.488 45.5261 100.825 46.2099 100.68L101.945 88.8646C102.575 88.7308 102.975 88.1075 102.833 87.4785C102.695 86.8672 102.095 86.4773 101.48 86.5991L45.5948 97.6849C44.6088 97.8805 44.0769 98.9593 44.5217 99.8608Z" fill="white"/>
</g>
<path d="M42.5313 117.233C42.5256 117.234 42.5206 117.235 42.5149 117.236L36.4692 118.404C35.6055 118.57 34.7733 118.122 34.5336 117.36L32.9747 112.405C32.8832 112.114 32.916 111.802 33.0662 111.525C33.2346 111.215 33.5375 110.981 33.8971 110.881C34.3986 110.743 35.102 110.537 35.8465 110.318C37.4149 109.858 39.3668 109.286 40.4816 109.045C40.4898 109.043 40.498 109.041 40.5055 109.04C41.2992 108.879 42.0802 109.223 42.4108 109.884C42.9609 110.982 43.3804 113.188 43.7968 115.543C43.9325 116.309 43.3659 117.063 42.5313 117.233ZM34.0226 111.338C33.786 111.403 33.5892 111.554 33.4813 111.751C33.3924 111.914 33.3728 112.096 33.4252 112.263L34.9841 117.218C35.1512 117.751 35.7512 118.061 36.3789 117.939L42.4247 116.772C42.4285 116.771 42.4329 116.77 42.4367 116.769C43.0215 116.651 43.4221 116.14 43.3312 115.626C42.9212 113.306 42.5098 111.137 41.9881 110.096C41.754 109.629 41.161 109.38 40.5812 109.508C39.4835 109.745 37.5404 110.315 35.9796 110.773C35.2333 110.992 34.5273 111.198 34.0226 111.338Z" fill="white"/>
<path opacity="0.6" d="M34.7777 111.728C36.0275 111.385 38.7264 110.545 40.0298 110.263C40.5819 110.144 41.1358 110.38 41.3629 110.834C41.8045 111.715 42.1483 113.581 42.453 115.305C42.5445 115.821 42.1559 116.327 41.5786 116.438L36.7474 117.372C36.1531 117.486 35.579 117.182 35.4168 116.667L34.1708 112.707C34.0415 112.297 34.3147 111.856 34.7777 111.728Z" fill="white"/>
<g opacity="0.6">
<path d="M47.1487 112.794C47.4578 113.421 48.1531 113.758 48.8369 113.613L104.572 101.798C105.202 101.664 105.602 101.041 105.46 100.412C105.322 99.8003 104.722 99.4104 104.107 99.5321L48.2218 110.618C47.2358 110.814 46.7039 111.892 47.1487 112.794Z" fill="white"/>
</g>
<path d="M45.1583 130.165C45.1526 130.166 45.1475 130.168 45.1419 130.168L39.0961 131.336C38.2325 131.503 37.4003 131.055 37.1606 130.293L35.6017 125.338C35.5102 125.047 35.543 124.734 35.6938 124.457C35.8622 124.147 36.1651 123.913 36.5247 123.813C37.0262 123.675 37.7296 123.469 38.4741 123.251C40.0425 122.791 41.9944 122.218 43.1092 121.977C43.1174 121.975 43.1256 121.973 43.1331 121.972C43.9268 121.811 44.7078 122.156 45.0384 122.816C45.5885 123.914 46.0081 126.12 46.4244 128.476C46.5595 129.242 45.9923 129.996 45.1583 130.165ZM36.6496 124.27C36.413 124.335 36.2162 124.486 36.1083 124.683C36.0193 124.846 35.9998 125.029 36.0521 125.196L37.611 130.151C37.7782 130.683 38.3782 130.993 39.0059 130.872L45.0523 129.704C45.0561 129.703 45.0605 129.702 45.0643 129.702C45.6491 129.583 46.0497 129.073 45.9589 128.558C45.5488 126.238 45.1375 124.07 44.6157 123.028C44.3817 122.562 43.788 122.311 43.2088 122.44C42.1111 122.677 40.168 123.248 38.6072 123.705C37.8596 123.925 37.1543 124.131 36.6496 124.27Z" fill="white"/>
<path opacity="0.6" d="M37.4047 124.661C38.6545 124.318 41.3534 123.478 42.6568 123.196C43.2088 123.077 43.7628 123.313 43.9899 123.767C44.4315 124.648 44.7753 126.514 45.08 128.238C45.1715 128.755 44.7829 129.26 44.2056 129.372L39.3744 130.305C38.7801 130.419 38.206 130.115 38.0438 129.599L36.7978 125.639C36.6685 125.23 36.9411 124.789 37.4047 124.661Z" fill="white"/>
<g opacity="0.6">
<path d="M49.7757 125.727C50.0848 126.354 50.78 126.691 51.4639 126.547L107.199 114.731C107.829 114.597 108.229 113.974 108.087 113.345C107.949 112.733 107.349 112.343 106.734 112.465L50.8488 123.551C49.8627 123.747 49.3303 124.825 49.7757 125.727Z" fill="white"/>
</g>
<path d="M47.7853 143.098C47.7796 143.099 47.7745 143.101 47.7689 143.101L41.7231 144.269C40.8594 144.436 40.0273 143.988 39.7876 143.226L38.2287 138.27C38.1372 137.979 38.17 137.666 38.3208 137.389C38.4892 137.08 38.792 136.846 39.1517 136.747C39.6532 136.608 40.3566 136.402 41.1011 136.184C42.6694 135.724 44.6214 135.151 45.7362 134.91C45.7444 134.908 45.7526 134.906 45.7601 134.905C46.5538 134.744 47.3348 135.089 47.6654 135.749C48.2155 136.847 48.635 139.053 49.0514 141.409C49.1864 142.175 48.6193 142.929 47.7853 143.098ZM39.2759 137.203C39.0394 137.268 38.8425 137.419 38.7346 137.617C38.6457 137.779 38.6261 137.962 38.6785 138.129L40.2374 143.084C40.4046 143.616 41.0046 143.926 41.6323 143.805L47.6786 142.637C47.6824 142.636 47.6868 142.635 47.6906 142.635C48.2755 142.516 48.6761 142.006 48.5852 141.491C48.1751 139.171 47.7638 137.003 47.2421 135.961C47.008 135.494 46.4144 135.242 45.8352 135.373C44.7375 135.61 42.7944 136.181 41.2336 136.638C40.4866 136.858 39.7813 137.064 39.2759 137.203Z" fill="white"/>
<path opacity="0.6" d="M40.0311 137.594C41.2809 137.251 43.9798 136.411 45.2832 136.13C45.8352 136.01 46.3891 136.246 46.6162 136.7C47.0578 137.581 47.4017 139.447 47.7064 141.171C47.7979 141.688 47.4093 142.194 46.832 142.305L42.0007 143.238C41.4064 143.353 40.8323 143.048 40.6702 142.533L39.4242 138.573C39.2955 138.163 39.568 137.722 40.0311 137.594Z" fill="white"/>
<g opacity="0.6">
<path d="M52.402 138.66C52.7112 139.287 53.4064 139.624 54.0903 139.479L109.825 127.664C110.456 127.53 110.856 126.907 110.713 126.278C110.575 125.666 109.975 125.276 109.36 125.398L53.4752 136.484C52.4897 136.68 51.9573 137.758 52.402 138.66Z" fill="white"/>
</g>
<path d="M40.4494 138.336C40.8437 137.982 41.4525 138.022 41.7976 138.425L43.4215 140.317C43.5842 140.506 43.8927 140.429 43.9476 140.186L45.5646 133.014C45.6453 132.657 46.1557 132.668 46.2238 133.029C46.6017 135.045 46.8446 138.975 44.2826 142.826C44.2826 142.826 42.3729 142.497 40.3112 139.656C40.0134 139.245 40.0721 138.675 40.4494 138.336Z" fill="url(#paint7_linear_2_169)"/>
<path d="M37.8621 132.173C38.4154 137.981 39.715 145.659 41.2765 152.275H42.2568C40.2374 144.291 38.3795 133.356 38.9264 120.752C39.4784 108.041 42.5912 92.6077 36.7865 85.2358C31.9552 79.0999 11.4541 78.1826 4.71314 78.0476C3.87092 78.0306 3.38829 79.0008 3.91255 79.6608C6.49727 82.9129 11.909 90.4438 12.3802 97.0207C13.0016 105.689 19.7388 112.492 26.4325 115.324C33.1261 118.156 36.7322 120.317 37.8621 132.173Z" fill="#91B3FA"/>
<path opacity="0.5" d="M13.1423 83.4057C17.2891 84.458 21.2113 86.35 24.6427 88.941C26.3618 90.2312 27.9195 91.7478 29.2632 93.4405C30.5925 95.1426 31.7085 97.0283 32.4832 99.0534L32.7703 99.8136C32.8643 100.068 32.9343 100.33 33.017 100.588C33.0933 100.846 33.1797 101.108 33.2479 101.364L33.4529 102.135C33.7286 103.161 33.9986 104.189 34.2585 105.22C34.7815 107.28 35.2717 109.349 35.7291 111.425C36.6471 115.577 37.4363 119.756 37.9688 123.983C37.9814 124.084 37.9095 124.176 37.8085 124.19C37.7107 124.202 37.6211 124.135 37.6035 124.039L37.6022 124.034C37.2237 121.954 36.8048 119.873 36.3468 117.805C35.8982 115.735 35.4244 113.669 34.9285 111.609L34.1746 108.522L33.386 105.444C33.1236 104.417 32.8511 103.394 32.5735 102.371L32.3672 101.604C32.2984 101.348 32.2164 101.106 32.1419 100.856C32.0637 100.609 31.9981 100.356 31.9092 100.113L31.6379 99.3821C30.9098 97.4339 29.8367 95.6296 28.5857 93.9672C27.9415 93.1496 27.2684 92.3503 26.5208 91.6204L26.2457 91.3415L25.9599 91.0734C25.7688 90.8955 25.582 90.7125 25.3865 90.5384C24.9915 90.1958 24.6004 89.8476 24.1865 89.5259C22.5557 88.2086 20.7646 87.0913 18.9029 86.1109C17.0412 85.133 15.0823 84.3066 13.0723 83.6953L13.0629 83.6921C12.9846 83.6681 12.9398 83.5855 12.9638 83.5066C12.9865 83.4303 13.066 83.3861 13.1423 83.4057Z" fill="white"/>
<path d="M38.0552 140.039C41.5616 145.187 41.1112 148.067 41.2191 150.507C41.238 150.94 41.262 151.552 41.3124 152.276H42.2701C42.0745 151.283 41.9357 150.282 41.8865 149.299C41.5459 142.561 40.0254 131.062 34.215 124.183C28.4046 117.304 22.0422 116.676 14.025 122.93C7.34393 128.141 3.17633 130.772 0.732303 131.26C0.127288 131.382 -0.181844 132.065 0.112778 132.607C1.68052 135.494 6.11245 142.125 13.5537 141.659C23.0453 141.062 34.5494 134.892 38.0552 140.039Z" fill="#91B3FA"/>
<path opacity="0.5" d="M16.7403 131.215C17.2652 130.715 17.8216 130.265 18.3957 129.83C18.9698 129.397 19.5609 128.984 20.1767 128.608C21.4037 127.85 22.7135 127.203 24.1077 126.758C24.8048 126.538 25.5234 126.368 26.2584 126.275C26.9927 126.186 27.7441 126.174 28.4885 126.266C28.674 126.296 28.8614 126.314 29.045 126.355C29.2273 126.398 29.4159 126.433 29.5926 126.483L30.6392 126.808L31.6631 127.206L32.6555 127.683C33.9564 128.369 35.133 129.295 36.1121 130.385C37.0988 131.474 37.871 132.727 38.5063 134.026L38.7448 134.514C38.8268 134.675 38.8861 134.846 38.9574 135.012C39.0924 135.347 39.2375 135.678 39.3637 136.015L39.7157 137.037C39.8406 137.375 39.9201 137.726 40.021 138.071C40.4191 139.452 40.6929 140.859 40.9295 142.269C40.9427 142.348 40.8898 142.422 40.8109 142.435C40.7358 142.448 40.6645 142.4 40.6469 142.327L40.6456 142.323C40.3112 140.942 39.9895 139.559 39.5302 138.221C39.3214 137.545 39.0571 136.891 38.811 136.231C38.6785 135.905 38.5277 135.588 38.387 135.266C38.3126 135.107 38.2501 134.942 38.1662 134.788L37.9215 134.323C37.2742 133.082 36.4881 131.919 35.5494 130.902C34.61 129.885 33.4952 129.045 32.2745 128.403L31.3382 127.96L30.3686 127.589L29.3724 127.285C29.2071 127.239 29.045 127.207 28.8809 127.167C28.7175 127.128 28.5491 127.112 28.3832 127.083C27.7144 126.996 27.0306 127.001 26.3511 127.078C25.671 127.151 24.9941 127.294 24.3291 127.488C22.9974 127.876 21.7129 128.455 20.4789 129.129C19.8644 129.471 19.2556 129.828 18.6645 130.214C18.0752 130.602 17.4929 131.011 16.9384 131.44L16.9346 131.443C16.869 131.493 16.775 131.482 16.7239 131.416C16.6778 131.354 16.6854 131.267 16.7403 131.215Z" fill="white"/>
<path d="M38.2533 39.2024C38.2533 33.9276 42.5294 29.6521 47.8036 29.6521H129.021C133.501 29.6521 137.196 33.1636 137.424 37.6384L143.419 155.388C143.598 158.89 140.841 161.844 137.335 161.907L44.2498 163.599C40.956 163.659 38.2533 161.005 38.2533 157.711V39.2024Z" fill="url(#paint8_linear_2_169)"/>
<path d="M44.9072 31.464C44.8971 29.7764 46.3816 28.4704 48.0534 28.6969C59.1443 30.2009 97.2829 34.8524 128.816 32.4324C130.253 32.322 131.501 33.4115 131.578 34.8518L137.864 153.126C137.951 154.748 136.712 156.135 135.091 156.231C121.829 157.016 67.2114 160.049 47.7304 158.009C46.545 157.885 45.6447 156.887 45.6378 155.694L44.9072 31.464Z" fill="#91B3FA"/>
<path opacity="0.6" d="M46.2131 34.4278C46.2037 32.8039 47.632 31.5466 49.2413 31.7649C59.9146 33.2121 96.6173 37.6888 126.963 35.3596C128.347 35.2536 129.547 36.3022 129.621 37.6876L135.671 151.509C135.753 153.069 134.562 154.404 133.002 154.496C120.239 155.252 67.6788 158.171 48.931 156.208C47.7897 156.089 46.9241 155.128 46.9172 153.98L46.2131 34.4278Z" fill="white"/>
<path opacity="0.78" d="M56.094 43.2034L57.2277 67.6052C57.2655 68.4165 57.921 69.0619 58.733 69.0852C63.252 69.2127 77.3345 69.5559 85.2861 69.1414C86.1857 69.0947 86.8974 68.3667 86.927 67.4664C87.0784 62.89 87.4103 49.5702 86.3674 44.0027C86.199 43.1031 85.4261 42.4444 84.5114 42.4122L57.7993 41.4779C56.8359 41.4451 56.0492 42.2406 56.094 43.2034Z" fill="white"/>
<path d="M71.4648 57.1736C74.3619 57.1736 76.7105 54.825 76.7105 51.9278C76.7105 49.0307 74.3619 46.6821 71.4648 46.6821C68.5676 46.6821 66.219 49.0307 66.219 51.9278C66.219 54.825 68.5676 57.1736 71.4648 57.1736Z" fill="url(#paint9_linear_2_169)"/>
<path d="M63.4967 67.3288H80.2088C81.2333 67.3288 81.8472 66.1977 81.2958 65.334C79.8763 63.1127 76.9061 59.8497 71.7625 59.9967C66.8051 60.1387 63.8671 63.0862 62.3895 65.2002C61.7625 66.098 62.4015 67.3288 63.4967 67.3288Z" fill="url(#paint10_linear_2_169)"/>
<g opacity="0.6">
<path d="M122.923 45.3276C123.447 45.3276 123.864 44.9591 123.851 44.5087C123.838 44.0582 123.399 43.6822 122.876 43.6734L93.5841 43.1517C93.0611 43.1422 92.7746 43.5384 92.9488 44.0324L93.0888 44.4305C93.2629 44.9244 93.8333 45.3282 94.3563 45.3282H122.923V45.3276Z" fill="white"/>
</g>
<g opacity="0.6">
<path d="M93.5841 47.7003C93.0611 47.6908 92.7746 48.087 92.9488 48.581L93.0888 48.9791C93.2629 49.4731 93.8333 49.8768 94.3563 49.8768H122.923C123.447 49.8768 123.864 49.5084 123.851 49.058C123.838 48.6075 123.399 48.2315 122.876 48.2227L93.5841 47.7003Z" fill="white"/>
</g>
<g opacity="0.6">
<path d="M93.5841 52.3158C93.0611 52.3063 92.7746 52.7025 92.9488 53.1965L93.0888 53.5946C93.2629 54.0886 93.8333 54.4923 94.3563 54.4923H122.923C123.447 54.4923 123.864 54.1239 123.851 53.6734C123.838 53.223 123.399 52.847 122.876 52.8381L93.5841 52.3158Z" fill="white"/>
</g>
<g opacity="0.6">
<path d="M125.768 76.7492C126.292 76.7492 126.696 76.3808 126.666 75.9303C126.637 75.4799 126.184 75.1083 125.661 75.1045L57.0378 74.5638C56.5142 74.5594 56.3527 74.8913 56.6788 75.3007L57.2397 76.0048C57.5658 76.4142 58.2604 76.7492 58.7841 76.7492H125.768Z" fill="white"/>
</g>
<g opacity="0.6">
<path d="M57.0378 79.1125C56.5142 79.1081 56.3527 79.4399 56.6788 79.8493L57.2397 80.5534C57.5658 80.9628 58.2604 81.2978 58.7841 81.2978H125.769C126.293 81.2978 126.696 80.9294 126.667 80.479C126.637 80.0285 126.185 79.6569 125.661 79.6531L57.0378 79.1125Z" fill="white"/>
</g>
<path d="M56.728 86.7076C58.3778 86.5815 61.4678 86.5228 63.1687 86.4988C63.8891 86.4887 64.5213 86.977 64.6904 87.6773C65.0184 89.0381 65.4714 91.4014 65.4146 93.9047C65.3976 94.6542 64.7831 95.2529 64.0336 95.2447L57.757 95.1772C56.9854 95.169 56.3444 94.5791 56.2725 93.8101L55.7205 87.9057C55.6631 87.2956 56.1161 86.7549 56.728 86.7076Z" fill="url(#paint11_linear_2_169)"/>
<g opacity="0.6">
<path d="M68.335 89.1328C67.812 89.1107 67.4479 89.5163 67.5255 90.0343L67.6776 91.0462C67.7552 91.5635 68.2473 91.9875 68.7703 91.9875H84.0136C84.5372 91.9875 84.9599 91.5591 84.9536 91.0361L84.9505 90.7787C84.9442 90.2551 84.5107 89.8091 83.9877 89.7876L68.335 89.1328Z" fill="white"/>
</g>
<path d="M90.9211 86.7076C92.5709 86.5815 95.6609 86.5228 97.3618 86.4988C98.0822 86.4887 98.7144 86.977 98.8835 87.6773C99.2115 89.0381 99.6645 91.4014 99.6077 93.9047C99.5907 94.6542 98.9762 95.2529 98.2267 95.2447L91.9501 95.1772C91.1785 95.169 90.5375 94.5791 90.4656 93.8101L89.9136 87.9057C89.8568 87.2956 90.3098 86.7549 90.9211 86.7076Z" fill="url(#paint12_linear_2_169)"/>
<g opacity="0.6">
<path d="M102.528 89.1328C102.005 89.1107 101.641 89.5163 101.719 90.0343L101.871 91.0462C101.948 91.5635 102.44 91.9875 102.963 91.9875H118.207C118.73 91.9875 119.153 91.5591 119.147 91.0361L119.144 90.7787C119.137 90.2551 118.704 89.8091 118.181 89.7876L102.528 89.1328Z" fill="white"/>
</g>
<path d="M65.5837 110.135C65.5786 110.135 65.5729 110.135 65.5679 110.135L59.7764 110.079C58.9487 110.071 58.2661 109.502 58.1872 108.755L57.6781 103.895C57.6485 103.61 57.7368 103.328 57.9273 103.101C58.1405 102.847 58.4636 102.688 58.8137 102.664C59.3014 102.63 59.989 102.572 60.7164 102.51C62.2482 102.379 64.1547 102.217 65.2272 102.204C66.0057 102.2 66.6656 102.661 66.8492 103.338C67.1508 104.454 67.1243 106.565 67.0669 108.815C67.0479 109.546 66.3843 110.135 65.5837 110.135ZM58.844 103.108C58.6137 103.124 58.4042 103.226 58.268 103.388C58.1557 103.521 58.1033 103.685 58.1204 103.849L58.6295 108.708C58.6844 109.23 59.179 109.628 59.7802 109.635L65.5717 109.69C65.5755 109.69 65.5793 109.69 65.583 109.69C66.1445 109.69 66.6089 109.294 66.6215 108.804C66.6782 106.588 66.7047 104.512 66.419 103.454C66.2909 102.981 65.7975 102.651 65.2323 102.649C64.1755 102.662 62.2779 102.824 60.7536 102.953C60.0244 103.015 59.3354 103.074 58.844 103.108Z" fill="white"/>
<path opacity="0.6" d="M59.4673 103.61C60.6843 103.526 63.3283 103.258 64.5825 103.242C65.1137 103.235 65.5799 103.557 65.7048 104.018C65.9471 104.913 65.9149 106.696 65.8726 108.343C65.86 108.836 65.407 109.23 64.8544 109.224L60.2262 109.18C59.6572 109.175 59.1847 108.787 59.1317 108.281L58.7247 104.398C58.6818 103.996 59.0162 103.64 59.4673 103.61Z" fill="white"/>
<g opacity="0.6">
<path d="M70.6705 106.908C70.8383 107.544 71.4155 107.985 72.0735 107.979L125.661 107.522C126.267 107.517 126.752 107.017 126.739 106.411C126.726 105.822 126.246 105.35 125.657 105.348L72.0679 105.103C71.1215 105.099 70.4295 105.993 70.6705 106.908Z" fill="white"/>
</g>
<path d="M59.714 104.372C60.1442 104.119 60.6975 104.27 60.9404 104.705L62.0829 106.753C62.1971 106.958 62.4962 106.945 62.5927 106.731L65.426 100.423C65.5673 100.108 66.036 100.215 66.031 100.56C66.002 102.489 65.4903 106.157 62.4072 109.227C62.4072 109.227 60.7082 108.566 59.3399 105.562C59.1411 105.127 59.3026 104.613 59.714 104.372Z" fill="url(#paint13_linear_2_169)"/>
<path d="M65.5837 122.548C65.5786 122.548 65.5729 122.548 65.5679 122.548L59.7764 122.492C58.9487 122.484 58.2661 121.915 58.1872 121.168L57.6781 116.309C57.6485 116.023 57.7368 115.741 57.9273 115.514C58.1405 115.261 58.4636 115.101 58.8137 115.077C59.3014 115.044 59.989 114.985 60.7164 114.923C62.2482 114.793 64.1547 114.63 65.2272 114.617C65.2348 114.617 65.243 114.617 65.2506 114.617C66.012 114.617 66.6675 115.081 66.8492 115.752C67.1508 116.867 67.1243 118.978 67.0669 121.228C67.0479 121.959 66.3843 122.548 65.5837 122.548ZM58.844 115.521C58.6137 115.537 58.4042 115.639 58.268 115.801C58.1557 115.934 58.1033 116.098 58.1204 116.262L58.6295 121.122C58.6844 121.643 59.179 122.041 59.7802 122.048L65.5717 122.103C65.5755 122.103 65.5793 122.103 65.583 122.103C66.1445 122.103 66.6089 121.708 66.6215 121.217C66.6782 119.001 66.7047 116.926 66.419 115.868C66.2909 115.394 65.7906 115.053 65.2323 115.062C64.1755 115.075 62.2785 115.237 60.7536 115.367C60.0244 115.428 59.3354 115.487 58.844 115.521Z" fill="white"/>
<path opacity="0.6" d="M59.4673 116.023C60.6843 115.94 63.3283 115.671 64.5825 115.656C65.1137 115.649 65.5799 115.97 65.7048 116.431C65.9471 117.326 65.9149 119.11 65.8726 120.756C65.86 121.25 65.407 121.643 64.8544 121.638L60.2262 121.593C59.6572 121.588 59.1847 121.2 59.1317 120.694L58.7247 116.811C58.6818 116.409 59.0162 116.053 59.4673 116.023Z" fill="white"/>
<g opacity="0.6">
<path d="M70.6705 119.321C70.8383 119.957 71.4155 120.398 72.0735 120.392L125.661 119.935C126.267 119.93 126.752 119.43 126.739 118.824C126.726 118.235 126.246 117.763 125.657 117.761L72.0679 117.517C71.1215 117.512 70.4295 118.406 70.6705 119.321Z" fill="white"/>
</g>
<path d="M59.714 116.784C60.1442 116.532 60.6975 116.683 60.9404 117.118L62.0829 119.166C62.1971 119.371 62.4962 119.358 62.5927 119.144L65.426 112.836C65.5673 112.521 66.036 112.627 66.031 112.973C66.002 114.902 65.4903 118.57 62.4072 121.64C62.4072 121.64 60.7082 120.979 59.3399 117.975C59.1411 117.541 59.3026 117.026 59.714 116.784Z" fill="url(#paint14_linear_2_169)"/>
<path d="M65.5837 134.961C65.5786 134.961 65.5729 134.961 65.5679 134.961L59.7764 134.905C58.9487 134.898 58.2661 134.328 58.1872 133.581L57.6781 128.721C57.6485 128.436 57.7368 128.154 57.9273 127.927C58.1405 127.673 58.4636 127.514 58.8137 127.49C59.3014 127.456 59.989 127.398 60.7164 127.336C62.2482 127.205 64.1547 127.043 65.2272 127.03C65.2348 127.03 65.243 127.03 65.2506 127.03C66.012 127.03 66.6675 127.493 66.8492 128.164C67.1508 129.28 67.1243 131.391 67.0669 133.641C67.0479 134.372 66.3843 134.961 65.5837 134.961ZM58.844 127.934C58.6137 127.95 58.4042 128.052 58.268 128.213C58.1557 128.347 58.1033 128.511 58.1204 128.675L58.6295 133.535C58.6844 134.057 59.179 134.455 59.7802 134.46L65.5717 134.516C65.5755 134.516 65.5793 134.516 65.583 134.516C66.1445 134.516 66.6089 134.12 66.6215 133.629C66.6782 131.414 66.7047 129.338 66.419 128.28C66.2909 127.806 65.7906 127.464 65.2323 127.475C64.1755 127.488 62.2785 127.649 60.7536 127.779C60.0244 127.842 59.3354 127.9 58.844 127.934Z" fill="white"/>
<path opacity="0.6" d="M59.4673 128.435C60.6843 128.352 63.3283 128.084 64.5825 128.068C65.1137 128.062 65.5799 128.382 65.7048 128.844C65.9471 129.739 65.9149 131.522 65.8726 133.169C65.86 133.662 65.407 134.056 64.8544 134.05L60.2262 134.006C59.6572 134 59.1847 133.612 59.1317 133.107L58.7247 129.224C58.6818 128.822 59.0162 128.466 59.4673 128.435Z" fill="white"/>
<g opacity="0.6">
<path d="M70.6705 131.734C70.8383 132.37 71.4155 132.811 72.0735 132.805L125.661 132.349C126.267 132.344 126.752 131.843 126.739 131.238C126.726 130.648 126.246 130.177 125.657 130.174L72.0679 129.93C71.1215 129.925 70.4295 130.819 70.6705 131.734Z" fill="white"/>
</g>
<path d="M59.714 129.197C60.1442 128.945 60.6975 129.096 60.9404 129.531L62.0829 131.579C62.1971 131.784 62.4962 131.771 62.5927 131.557L65.426 125.249C65.5673 124.934 66.036 125.041 66.031 125.386C66.002 127.315 65.4903 130.983 62.4072 134.053C62.4072 134.053 60.7082 133.392 59.3399 130.388C59.1411 129.954 59.3026 129.439 59.714 129.197Z" fill="url(#paint15_linear_2_169)"/>
<path d="M65.5837 147.374C65.5786 147.374 65.5729 147.374 65.5679 147.374L59.7764 147.318C58.9487 147.311 58.2661 146.741 58.1872 145.994L57.6781 141.134C57.6485 140.849 57.7368 140.567 57.9273 140.34C58.1405 140.086 58.4636 139.927 58.8137 139.903C59.3014 139.869 59.989 139.811 60.7164 139.749C62.2482 139.618 64.1547 139.456 65.2272 139.443C65.2348 139.443 65.243 139.443 65.2506 139.443C66.012 139.443 66.6675 139.907 66.8492 140.577C67.1508 141.693 67.1243 143.804 67.0669 146.054C67.0479 146.785 66.3843 147.374 65.5837 147.374ZM58.844 140.347C58.6137 140.363 58.4042 140.465 58.268 140.627C58.1557 140.76 58.1033 140.924 58.1204 141.088L58.6295 145.948C58.6844 146.47 59.179 146.868 59.7802 146.874L65.5717 146.929C65.5755 146.929 65.5793 146.929 65.583 146.929C66.1445 146.929 66.6089 146.533 66.6215 146.043C66.6782 143.827 66.7047 141.751 66.419 140.693C66.2909 140.22 65.7906 139.876 65.2323 139.888C64.1755 139.901 62.2785 140.063 60.7536 140.192C60.0244 140.255 59.3354 140.314 58.844 140.347Z" fill="white"/>
<path opacity="0.6" d="M59.4673 140.849C60.6843 140.765 63.3283 140.497 64.5825 140.481C65.1137 140.475 65.5799 140.796 65.7048 141.257C65.9471 142.152 65.9149 143.935 65.8726 145.582C65.86 146.075 65.407 146.469 64.8544 146.463L60.2262 146.419C59.6572 146.414 59.1847 146.026 59.1317 145.52L58.7247 141.637C58.6818 141.235 59.0162 140.879 59.4673 140.849Z" fill="white"/>
<g opacity="0.6">
<path d="M70.6705 144.147C70.8383 144.783 71.4155 145.224 72.0735 145.219L125.661 144.762C126.267 144.757 126.752 144.257 126.739 143.651C126.726 143.062 126.246 142.59 125.657 142.587L72.0679 142.343C71.1215 142.338 70.4295 143.233 70.6705 144.147Z" fill="white"/>
</g>
<path d="M59.714 141.611C60.1442 141.358 60.6975 141.509 60.9404 141.944L62.0829 143.992C62.1971 144.197 62.4962 144.184 62.5927 143.97L65.426 137.662C65.5673 137.347 66.036 137.454 66.031 137.799C66.002 139.728 65.4903 143.396 62.4072 146.466C62.4072 146.466 60.7082 145.805 59.3399 142.801C59.1411 142.367 59.3026 141.852 59.714 141.611Z" fill="url(#paint16_linear_2_169)"/>
<path d="M93.449 13.5974C90.5154 11.5565 87.9642 11.5969 86.1687 12.1269C84.5309 12.6101 83.4691 14.1917 83.625 15.8926L84.3997 24.3451L93.615 25.1627C93.6143 25.1627 99.2027 17.5998 93.449 13.5974ZM89.3969 20.4166C88.1282 20.4166 87.0992 19.3877 87.0992 18.119C87.0992 16.8496 88.1282 15.8213 89.3969 15.8213C90.6662 15.8213 91.6946 16.8503 91.6946 18.119C91.6946 19.3877 90.6656 20.4166 89.3969 20.4166Z" fill="url(#paint17_linear_2_169)"/>
<path d="M85.3202 20.7889C85.2066 20.7889 85.1094 20.7024 85.0987 20.587L84.9751 19.2407C84.9637 19.1183 85.0539 19.0104 85.1763 18.9991C85.3012 18.9871 85.4072 19.0779 85.4179 19.2003L85.541 20.5466C85.5523 20.669 85.4621 20.7769 85.3397 20.7882C85.3334 20.7889 85.3265 20.7889 85.3202 20.7889ZM85.0785 18.1512C84.965 18.1512 84.8678 18.0647 84.8571 17.9493L84.7631 16.9273C84.6148 15.3072 85.6343 13.7987 87.1869 13.3401C88.2866 13.0152 89.4202 12.9691 90.5546 13.2019C90.6751 13.2265 90.7527 13.3439 90.7274 13.4644C90.7028 13.5842 90.5861 13.6612 90.465 13.6372C89.402 13.4196 88.3414 13.4631 87.3125 13.7666C85.9624 14.1653 85.0766 15.4775 85.2053 16.8869L85.2987 17.9089C85.3101 18.0313 85.2198 18.1392 85.0975 18.1505C85.0918 18.1512 85.0848 18.1512 85.0785 18.1512Z" fill="white"/>
<path d="M71.8224 29.8073V25.5577C71.8224 24.0909 73.0381 22.9156 74.5043 22.966L103.804 23.9698C105.105 24.0146 106.157 25.0404 106.236 26.3394L106.48 30.4224L71.8224 29.8073Z" fill="url(#paint18_linear_2_169)"/>
<path d="M82.7481 24.5672H81.4882C81.3652 24.5672 81.2661 24.4675 81.2661 24.3451C81.2661 24.2221 81.3658 24.123 81.4882 24.123H82.7481C82.8711 24.123 82.9701 24.2227 82.9701 24.3451C82.9701 24.4675 82.8704 24.5672 82.7481 24.5672Z" fill="white"/>
<path d="M73.4085 28.473C73.2855 28.473 73.1864 28.3733 73.1864 28.2509V26.5318C73.1864 25.2031 74.2671 24.123 75.5951 24.123H80.2277C80.3507 24.123 80.4498 24.2227 80.4498 24.3451C80.4498 24.4681 80.3501 24.5672 80.2277 24.5672H75.5951C74.5119 24.5672 73.6312 25.4485 73.6312 26.5311V28.2503C73.6306 28.3733 73.5315 28.473 73.4085 28.473Z" fill="white"/>
<path d="M114.237 57.566L107.34 51.9417L100.442 57.566C100.993 52.2761 101.249 46.3736 100.958 39.9689C100.865 37.9292 100.722 35.9533 100.538 34.0455C100.515 33.8001 100.596 33.5566 100.762 33.3743C100.928 33.192 101.162 33.0885 101.408 33.0885C105.409 33.0885 109.41 33.0885 113.41 33.0885C113.874 33.0885 114.257 33.4519 114.282 33.915C114.435 36.8454 114.535 39.8774 114.568 43.0059C114.623 48.1098 114.495 52.9713 114.237 57.566Z" fill="url(#paint19_linear_2_169)"/>
<path d="M59.8843 30.8804C59.955 29.4086 61.1688 28.2522 62.6419 28.2522L113.878 28.2509C115.72 28.2509 117.296 29.5764 117.61 31.3921L117.653 31.6425C117.998 33.6311 116.467 35.4493 114.449 35.4493H61.8829C60.6754 35.4493 59.7127 34.4392 59.7708 33.233L59.8843 30.8804Z" fill="url(#paint20_linear_2_169)"/>
<path d="M149.331 172.717C146.647 172.841 144.049 172.763 142.315 172.673C143.894 171.549 147.533 169.103 150.577 168.13L152.667 168.005C152.667 168.005 153.376 169.082 153.628 171.547C153.282 171.979 152.27 172.582 149.331 172.717Z" fill="url(#paint21_linear_2_169)"/>
<path d="M142.293 172.689C142.3 172.684 142.308 172.679 142.315 172.674C144.049 172.763 146.647 172.841 149.331 172.718C152.269 172.583 153.282 171.979 153.628 171.547C153.639 171.661 153.651 171.774 153.662 171.893C153.705 172.434 153.303 172.909 152.763 172.95C150.565 173.116 145.114 173.492 142.486 173.354C142.139 173.336 142.01 172.89 142.293 172.689Z" fill="url(#paint22_linear_2_169)"/>
<path d="M168.528 171.998C168.725 170.738 169.04 168.917 169.283 168.451C169.666 167.72 170.974 168.451 170.974 168.451C170.974 168.451 171.891 168.879 172.314 169.593C172.584 170.048 173.329 171.342 173.833 172.22C173.891 172.321 173.915 172.429 173.913 172.533L168.676 172.716C168.548 172.511 168.487 172.261 168.528 171.998Z" fill="url(#paint23_linear_2_169)"/>
<path d="M173.912 172.533C173.903 172.832 173.666 173.104 173.332 173.113L169.601 173.216C169.206 173.227 168.865 173.022 168.675 172.717L173.912 172.533Z" fill="url(#paint24_linear_2_169)"/>
<path d="M168.128 164.263C168.174 164.415 168.85 167.694 169.147 169.135C169.229 169.533 169.587 169.812 169.993 169.792C170.214 169.78 170.472 169.761 170.742 169.725C171.221 169.663 171.587 169.263 171.606 168.78C171.654 167.518 171.678 165.097 171.215 164.159C170.575 162.864 168.128 164.263 168.128 164.263Z" fill="url(#paint25_linear_2_169)"/>
<path d="M153.079 165.202C152.788 165.193 153.195 166.701 152.756 168.183C152.657 168.517 152.407 168.78 152.058 168.784C151.832 168.787 151.564 168.783 151.293 168.761C150.884 168.728 150.555 168.411 150.517 168.002L150.16 164.158L153.079 165.202Z" fill="url(#paint26_linear_2_169)"/>
<path d="M144.96 124.343C145.09 124.974 149.662 151.643 149.94 165.444C149.944 165.675 150.115 165.869 150.344 165.901C150.925 165.982 152.055 166.086 153.151 165.883C153.301 165.855 153.414 165.731 153.424 165.579C153.583 163.007 154.868 141.263 153.295 131.027C153.295 131.027 166.296 158.389 168.266 165.934C168.314 166.117 168.483 166.241 168.672 166.231C169.229 166.201 170.387 166.102 171.306 165.763C171.635 165.642 171.823 165.295 171.74 164.954C170.639 160.439 162.923 129.33 157.684 122.476L144.96 124.343Z" fill="url(#paint27_linear_2_169)"/>
<path d="M153.294 131.198C153.337 131.198 153.38 131.182 153.414 131.149C153.481 131.084 153.482 130.975 153.416 130.908L151.676 129.128C151.61 129.061 151.501 129.059 151.434 129.126C151.366 129.191 151.365 129.3 151.431 129.367L153.172 131.148C153.206 131.181 153.25 131.198 153.294 131.198Z" fill="url(#paint28_linear_2_169)"/>
<path d="M140.563 89.9265C144.453 89.3417 152.086 88.5038 157.066 89.965L156.526 105.355L138.486 103.41L136.955 101.234C136.955 101.235 137.664 90.3624 140.563 89.9265Z" fill="url(#paint29_linear_2_169)"/>
<path d="M149.548 81.6872C149.548 81.6872 149.908 87.8086 149.84 89.7126C149.84 89.7126 144.829 90.5328 143.636 89.6754L144.579 82.419L149.548 81.6872Z" fill="url(#paint30_linear_2_169)"/>
<path d="M144.677 75.5569C144.677 75.5569 142.659 79.0986 142.34 81.0373C142.022 82.976 141.465 84.1962 143.678 84.8321C145.891 85.4674 147.912 84.5488 149.15 82.7167C149.15 82.7167 151.085 79.8967 150.855 78.6318C150.626 77.3662 144.677 75.5569 144.677 75.5569Z" fill="url(#paint31_linear_2_169)"/>
<path d="M148.53 81.2367L148.245 81.2058C148.245 81.2058 149.679 78.9226 148.692 78.3883C147.705 77.8539 143.707 76.5801 142.981 75.0339C142.281 73.5437 143.234 71.8189 144.423 71.4353C144.498 71.4114 144.579 71.4542 144.608 71.5274L144.683 71.7154C144.735 71.8441 144.917 71.8454 144.969 71.7167C145.019 71.5949 145.191 71.5861 145.248 71.7041C145.471 72.1671 146.127 72.9513 148.049 73.5242C150.776 74.3374 152.494 75.6616 152.332 77.5896C152.322 77.7119 152.445 77.7927 152.556 77.741C152.775 77.6381 153.11 77.6148 153.509 78.0312C154.203 78.7561 153.711 80.3888 151.889 81.5792C151.803 81.636 151.79 81.7603 151.87 81.8253C152.153 82.0556 152.555 82.5748 151.315 83.0757C150.046 83.588 149.343 83.4416 149.083 83.3438C149.013 83.3173 148.971 83.2467 148.984 83.1729L149.272 81.4802C149.288 81.3925 149.225 81.3105 149.137 81.301L148.53 81.2367Z" fill="url(#paint32_linear_2_169)"/>
<path d="M148.421 81.5856C148.421 81.5856 149.294 79.2784 150.287 80.0582C151.279 80.8386 149.448 82.6587 148.583 82.6549L148.421 81.5856Z" fill="url(#paint33_linear_2_169)"/>
<path d="M126.813 101.966L127.291 100.085C127.528 99.155 128.453 98.5746 129.394 98.7664L174.448 107.958C175.474 108.168 176.133 109.172 175.917 110.197L173.17 123.217L126.813 101.966Z" fill="url(#paint34_linear_2_169)"/>
<path d="M122.541 124.805L125.93 100.45C126 99.9461 126.485 99.6098 126.982 99.7196L173.255 109.995C174.243 110.215 174.862 111.197 174.635 112.183L170.751 129.017L122.541 124.805Z" fill="white"/>
<path d="M123.763 123.701L125.061 101.963C125.095 101.404 125.617 101.006 126.165 101.122L172.925 111.017C173.585 111.156 174.019 111.788 173.913 112.453L171.423 128.156L123.763 123.701Z" fill="white"/>
<path d="M120.376 128.84L123.32 105.294C123.467 104.121 124.573 103.314 125.735 103.533L173.684 112.583C174.656 112.767 175.296 113.704 175.112 114.676L171.062 136.132C170.871 137.145 169.922 137.83 168.9 137.694L122.418 131.486C121.126 131.315 120.215 130.133 120.376 128.84Z" fill="url(#paint35_linear_2_169)"/>
<path d="M142.607 106.718C142.419 107.717 141.456 108.374 140.457 108.185L129.766 106.168C128.768 105.979 128.11 105.016 128.299 104.018C128.487 103.019 129.45 102.362 130.449 102.55L141.14 104.568C142.139 104.757 142.796 105.719 142.607 106.718Z" fill="url(#paint36_linear_2_169)"/>
<path d="M152.034 96.6756L157.066 89.965C157.066 89.965 165.152 98.5544 166.702 109.457L161.659 111.916C160.093 108.245 157.212 103.272 152.034 96.6756Z" fill="url(#paint37_linear_2_169)"/>
<path d="M159.244 126.905C159.84 125.907 161.004 124.009 161.57 123.417C161.57 123.417 161.052 123.09 160.059 123.212C159.067 123.333 158.289 122.85 158.319 122.309L163.055 120.856C163.268 120.411 164.205 117.888 161.659 111.916L166.702 109.457C167.284 113.538 166.95 117.943 164.931 122.344C164.931 122.344 163.364 127.209 161.565 128.288C156.869 131.105 159.015 127.288 159.244 126.905Z" fill="url(#paint38_linear_2_169)"/>
<path d="M38.7977 63.7834L37.8041 65.042L37.8003 65.0464C37.7278 65.1379 37.5946 65.1536 37.5032 65.0811C37.4117 65.0085 37.3959 64.8754 37.4685 64.7839C37.4691 64.7827 37.471 64.7808 37.4716 64.7801L38.5025 63.5367C38.57 63.4547 38.6911 63.4433 38.7731 63.5114C38.8532 63.5783 38.8659 63.6969 38.8015 63.7783L38.7977 63.7834Z" fill="white"/>
<path d="M35.4383 68.3655L33.7539 71.053L33.7457 71.0656C33.6605 71.2019 33.4807 71.2429 33.3444 71.1577C33.2081 71.0726 33.1671 70.8928 33.2523 70.7565C33.2529 70.7552 33.2548 70.7527 33.2555 70.7514L35.0074 68.0727C35.0863 67.9522 35.2471 67.9188 35.3676 67.9977C35.4863 68.0753 35.5209 68.2336 35.4459 68.3535L35.4383 68.3655Z" fill="white"/>
<path d="M31.7968 74.6282L30.4455 77.4936L30.4373 77.5107C30.3534 77.6886 30.1414 77.7643 29.9635 77.681C29.7856 77.5971 29.7099 77.3851 29.7932 77.2072C29.7938 77.206 29.795 77.2028 29.7957 77.2015L31.2133 74.3272C31.2934 74.1651 31.4896 74.0982 31.6517 74.1784C31.812 74.2572 31.8788 74.4503 31.8031 74.6111L31.7968 74.6282Z" fill="white"/>
<path d="M28.9409 81.2752L27.9598 84.2832L27.9523 84.3059C27.8804 84.5268 27.6431 84.6472 27.4223 84.5753C27.2015 84.5034 27.081 84.2662 27.1529 84.0454C27.1536 84.0435 27.1548 84.0397 27.1555 84.0385L28.2046 81.0052C28.2753 80.8008 28.4986 80.6923 28.703 80.7629C28.9055 80.8329 29.0134 81.0519 28.9478 81.2544L28.9409 81.2752Z" fill="white"/>
<path d="M26.9498 88.2187L26.365 91.3232L26.3599 91.3503C26.312 91.6046 26.0672 91.7711 25.8136 91.7238C25.5593 91.6759 25.3928 91.4311 25.4407 91.1775L25.4414 91.1724L26.071 88.0212C26.1195 87.777 26.3574 87.6187 26.6009 87.6679C26.8432 87.7165 27.0009 87.9505 26.9555 88.1928L26.9498 88.2187Z" fill="white"/>
<path d="M25.8868 95.3545L25.7322 98.5064L25.7303 98.5373C25.7164 98.8174 25.4786 99.0332 25.1985 99.0193C24.9184 99.0054 24.7026 98.7676 24.7165 98.4875L24.7171 98.4818L24.9095 95.2712C24.9259 95.0012 25.1581 94.7956 25.4281 94.8113C25.6962 94.8271 25.9013 95.0561 25.8887 95.3242L25.8868 95.3545Z" fill="white"/>
<path d="M25.8129 102.562L26.0924 105.704L26.0956 105.737C26.1221 106.038 25.9 106.303 25.5991 106.331C25.2981 106.357 25.0325 106.135 25.0054 105.834L25.0048 105.828L24.7543 102.619C24.7316 102.328 24.9493 102.073 25.2407 102.05C25.5303 102.027 25.7839 102.242 25.8091 102.531L25.8129 102.562Z" fill="white"/>
<path d="M26.7283 109.708L27.4343 112.78L27.4419 112.814C27.5144 113.13 27.3176 113.444 27.0015 113.517C26.6854 113.589 26.3713 113.393 26.2981 113.077L26.2968 113.07L25.6091 109.923C25.5423 109.616 25.7366 109.313 26.0438 109.246C26.3485 109.179 26.6501 109.371 26.7195 109.674L26.7283 109.708Z" fill="white"/>
<path d="M28.6065 116.658L29.708 119.611L29.7206 119.644C29.8399 119.963 29.6777 120.319 29.3585 120.437C29.0399 120.556 28.6847 120.394 28.5655 120.075L28.5642 120.072L27.4533 117.047C27.3372 116.732 27.4993 116.382 27.8148 116.266C28.1302 116.15 28.4797 116.312 28.5958 116.628L28.6065 116.658Z" fill="white"/>
<path d="M31.3666 123.307L32.8391 126.094L32.8555 126.124C33.0176 126.432 32.9003 126.813 32.5924 126.975C32.2852 127.138 31.9041 127.02 31.742 126.713L31.7407 126.711L30.2461 123.857C30.0865 123.552 30.2039 123.175 30.5092 123.015C30.8146 122.855 31.1918 122.973 31.3515 123.278L31.3666 123.307Z" fill="white"/>
<path d="M34.9544 129.549L36.7657 132.129L36.7858 132.158C36.9896 132.448 36.9196 132.849 36.6294 133.053C36.3385 133.257 35.9379 133.187 35.7335 132.896L35.7323 132.894L33.8907 130.251C33.6895 129.962 33.7608 129.565 34.0491 129.364C34.3374 129.163 34.7348 129.234 34.9361 129.522L34.9544 129.549Z" fill="white"/>
<path d="M39.2955 135.292L41.414 137.623L41.4386 137.651C41.6821 137.919 41.6626 138.333 41.3944 138.577C41.1263 138.82 40.7118 138.801 40.4683 138.533L40.4664 138.531L38.3075 136.138C38.0672 135.872 38.0886 135.46 38.3549 135.22C38.6217 134.979 39.0324 135 39.2728 135.267L39.2955 135.292Z" fill="white"/>
<path d="M44.323 140.438L46.7254 142.472L46.7563 142.498C47.0383 142.736 47.073 143.158 46.8345 143.44C46.596 143.722 46.174 143.758 45.892 143.518L45.8901 143.517L43.4347 141.424C43.1565 141.186 43.1224 140.768 43.3603 140.489C43.5981 140.21 44.0164 140.177 44.2952 140.414L44.323 140.438Z" fill="white"/>
<path d="M49.9858 144.858L51.3175 145.688L51.9831 146.103C52.2065 146.239 52.4235 146.386 52.6525 146.512C52.9824 146.694 53.1023 147.109 52.92 147.439C52.7377 147.769 52.3232 147.889 51.9932 147.706L51.9907 147.705L51.9724 147.695C51.7365 147.564 51.5131 147.412 51.2835 147.271L50.599 146.841L49.2306 145.98C48.9145 145.781 48.8193 145.363 49.018 145.047C49.2167 144.731 49.6337 144.636 49.9504 144.834L49.9858 144.858Z" fill="white"/>
<path d="M56.2416 148.348C57.1923 148.783 58.1588 149.186 59.1379 149.554C59.4925 149.688 59.6717 150.083 59.5386 150.438C59.4048 150.793 59.0105 150.972 58.656 150.839C57.6472 150.461 56.6498 150.051 55.6687 149.603C55.3224 149.444 55.1697 149.036 55.3281 148.689C55.4858 148.342 55.8952 148.19 56.2416 148.348Z" fill="white"/>
<path d="M62.9737 150.814L66.024 151.57L66.065 151.581C66.4278 151.671 66.6492 152.037 66.559 152.4C66.4694 152.763 66.1035 152.984 65.7414 152.895L62.6053 152.126C62.24 152.036 62.0167 151.668 62.1062 151.302C62.1958 150.937 62.5643 150.714 62.9295 150.803L62.9314 150.804L62.9737 150.814Z" fill="white"/>
<path d="M70.0074 152.265L73.1378 152.598L73.1757 152.602C73.5416 152.641 73.8066 152.969 73.7681 153.335C73.7296 153.701 73.4034 153.966 73.0369 153.927L69.8295 153.597C69.4604 153.559 69.1923 153.229 69.2301 152.86C69.268 152.491 69.5979 152.223 69.967 152.261H69.9695L70.0074 152.265Z" fill="white"/>
<path d="M77.1837 152.778L80.3362 152.727L80.369 152.726C80.7216 152.721 81.0125 153.002 81.0181 153.355C81.0238 153.706 80.745 153.995 80.3948 154.004L77.1761 154.08C76.8165 154.089 76.5187 153.804 76.5099 153.445C76.501 153.085 76.7856 152.787 77.1452 152.779H77.1502L77.1837 152.778Z" fill="white"/>
<path d="M84.382 152.428L87.5137 152.022L87.5421 152.018C87.8765 151.975 88.1831 152.211 88.2266 152.546C88.2695 152.879 88.0361 153.184 87.7042 153.23L84.5189 153.668C84.1776 153.715 83.8634 153.476 83.8161 153.136C83.7694 152.794 84.0079 152.48 84.3486 152.433L84.3536 152.432L84.382 152.428Z" fill="white"/>
<path d="M91.511 151.302L94.5897 150.585L94.613 150.579C94.9127 150.509 95.2123 150.696 95.2824 150.996C95.3518 151.293 95.1688 151.589 94.8742 151.663L91.7583 152.438C91.4466 152.515 91.1318 152.326 91.0542 152.015C90.9766 151.704 91.1665 151.388 91.4775 151.31C91.4794 151.31 91.4813 151.31 91.4826 151.309L91.511 151.302Z" fill="white"/>
<path d="M98.5011 149.47L101.501 148.46L101.52 148.453C101.784 148.364 102.07 148.506 102.159 148.77C102.247 149.031 102.108 149.314 101.849 149.406L98.8254 150.475C98.5509 150.572 98.2494 150.428 98.1522 150.153C98.0551 149.878 98.1989 149.577 98.474 149.48C98.4752 149.479 98.4771 149.478 98.4784 149.478L98.5011 149.47Z" fill="white"/>
<path d="M105.296 146.985L108.196 145.708L108.212 145.701C108.439 145.6 108.706 145.704 108.806 145.931C108.905 146.156 108.805 146.419 108.581 146.521L105.669 147.856C105.431 147.966 105.149 147.861 105.04 147.623C104.931 147.385 105.036 147.104 105.274 146.995C105.275 146.994 105.276 146.993 105.277 146.993L105.296 146.985Z" fill="white"/>
<path d="M111.859 143.917L114.65 142.408L114.662 142.402C114.841 142.305 115.064 142.372 115.161 142.551C115.256 142.727 115.192 142.947 115.019 143.046L112.241 144.635C112.046 144.747 111.798 144.679 111.686 144.484C111.574 144.289 111.642 144.04 111.837 143.929C111.839 143.927 111.842 143.926 111.844 143.925L111.859 143.917Z" fill="white"/>
<path d="M118.157 140.321L120.82 138.589L120.828 138.584C120.958 138.499 121.132 138.536 121.217 138.666C121.3 138.794 121.265 138.965 121.14 139.051L118.503 140.859C118.358 140.958 118.159 140.921 118.059 140.776C117.959 140.631 117.997 140.432 118.142 140.333C118.144 140.331 118.145 140.33 118.147 140.329L118.157 140.321Z" fill="white"/>
<path d="M124.172 136.229L125.458 135.266L125.461 135.264C125.546 135.2 125.666 135.217 125.729 135.302C125.792 135.386 125.776 135.503 125.696 135.568L124.435 136.577C124.341 136.652 124.204 136.637 124.128 136.543C124.053 136.449 124.068 136.311 124.162 136.236C124.163 136.234 124.165 136.233 124.167 136.232L124.172 136.229Z" fill="white"/>
<defs>
<linearGradient id="paint0_linear_2_169" x1="176.239" y1="190.356" x2="18.4475" y2="10.593" gradientUnits="userSpaceOnUse">
<stop stop-color="#DAE3FE"/>
<stop offset="1" stop-color="#E9EFFD"/>
</linearGradient>
<linearGradient id="paint1_linear_2_169" x1="117.46" y1="28.6832" x2="63.3658" y2="81.3079" gradientUnits="userSpaceOnUse">
<stop stop-color="#FDF53F"/>
<stop offset="1" stop-color="#D93C65"/>
</linearGradient>
<linearGradient id="paint2_linear_2_169" x1="123.496" y1="34.8885" x2="69.4027" y2="87.5123" gradientUnits="userSpaceOnUse">
<stop stop-color="#FDF53F"/>
<stop offset="1" stop-color="#D93C65"/>
</linearGradient>
<linearGradient id="paint3_linear_2_169" x1="108.106" y1="67.7632" x2="66.2737" y2="113.791" gradientUnits="userSpaceOnUse">
<stop stop-color="#A737D5"/>
<stop offset="1" stop-color="#EF497A"/>
</linearGradient>
<linearGradient id="paint4_linear_2_169" x1="113.043" y1="72.2501" x2="71.2104" y2="118.278" gradientUnits="userSpaceOnUse">
<stop stop-color="#A737D5"/>
<stop offset="1" stop-color="#EF497A"/>
</linearGradient>
<linearGradient id="paint5_linear_2_169" x1="115.051" y1="86.1927" x2="62.6737" y2="134.106" gradientUnits="userSpaceOnUse">
<stop stop-color="#A737D5"/>
<stop offset="1" stop-color="#EF497A"/>
</linearGradient>
<linearGradient id="paint6_linear_2_169" x1="122.917" y1="81.224" x2="81.0841" y2="127.252" gradientUnits="userSpaceOnUse">
<stop stop-color="#A737D5"/>
<stop offset="1" stop-color="#EF497A"/>
</linearGradient>
<linearGradient id="paint7_linear_2_169" x1="64.1451" y1="77.3962" x2="44.0111" y2="136.244" gradientUnits="userSpaceOnUse">
<stop stop-color="#A737D5"/>
<stop offset="1" stop-color="#EF497A"/>
</linearGradient>
<linearGradient id="paint8_linear_2_169" x1="90.8057" y1="155.689" x2="83.336" y2="-65.4175" gradientUnits="userSpaceOnUse">
<stop stop-color="#09005D"/>
<stop offset="1" stop-color="#1A0F91"/>
</linearGradient>
<linearGradient id="paint9_linear_2_169" x1="64.1584" y1="39.2152" x2="89.0578" y2="82.5403" gradientUnits="userSpaceOnUse">
<stop stop-color="#FF928E"/>
<stop offset="1" stop-color="#FE7062"/>
</linearGradient>
<linearGradient id="paint10_linear_2_169" x1="58.3425" y1="42.5576" x2="83.242" y2="85.8827" gradientUnits="userSpaceOnUse">
<stop stop-color="#FF928E"/>
<stop offset="1" stop-color="#FE7062"/>
</linearGradient>
<linearGradient id="paint11_linear_2_169" x1="47.0101" y1="80.0645" x2="125.194" y2="142.562" gradientUnits="userSpaceOnUse">
<stop stop-color="#4F52FF"/>
<stop offset="1" stop-color="#4042E2"/>
</linearGradient>
<linearGradient id="paint12_linear_2_169" x1="60.3409" y1="63.3877" x2="138.525" y2="125.885" gradientUnits="userSpaceOnUse">
<stop stop-color="#4F52FF"/>
<stop offset="1" stop-color="#4042E2"/>
</linearGradient>
<linearGradient id="paint13_linear_2_169" x1="76.7196" y1="80.356" x2="47.1453" y2="130.832" gradientUnits="userSpaceOnUse">
<stop stop-color="#4F52FF"/>
<stop offset="1" stop-color="#4042E2"/>
</linearGradient>
<linearGradient id="paint14_linear_2_169" x1="82.1339" y1="83.5282" x2="52.5595" y2="134.005" gradientUnits="userSpaceOnUse">
<stop stop-color="#4F52FF"/>
<stop offset="1" stop-color="#4042E2"/>
</linearGradient>
<linearGradient id="paint15_linear_2_169" x1="86.6863" y1="95.9712" x2="47.7726" y2="150.228" gradientUnits="userSpaceOnUse">
<stop stop-color="#4F52FF"/>
<stop offset="1" stop-color="#4042E2"/>
</linearGradient>
<linearGradient id="paint16_linear_2_169" x1="92.9624" y1="89.8726" x2="63.388" y2="140.349" gradientUnits="userSpaceOnUse">
<stop stop-color="#4F52FF"/>
<stop offset="1" stop-color="#4042E2"/>
</linearGradient>
<linearGradient id="paint17_linear_2_169" x1="102.511" y1="1.47414" x2="65.1536" y2="50.6164" gradientUnits="userSpaceOnUse">
<stop stop-color="#2B3582"/>
<stop offset="1" stop-color="#150E42"/>
</linearGradient>
<linearGradient id="paint18_linear_2_169" x1="106.608" y1="4.58911" x2="69.2513" y2="53.7314" gradientUnits="userSpaceOnUse">
<stop stop-color="#2B3582"/>
<stop offset="1" stop-color="#150E42"/>
</linearGradient>
<linearGradient id="paint19_linear_2_169" x1="96.1939" y1="61.6045" x2="128.84" y2="14.9978" gradientUnits="userSpaceOnUse">
<stop stop-color="#FF928E"/>
<stop offset="1" stop-color="#FE7062"/>
</linearGradient>
<linearGradient id="paint20_linear_2_169" x1="101.901" y1="7.59507" x2="76.1065" y2="54.9585" gradientUnits="userSpaceOnUse">
<stop stop-color="#4F52FF"/>
<stop offset="1" stop-color="#4042E2"/>
</linearGradient>
<linearGradient id="paint21_linear_2_169" x1="153.665" y1="170.393" x2="142.138" y2="170.393" gradientUnits="userSpaceOnUse">
<stop stop-color="#090056"/>
<stop offset="1" stop-color="#020039"/>
</linearGradient>
<linearGradient id="paint22_linear_2_169" x1="133.409" y1="155.728" x2="157.423" y2="183.283" gradientUnits="userSpaceOnUse">
<stop stop-color="#090056"/>
<stop offset="1" stop-color="#020039"/>
</linearGradient>
<linearGradient id="paint23_linear_2_169" x1="173.913" y1="170.422" x2="168.516" y2="170.422" gradientUnits="userSpaceOnUse">
<stop stop-color="#090056"/>
<stop offset="1" stop-color="#020039"/>
</linearGradient>
<linearGradient id="paint24_linear_2_169" x1="146.566" y1="144.261" x2="170.58" y2="171.816" gradientUnits="userSpaceOnUse">
<stop stop-color="#090056"/>
<stop offset="1" stop-color="#020039"/>
</linearGradient>
<linearGradient id="paint25_linear_2_169" x1="171.63" y1="166.701" x2="168.128" y2="166.701" gradientUnits="userSpaceOnUse">
<stop stop-color="#FEBBBA"/>
<stop offset="1" stop-color="#FF928E"/>
</linearGradient>
<linearGradient id="paint26_linear_2_169" x1="153.078" y1="166.472" x2="150.16" y2="166.472" gradientUnits="userSpaceOnUse">
<stop stop-color="#FEBBBA"/>
<stop offset="1" stop-color="#FF928E"/>
</linearGradient>
<linearGradient id="paint27_linear_2_169" x1="227.71" y1="181.328" x2="161.477" y2="147.962" gradientUnits="userSpaceOnUse">
<stop stop-color="#090056"/>
<stop offset="1" stop-color="#020039"/>
</linearGradient>
<linearGradient id="paint28_linear_2_169" x1="145.821" y1="121.6" x2="157.766" y2="137.044" gradientUnits="userSpaceOnUse">
<stop stop-color="#CB236D"/>
<stop offset="1" stop-color="#4C246D"/>
</linearGradient>
<linearGradient id="paint29_linear_2_169" x1="134.449" y1="72.0119" x2="176.791" y2="151.522" gradientUnits="userSpaceOnUse">
<stop stop-color="#4F52FF"/>
<stop offset="1" stop-color="#4042E2"/>
</linearGradient>
<linearGradient id="paint30_linear_2_169" x1="146.985" y1="92.9911" x2="146.529" y2="84.4746" gradientUnits="userSpaceOnUse">
<stop stop-color="#FEBBBA"/>
<stop offset="1" stop-color="#FF928E"/>
</linearGradient>
<linearGradient id="paint31_linear_2_169" x1="143.985" y1="78.7913" x2="152.472" y2="86.8623" gradientUnits="userSpaceOnUse">
<stop stop-color="#FEBBBA"/>
<stop offset="1" stop-color="#FF928E"/>
</linearGradient>
<linearGradient id="paint32_linear_2_169" x1="141.655" y1="75.9974" x2="164.894" y2="82.3053" gradientUnits="userSpaceOnUse">
<stop stop-color="#090056"/>
<stop offset="1" stop-color="#020039"/>
</linearGradient>
<linearGradient id="paint33_linear_2_169" x1="145.294" y1="77.4158" x2="153.78" y2="85.4867" gradientUnits="userSpaceOnUse">
<stop stop-color="#FEBBBA"/>
<stop offset="1" stop-color="#FF928E"/>
</linearGradient>
<linearGradient id="paint34_linear_2_169" x1="128.276" y1="79.8697" x2="194.607" y2="153.505" gradientUnits="userSpaceOnUse">
<stop stop-color="#FF928E"/>
<stop offset="1" stop-color="#FE7062"/>
</linearGradient>
<linearGradient id="paint35_linear_2_169" x1="124.392" y1="90.5626" x2="164.563" y2="144.345" gradientUnits="userSpaceOnUse">
<stop stop-color="#FF928E"/>
<stop offset="1" stop-color="#FE7062"/>
</linearGradient>
<linearGradient id="paint36_linear_2_169" x1="124.394" y1="90.5613" x2="164.565" y2="144.344" gradientUnits="userSpaceOnUse">
<stop stop-color="#FF928E"/>
<stop offset="1" stop-color="#FE7062"/>
</linearGradient>
<linearGradient id="paint37_linear_2_169" x1="141.799" y1="68.0979" x2="184.141" y2="147.608" gradientUnits="userSpaceOnUse">
<stop stop-color="#4F52FF"/>
<stop offset="1" stop-color="#4042E2"/>
</linearGradient>
<linearGradient id="paint38_linear_2_169" x1="158.582" y1="124.694" x2="172.609" y2="104.525" gradientUnits="userSpaceOnUse">
<stop stop-color="#FEBBBA"/>
<stop offset="1" stop-color="#FF928E"/>
</linearGradient>
</defs>
</svg>
