<svg width="214" height="153" viewBox="0 0 214 153" fill="none" xmlns="http://www.w3.org/2000/svg">
<path d="M99.5351 0.456291C82.2142 0.409147 60.8628 5.00449 46.9018 20.4837C40.3511 27.7479 37.0701 34.5718 35.6885 40.8795C27.7064 47.1505 23.0911 56.3995 23.0774 66.1527C23.0894 72.1839 24.8651 78.0977 28.2113 83.2524C14.5483 88.1498 5.52548 100.422 5.52205 114.113C5.53836 123.327 9.66423 132.117 16.9036 138.362C17.1311 138.709 17.2694 138.899 17.2694 138.899L0 152.998H213.071C213.071 152.998 204.476 150.818 196.971 147.093C201.604 143.26 204.262 137.754 204.272 131.967C204.262 123.623 198.781 116.141 190.469 113.123C197.483 106.723 201.439 97.9437 201.44 88.7754C201.407 76.7185 194.554 65.579 183.429 59.4966C185.592 55.3136 186.723 50.7286 186.737 46.0813C186.737 28.9592 171.905 15.0789 153.608 15.0789C149.498 15.0789 145.424 15.7949 141.593 17.19C136.981 11.9123 131.424 8.39406 126.186 5.30733C122.003 2.84066 111.775 0.489851 99.5351 0.456291Z" fill="#F2F4FF"/>
<path d="M191.964 89.0383C182.617 89.0599 174.431 90.8785 169.75 95.8973C153.103 113.743 156.158 122.395 135.771 123.72C115.384 125.045 101.812 120.475 94.299 136.738C88.035 150.297 67.3104 144.538 56.8184 153H213.072C213.072 153 204.476 150.819 196.972 147.095C201.605 143.262 204.263 137.756 204.273 131.968C204.263 123.624 198.782 116.142 190.47 113.125C197.27 106.905 201.194 98.4399 201.401 89.5433C198.186 89.2165 195.013 89.0311 191.964 89.0383Z" fill="#E7EAFF"/>
<path d="M154.222 148.163L154.721 144.388H149.86H148.703L148.602 149.707L154.222 148.163Z" fill="#F6C6C0"/>
<path d="M157.652 28.2649L154.809 30.3264C154.809 30.3264 154.173 27.6792 148.586 30.0915C146.41 31.0312 144.374 32.3944 143.171 33.1783C143.171 33.1783 138.177 36.2754 136.776 39.1735C135.375 42.0717 134.908 53.8817 134.207 57.1426C133.506 60.4027 126.888 65.0404 126.888 65.0404L136.854 68.5179C136.854 68.5179 140.903 64.895 142.771 62.0696C144.028 60.1686 144.421 55.2289 144.832 52.1286L147.311 74.7801H169.976C170.662 66.2734 171.336 57.0507 170.8 47.4517L172.717 32.6157C172.264 32.2673 171.687 31.7472 170.242 31.3229L157.652 28.2649Z" fill="#6584F7"/>
<path d="M143.504 15.3698L142.581 18.9983C137.37 19.1733 138.042 8.02655 143.504 15.3698Z" fill="#F69CB3"/>
<path d="M140.07 7.99054C140.07 7.99054 138.437 8.55787 137.756 10.1648C137.076 11.7725 140.831 16.1592 140.831 16.1592L140.07 7.99054Z" fill="#3D3D3D"/>
<path d="M154.094 5.10118C154.094 5.10118 156.444 4.65371 157.512 7.32494C158.58 9.99617 156.801 15.6063 156.801 15.6063C157.836 19.2971 156.956 22.4782 152.889 19.4689C151.029 17.9875 148.611 8.74245 148.611 8.74245C148.611 8.74245 142.372 10.5363 139.439 9.02692C136.506 7.51751 132.809 2.31489 136.289 0.754338C139.769 -0.80541 140.982 1.49746 148.786 0.111903C152.862 -0.609641 155.051 2.28692 154.094 5.10118Z" fill="#3D3D3D"/>
<path d="M155.795 17.2147C155.795 17.2147 156.158 21.9299 156.567 23.9539C156.975 25.9779 157.102 27.087 157.102 27.087L152.46 32.3312L149.292 30.2848L149.984 24.8409L155.795 17.2147Z" fill="#F6C6C0"/>
<path d="M155.795 17.2147L149.984 24.8409L149.461 28.9584C150.606 29.0247 151.816 28.8201 152.576 27.914C154.382 25.7646 154.28 20.9279 154.28 20.9279L155.795 17.2147Z" fill="#F69CB3"/>
<path d="M155.795 17.2148C160.844 16.005 156.797 5.49428 153.802 13.9794C152.39 12.3653 149.608 10.0968 150.367 6.51147C146.727 8.18549 143.698 9.50951 139.438 9.02769C140.395 25.8581 150.927 34.7476 155.795 17.2148Z" fill="#F6C6C0"/>
<path d="M155.217 14.9975C155.181 14.916 155.263 13.6487 155.882 12.6986C156.502 11.7485 157.299 12.681 157.299 12.681C157.299 12.681 156.585 12.5827 156.291 13.2284C155.996 13.8748 157.411 14.4413 156.315 15.3259C155.219 16.2096 155.217 14.9975 155.217 14.9975Z" fill="#F69CB3"/>
<path d="M152.46 32.3304L157.101 27.0862L156.747 25.1158C158.635 26.3527 160.32 27.9093 160.023 28.9456L156.249 36.3936L152.46 32.3304Z" fill="white"/>
<path d="M149.641 29.8821L149.69 27.1702C148.104 28.6444 146.487 30.1666 146.94 31.8646C147.086 32.3672 148.699 36.233 148.699 36.233L152.46 32.3312L149.641 29.8821Z" fill="white"/>
<path d="M174.657 81.3762C174.657 81.3762 176.777 84.9112 179.172 85.0902C181.566 85.2692 182.696 83.6559 182.696 83.6559L179.227 81.6063L174.657 81.3762Z" fill="#F6CDC1"/>
<path d="M147.342 76.3374L148.438 131.139L148.703 144.388H154.72L156.215 131.139L159.698 100.269L167.893 131.139L171.409 144.388H176.93L175.363 131.139L170.366 77.838L147.342 76.3374Z" fill="#FF6853"/>
<path d="M156.215 131.139H148.438L148.703 144.388H154.72L156.215 131.139Z" fill="#E0523C"/>
<path d="M175.363 131.139H167.893L171.409 144.388H176.93L175.363 131.139Z" fill="#E0523C"/>
<path d="M159.698 100.269L156.771 90.1043H154.501L158.192 113.743L159.698 100.269Z" fill="#E0523C"/>
<path d="M147.311 74.7792L147.313 76.335L170.366 77.8372L169.976 74.7792H147.311Z" fill="white"/>
<path d="M148.703 146.063L154.527 146.126L154.222 148.163C154.222 148.163 148.63 147.824 148.617 147.765C148.605 147.706 148.703 146.063 148.703 146.063Z" fill="white"/>
<path d="M138.946 153H154.802L154.222 148.163L152.334 147.682C151.049 146.528 148.695 146.244 147.09 147.946C147.09 147.946 144.15 149.914 142.716 149.948C139.812 149.948 138.725 150.464 138.946 153Z" fill="#3D3D3D"/>
<path d="M172.051 148.163L171.409 144.388H175.771H176.93L177.671 149.707L172.051 148.163Z" fill="#F6C6C0"/>
<path d="M177.18 146.063L171.703 146.126L172.05 148.163C172.05 148.163 177.642 147.824 177.655 147.765C177.668 147.706 177.18 146.063 177.18 146.063Z" fill="white"/>
<path d="M181.342 153H171.823L172.05 148.163L173.938 147.682C175.224 146.528 177.18 146.063 178.257 147.764C179.657 151.133 181.567 149.737 181.342 153Z" fill="#3D3D3D"/>
<path d="M135.213 66.4355L129.092 61.2433L130.583 59.0172L137.266 64.3348L135.213 66.4355Z" fill="white"/>
<path d="M135.1 62.4859C134.571 58.5385 131.409 61.5174 131.409 63.1323C131.409 63.1323 130.389 61.0452 130 60.3156C129.543 59.7939 128.793 59.356 127.591 59.5989C124.315 60.2533 121.88 65.265 123.275 68.3461C123.786 69.2898 128.549 73.3242 128.549 73.3242L128.647 73.4656L133.677 71.1716C133.68 70.5539 133.886 69.8395 134.093 68.7017C136.539 67.6685 135.992 66.2126 135.1 62.4859Z" fill="#F6CDC1"/>
<path d="M170.799 47.4509L167.266 44.6375C165.346 51.7083 168.651 54.4706 171.107 57.7451C171.223 55.0211 171.049 50.2428 170.799 47.4509Z" fill="#3362C4"/>
<path d="M144.831 52.1278L143.014 46.9731C142.565 49.94 141.904 54.6672 144.184 57.1427C144.185 57.1435 144.763 53.7219 144.831 52.1278Z" fill="#3362C4"/>
<path d="M146.305 81.3906C146.258 90.4607 138.319 97.7776 128.573 97.7344C118.827 97.6913 110.964 90.3032 111.01 81.234C111.058 72.164 118.996 64.8471 128.742 64.8902C138.488 64.9334 146.351 72.3206 146.305 81.3906Z" fill="#E3E1FF"/>
<path d="M128.612 69.3169C127.434 69.3281 126.489 70.2254 126.5 71.3217L126.495 72.1615C123.771 73.094 122.028 75.6877 122.39 78.4165C122.773 81.3027 125.401 83.5096 128.513 83.5848C128.557 83.5871 128.601 83.5887 128.645 83.5887C129.707 83.5935 130.563 84.3063 130.686 85.2859C130.808 86.2664 130.152 87.1445 129.121 87.3762C128.09 87.608 127.075 87.1078 126.702 86.1833C126.293 85.1549 125.064 84.6299 123.959 85.0111C122.854 85.3922 122.29 86.5357 122.699 87.564C122.701 87.5688 122.703 87.5736 122.705 87.5784C123.363 89.2101 124.744 90.4278 126.398 91.0135V91.2916C126.379 92.3887 127.32 93.2924 128.499 93.31C129.678 93.3276 130.649 92.4526 130.668 91.3555C130.668 91.3411 130.668 91.326 130.668 91.3108V91.0902C133.46 90.2081 135.274 87.5928 134.927 84.8241C134.562 81.9211 131.925 79.6926 128.797 79.6183C128.754 79.6159 128.71 79.6151 128.666 79.6151C127.611 79.6103 126.756 78.9039 126.628 77.9291C126.498 76.9542 127.142 76.0761 128.165 75.8324C129.187 75.5886 130.205 76.0713 130.595 76.9838C131.024 78.0058 132.261 78.5108 133.359 78.1112C134.458 77.7125 135 76.5603 134.571 75.5383C134.568 75.5311 134.565 75.5231 134.562 75.5159C133.865 73.8867 132.446 72.6881 130.765 72.1375L130.769 71.3401C130.791 70.243 129.853 69.3377 128.675 69.3169C128.654 69.3169 128.633 69.3169 128.612 69.3169Z" fill="#B7BBFF"/>
<path d="M69.1179 81.8118H148.78C155.262 81.8118 160.481 86.6676 160.481 92.7004V142.112C160.481 148.144 155.263 153 148.78 153H69.1179C62.6359 153 57.4178 148.144 57.4178 142.112V92.7004C57.4169 86.6676 62.6359 81.8118 69.1179 81.8118Z" fill="#CECFFF"/>
<path d="M139.016 106.34H163.868C165.89 106.34 167.518 107.855 167.518 109.737V125.151C167.518 127.033 165.89 128.548 163.868 128.548H139.016C136.994 128.548 135.366 127.033 135.366 125.151V109.737C135.366 107.855 136.993 106.34 139.016 106.34Z" fill="#E3E1FF"/>
<path d="M154.269 117.425C154.269 120.586 151.515 123.148 148.118 123.148C144.721 123.148 141.968 120.586 141.968 117.425C141.968 114.264 144.721 111.701 148.118 111.701C151.514 111.7 154.269 114.264 154.269 117.425Z" fill="#A5A3FF"/>
<path d="M71.1641 91.0128H73.1047C74.5078 91.0128 75.6369 92.0644 75.6369 93.3692C75.6369 94.6749 74.5078 95.7256 73.1047 95.7256H71.1641C69.7611 95.7256 68.632 94.6749 68.632 93.3692C68.632 92.0644 69.7611 91.0128 71.1641 91.0128Z" fill="#B7BBFF"/>
<path d="M82.7655 91.0128H84.706C86.1091 91.0128 87.2391 92.0644 87.2391 93.3692C87.2391 94.6749 86.1091 95.7256 84.706 95.7256H82.7655C81.3624 95.7256 80.2333 94.6749 80.2333 93.3692C80.2333 92.0644 81.3624 91.0128 82.7655 91.0128Z" fill="#B7BBFF"/>
<path d="M94.5223 91.0128H96.4628C97.8659 91.0128 98.995 92.0644 98.995 93.3692C98.995 94.6749 97.8659 95.7256 96.4628 95.7256H94.5223C93.1192 95.7256 91.9901 94.6749 91.9901 93.3692C91.9892 92.0644 93.1192 91.0128 94.5223 91.0128Z" fill="#B7BBFF"/>
<path d="M106.124 91.0128H108.064C109.467 91.0128 110.596 92.0644 110.596 93.3692C110.596 94.6749 109.467 95.7256 108.064 95.7256H106.124C104.721 95.7256 103.591 94.6749 103.591 93.3692C103.591 92.0644 104.721 91.0128 106.124 91.0128Z" fill="#B7BBFF"/>
<path d="M117.724 91.0128H119.664C121.067 91.0128 122.196 92.0644 122.196 93.3692C122.196 94.6749 121.067 95.7256 119.664 95.7256H117.724C116.321 95.7256 115.191 94.6749 115.191 93.3692C115.192 92.0644 116.321 91.0128 117.724 91.0128Z" fill="#B7BBFF"/>
<path d="M129.481 91.0128H131.422C132.825 91.0128 133.954 92.0644 133.954 93.3692C133.954 94.6749 132.824 95.7256 131.422 95.7256H129.481C128.078 95.7256 126.949 94.6749 126.949 93.3692C126.949 92.0644 128.078 91.0128 129.481 91.0128Z" fill="#B7BBFF"/>
<path d="M142.873 91.0128H144.814C146.217 91.0128 147.347 92.0644 147.347 93.3692C147.347 94.6749 146.218 95.7256 144.814 95.7256H142.873C141.47 95.7256 140.341 94.6749 140.341 93.3692C140.34 92.0644 141.47 91.0128 142.873 91.0128Z" fill="#B7BBFF"/>
<path d="M147.346 93.3692V95.1751C147.346 96.4807 146.217 97.5315 144.813 97.5315C143.41 97.5315 142.281 96.4807 142.281 95.1751V93.3692C142.281 92.0636 143.41 91.0128 144.813 91.0128C146.216 91.0128 147.346 92.0644 147.346 93.3692Z" fill="#B7BBFF"/>
<path d="M71.1641 146.366H73.1047C74.5078 146.366 75.6369 145.316 75.6369 144.01C75.6369 142.704 74.5078 141.653 73.1047 141.653H71.1641C69.7611 141.653 68.632 142.704 68.632 144.01C68.632 145.316 69.7611 146.366 71.1641 146.366Z" fill="#B7BBFF"/>
<path d="M82.7655 146.366H84.706C86.1091 146.366 87.2391 145.316 87.2391 144.01C87.2391 142.704 86.1091 141.653 84.706 141.653H82.7655C81.3624 141.653 80.2333 142.704 80.2333 144.01C80.2333 145.316 81.3624 146.366 82.7655 146.366Z" fill="#B7BBFF"/>
<path d="M94.5223 146.366H96.4628C97.8659 146.366 98.995 145.316 98.995 144.01C98.995 142.704 97.8659 141.653 96.4628 141.653H94.5223C93.1192 141.653 91.9901 142.704 91.9901 144.01C91.9892 145.316 93.1192 146.366 94.5223 146.366Z" fill="#B7BBFF"/>
<path d="M106.124 146.366H108.064C109.467 146.366 110.596 145.316 110.596 144.01C110.596 142.704 109.467 141.653 108.064 141.653H106.124C104.721 141.653 103.591 142.704 103.591 144.01C103.591 145.316 104.721 146.366 106.124 146.366Z" fill="#B7BBFF"/>
<path d="M117.724 146.366H119.664C121.067 146.366 122.196 145.316 122.196 144.01C122.196 142.704 121.067 141.653 119.664 141.653H117.724C116.321 141.653 115.191 142.704 115.191 144.01C115.192 145.316 116.321 146.366 117.724 146.366Z" fill="#B7BBFF"/>
<path d="M129.481 146.366H131.422C132.825 146.366 133.954 145.316 133.954 144.01C133.954 142.704 132.824 141.653 131.422 141.653H129.481C128.078 141.653 126.949 142.704 126.949 144.01C126.949 145.316 128.078 146.366 129.481 146.366Z" fill="#B7BBFF"/>
<path d="M142.873 146.366H144.814C146.217 146.366 147.347 145.316 147.347 144.01C147.347 142.704 146.218 141.653 144.814 141.653H142.873C141.47 141.653 140.341 142.704 140.341 144.01C140.34 145.316 141.47 146.366 142.873 146.366Z" fill="#B7BBFF"/>
<path d="M147.346 144.01V142.204C147.346 140.898 146.217 139.848 144.813 139.848C143.41 139.848 142.281 140.898 142.281 142.204V144.01C142.281 145.316 143.41 146.366 144.813 146.366C146.216 146.366 147.346 145.316 147.346 144.01Z" fill="#B7BBFF"/>
<path d="M131.428 63.4838C131.439 63.2673 131.409 63.133 131.409 63.133L130 60.3164C129.543 59.7946 128.793 59.3567 127.591 59.5996C124.315 60.2541 121.88 65.2657 123.275 68.3469C126.051 70.1247 127.108 66.9437 129.442 65.8882C131.12 65.1283 131.402 64.0376 131.428 63.4838Z" fill="#F6CDC1"/>
<path d="M193.872 65.1498C193.826 74.2191 185.886 81.5368 176.14 81.4928C166.393 81.4497 158.53 74.0617 158.578 64.9916C158.624 55.9224 166.563 48.6047 176.309 48.6486C186.056 48.6926 193.918 56.0798 193.872 65.1498Z" fill="#E3E1FF"/>
<path d="M176.179 53.0761C175.001 53.0873 174.057 53.9846 174.067 55.0801L174.063 55.9199C171.338 56.8524 169.595 59.4462 169.957 62.1749C170.34 65.0611 172.969 67.2681 176.08 67.3432C176.124 67.3456 176.169 67.3472 176.213 67.3464C177.273 67.3512 178.13 68.0639 178.253 69.0444C178.376 70.0248 177.72 70.903 176.688 71.1347C175.657 71.3672 174.642 70.8662 174.27 69.9417C173.86 68.9133 172.631 68.3875 171.526 68.7695C170.42 69.1506 169.856 70.2933 170.266 71.3225C170.268 71.3272 170.27 71.3328 170.272 71.3368C170.929 72.9685 172.31 74.1862 173.965 74.772V75.0508C173.946 76.1479 174.886 77.0516 176.065 77.0692C177.244 77.0868 178.215 76.2118 178.234 75.1147C178.234 75.1004 178.234 75.0852 178.234 75.07V74.8495C181.026 73.9681 182.841 71.352 182.493 68.5833C182.128 65.6803 179.491 63.4518 176.363 63.3775C176.32 63.3751 176.276 63.3735 176.232 63.3743C175.177 63.3695 174.323 62.6631 174.193 61.6883C174.063 60.7134 174.707 59.8353 175.73 59.5916C176.753 59.3479 177.77 59.8313 178.16 60.743C178.589 61.765 179.827 62.27 180.925 61.8705C182.023 61.4709 182.566 60.3195 182.137 59.2975C182.133 59.2903 182.131 59.2823 182.127 59.2752C181.431 57.6459 180.012 56.4473 178.331 55.896L178.335 55.0985C178.358 54.0014 177.42 53.0953 176.241 53.0753C176.221 53.0761 176.201 53.0761 176.179 53.0761Z" fill="#B7BBFF"/>
<path d="M185.833 80.4486C185.878 79.393 184.789 73.9619 184.789 73.9619L184.777 73.7933L179.183 73.5304C178.858 74.0698 178.306 74.6011 177.532 75.5024C177.617 75.6679 175.392 77.8093 174.372 79.0151C174.062 80.4758 176.979 81.5848 176.979 81.5848C175.65 86.0028 185.485 86.487 185.833 80.4486Z" fill="#F6CDC1"/>
<path d="M186.247 73.862L177.975 73.4736L177.606 70.8735L186.398 71.0261L186.247 73.862Z" fill="white"/>
<path d="M184.789 73.9619L177.447 75.5919L179.183 73.5304L184.777 73.7933L184.789 73.9619Z" fill="#F69CB3"/>
<path d="M172.716 32.6141C172.716 32.6141 177.09 36.9961 180.218 40.0821C183.487 43.3086 186.132 47.7218 186.196 52.3499C186.261 57.1059 186.397 71.0261 186.397 71.0261L177.605 70.8735L176.116 51.9943L170.799 47.4509L168.904 38.5199L172.716 32.6141Z" fill="#6584F7"/>
<path d="M14.003 146.771H44.6993C45.8199 146.771 46.7215 147.61 46.7215 148.652V151.117C46.7215 152.16 45.8199 152.999 44.6993 152.999H14.003C12.8825 152.999 11.9809 152.16 11.9809 151.117V148.652C11.9809 147.61 12.8825 146.771 14.003 146.771Z" fill="#B7BBFF"/>
<path d="M19.0683 140.542H49.7646C50.8851 140.542 51.7867 141.381 51.7867 142.424V144.889C51.7867 145.932 50.8851 146.771 49.7646 146.771H19.0683C17.9477 146.771 17.0461 145.932 17.0461 144.889V142.424C17.0461 141.381 17.9477 140.542 19.0683 140.542Z" fill="#CECFFF"/>
<path d="M21.7155 128.084H52.4118C53.5323 128.084 54.4339 128.923 54.4339 129.966V132.431C54.4339 133.474 53.5315 134.313 52.4118 134.313H21.7155C20.595 134.313 19.6934 133.474 19.6934 132.431V129.966C19.6934 128.924 20.595 128.084 21.7155 128.084Z" fill="#CECFFF"/>
<path d="M13.5626 134.313H44.2588C45.3794 134.313 46.281 135.152 46.281 136.195V138.66C46.281 139.703 45.3794 140.542 44.2588 140.542H13.5626C12.442 140.542 11.5404 139.702 11.5404 138.66V136.195C11.5404 135.152 12.442 134.313 13.5626 134.313Z" fill="#E3E1FF"/>
<path d="M72.9827 132.865C72.9364 141.936 64.9972 149.252 55.2505 149.209C45.5038 149.166 37.6411 141.778 37.6875 132.708C37.7338 123.638 45.673 116.321 55.4197 116.365C65.1663 116.407 73.0291 123.795 72.9827 132.865Z" fill="#E3E1FF"/>
<path d="M55.29 120.791C54.1119 120.802 53.1674 121.7 53.1777 122.796L53.1734 123.636C50.4489 124.567 48.7058 127.162 49.0681 129.891C49.4511 132.777 52.0795 134.984 55.1913 135.059C55.2351 135.061 55.2797 135.062 55.3235 135.062C56.3839 135.067 57.2409 135.78 57.3637 136.759C57.4865 137.74 56.8304 138.618 55.7992 138.85C54.7679 139.082 53.753 138.581 53.3803 137.657C52.9708 136.627 51.742 136.103 50.6369 136.484C49.5318 136.866 48.9677 138.009 49.3773 139.037C49.379 139.042 49.3807 139.047 49.3833 139.052C50.041 140.683 51.4209 141.901 53.0764 142.487V142.766C53.0575 143.863 53.9977 144.766 55.1767 144.783C56.3556 144.801 57.3267 143.926 57.3456 142.829C57.3456 142.814 57.3456 142.799 57.3456 142.784V142.564C60.138 141.681 61.9524 139.066 61.6046 136.297C61.2397 133.394 58.6027 131.167 55.4755 131.092C55.4325 131.09 55.3888 131.089 55.345 131.089C54.2897 131.084 53.4353 130.378 53.3065 129.403C53.1768 128.428 53.8208 127.55 54.8435 127.306C55.8662 127.063 56.8837 127.545 57.2735 128.458C57.702 129.48 58.9402 129.986 60.0384 129.586C61.1366 129.187 61.6793 128.035 61.2508 127.013C61.2474 127.005 61.244 126.998 61.2405 126.99C60.5441 125.361 59.1256 124.162 57.4444 123.612L57.4487 122.814C57.471 121.717 56.5333 120.812 55.3544 120.791C55.3321 120.791 55.3115 120.791 55.29 120.791Z" fill="#B7BBFF"/>
<path d="M63.0755 16.5891C63.0755 16.5891 61.0886 24.2377 58.3916 31.5921C52.1525 44.2139 55.7967 54.6951 64.5877 53.1457C71.9241 51.7354 86.1091 45.6339 86.1091 45.6339L89.9276 52.9835C89.9276 52.9835 97.1644 40.0357 89.9911 32.563C85.3604 28.4766 84.1153 20.077 84.1153 20.077C84.1153 20.077 66.8622 12.3246 63.0755 16.5891Z" fill="#3D3D3D"/>
<path d="M79.7181 39.327C79.7181 39.327 83.9607 40.6222 87.7766 42.8692C91.5916 45.1153 94.0053 55.0411 94.0053 55.0411L86.0988 57.0124L80.3801 53.94L79.8349 47.6507L79.7181 39.327Z" fill="#FF6853"/>
<path d="M73.3108 36.0836C71.7575 36.0748 70.6318 36.229 70.6318 36.229C67.1198 39.6633 60.5545 41.4995 56.706 44.8092C53.905 47.3126 45.2145 59.5948 43.4217 62.1135C43.3178 62.2597 43.225 62.4083 43.14 62.5577L51.9937 63.9465L56.2956 58.7231L50.8886 80.6906H73.3331L81.7154 66.227C84.0767 65.8514 85.5287 64.8438 86.1469 63.4551L79.7181 39.3269L81.262 38.7308C79.7138 36.8482 76.8236 36.2577 74.4459 36.1187C74.051 36.0963 73.6697 36.086 73.3108 36.0836Z" fill="#FF6853"/>
<path d="M83.376 22.4494L85.016 25.8525C90.1688 25.1118 87.258 14.2815 83.376 22.4494Z" fill="#F69CB3"/>
<path d="M72.1387 26.7698C72.1387 26.7698 72.1731 31.497 71.9352 33.5442C71.6974 35.5914 71.6647 36.706 71.6647 36.706L76.7308 41.597L79.7181 39.3269L78.5718 33.9501L72.1387 26.7698Z" fill="#F6C6C0"/>
<path d="M72.1387 26.7698L79.2364 31.9972L79.0191 36.0524C77.4048 36.0756 73.4911 34.3193 73.4911 29.0991L72.1387 26.7698Z" fill="#F69CB3"/>
<path d="M71.6768 26.4119C66.4733 26.1066 68.3254 15.0757 72.9811 22.8856C74.0415 21.0534 76.3152 18.3382 74.8461 14.9495C78.759 15.9563 82.0013 16.7274 86.0877 15.5088C88.5477 32.2074 80.0006 42.7804 71.6768 26.4119Z" fill="#F6C6C0"/>
<path d="M71.797 24.133C71.8159 24.0467 71.4793 22.8162 70.679 21.9916C69.8787 21.167 69.2837 22.2217 69.2837 22.2217C69.2837 22.2217 69.9646 22.0004 70.3845 22.5829C70.8044 23.1654 69.5293 23.97 70.7846 24.6468C72.0391 25.3244 71.797 24.133 71.797 24.133Z" fill="#F69CB3"/>
<path d="M76.7308 41.597L71.7 36.253L71.8434 34.5382C69.8719 35.6569 69.4958 37.585 69.7182 38.6373L72.6642 45.4197L76.7308 41.597Z" fill="white"/>
<path d="M79.7181 39.3269L79.0183 36.0524C80.9546 36.6102 82.5817 39.2862 82.009 40.9522C81.8278 41.4444 80.2084 45.721 80.2084 45.721L76.7308 41.597L79.7181 39.3269Z" fill="white"/>
<path d="M86.128 16.3366C85.1509 20.4661 77.8969 26.2049 73.5487 24.6372L72.9811 22.8857C72.9811 22.8857 71.621 20.3878 70.0822 20.101C68.5444 19.8141 63.0756 16.5891 63.0756 16.5891C63.0756 16.5891 64.6109 9.67095 69.1592 6.46276C73.7067 3.25457 81.1744 6.07522 85.5579 8.31177C88.0789 9.59744 87.6049 12.5092 87.6049 12.5092C88.8156 14.713 90.7193 16.4901 89.354 19.1996C87.9888 21.9092 86.4955 22.4246 86.4955 22.4246C86.4955 22.4246 86.5891 19.0326 86.128 16.3366Z" fill="#3D3D3D"/>
<path d="M81.7153 66.2278C79.5944 66.0975 76.9111 65.7372 74.4708 61.2776C72.155 63.1946 69.4021 64.9821 64.1789 63.6996L76.62 75.0725L81.7153 66.2278Z" fill="#E0523C"/>
<path d="M56.2955 58.723L57.2624 56.0774L57.8987 54.3362L50.1707 61.1306L53.5152 62.1893L56.2955 58.723Z" fill="#E0523C"/>
<path d="M81.4036 68.6513C81.7145 69.1468 79.7078 70.5203 80.156 71.3465C80.8446 72.6154 82.5671 73.6087 82.9475 73.8076C84.2887 74.4501 85.5458 74.3366 87.2863 74.4557L88.6627 71.0277C87.2494 70.7576 87.6289 68.7336 86.5607 67.8739C85.7639 67.289 84.8151 68.8263 84.8151 68.8263C83.2798 66.5267 81.7153 66.2278 81.4036 68.6513Z" fill="#F6CDC1"/>
<path d="M90.1543 71.1492L93.9882 71.3841L88.8783 68.2206L90.1543 71.1492Z" fill="#F69CB3"/>
<path d="M77.6195 148.163L77.1215 144.388H81.9815H83.139L83.2395 149.707L77.6195 148.163Z" fill="#F6C6C0"/>
<path d="M73.3022 82.2488L55.0351 83.4394L50.2781 83.7494C43.7454 89.5425 48.8724 101.502 55.9367 114.195C54.7113 125.898 54.7483 134.293 54.215 144.388H60.2325C62.0572 135.758 63.1975 129.47 65.2574 121.781C65.9409 118.818 66.1075 115.783 65.9418 113.088C65.6747 108.82 65.187 103.757 64.519 101.405L64.2588 98.4823L73.0034 114.194L75.6266 131.139L77.1215 144.388H83.139L83.4043 131.139L83.2386 118.492C83.188 114.618 82.3576 111.03 81.3522 107.492L73.3022 82.2488Z" fill="#6584F7"/>
<path d="M75.6266 131.139H83.4043L83.139 144.388H77.1215L75.6266 131.139Z" fill="#3362C4"/>
<path d="M73.3331 80.6914L73.3313 82.2472L50.278 83.7494L50.8885 80.6914H73.3331Z" fill="white"/>
<path d="M83.139 146.063L77.3147 146.126L77.6195 148.163C77.6195 148.163 83.212 147.824 83.2249 147.765C83.2377 147.706 83.139 146.063 83.139 146.063Z" fill="white"/>
<path d="M90.5286 153H77.0399L77.6195 148.163L79.5077 147.682C80.7931 146.528 83.1467 146.244 84.7524 147.946C86.5281 150.858 90.5286 148.81 90.5286 153Z" fill="#3D3D3D"/>
<path d="M93.4601 55.2584C93.4601 55.2584 94.8228 59.2433 94.6082 59.5877C94.3935 59.9321 90.1311 60.0951 90.1311 60.0951L89.8194 55.7658L93.4601 55.2584Z" fill="#F6CDC1"/>
<path d="M89.0139 57.4527L87.7534 55.5246L96.9411 52.346L96.2353 56.7791L89.0139 57.4527Z" fill="white"/>
<path d="M54.7646 131.139C54.5843 135.518 54.4589 139.776 54.215 144.388H60.2325C61.2792 139.436 62.101 135.256 63.0008 131.139H54.7646Z" fill="#3362C4"/>
<path d="M53.9076 148.163L54.2141 144.388H59.075H60.2325L59.1987 149.706L53.9076 148.163Z" fill="#F6C6C0"/>
<path d="M59.8753 146.063L54.0372 146.126L53.9076 148.163C53.9076 148.163 59.573 147.824 59.5979 147.765C59.6228 147.706 59.8753 146.063 59.8753 146.063Z" fill="white"/>
<path d="M65.7846 153H53.1528L53.9076 148.163L55.8988 147.682C57.4307 146.528 59.8444 146.244 61.0869 147.946C62.2418 150.858 66.6785 148.81 65.7846 153Z" fill="#3D3D3D"/>
<path d="M64.2588 98.483L66.1942 92.121L67.6153 92.1162L67.9184 105.122L64.2588 98.483Z" fill="#3362C4"/>
<path d="M88.2935 54.3683C88.0531 54.5369 87.8084 54.8478 87.574 55.348C87.2795 55.8426 87.0158 56.2741 86.7952 56.6592L91.9385 63.1859C93.0711 62.6361 92.6607 62.6921 92.9449 62.4092C93.1965 62.1223 93.3966 61.7875 93.5468 61.4224C92.179 60.3141 90.0177 56.5114 90.0177 56.5114C90.3097 55.5917 89.3377 53.6388 88.2935 54.3683Z" fill="#F6CDC1"/>
<path d="M94.2801 68.048C94.2329 77.1173 86.2946 84.435 76.5488 84.391C66.8021 84.3479 58.9394 76.9598 58.9857 67.8906C59.0321 58.8206 66.9713 51.5037 76.718 51.5468C86.4638 51.5908 94.3265 58.978 94.2801 68.048Z" fill="#E3E1FF"/>
<path d="M76.5874 55.9744C75.4094 55.9856 74.464 56.8829 74.4751 57.9784L74.4708 58.8182C71.7463 59.7507 70.0032 62.3444 70.3656 65.0732C70.7485 67.9593 73.3769 70.1663 76.4887 70.2414C76.5325 70.2438 76.5771 70.2454 76.6209 70.2454C77.6814 70.2502 78.5383 70.963 78.6611 71.9434C78.7847 72.9239 78.1279 73.802 77.0966 74.0337C76.0654 74.2663 75.0504 73.7653 74.6778 72.8408C74.2682 71.8116 73.0403 71.2866 71.9343 71.6677C70.8284 72.0489 70.2642 73.1923 70.6738 74.2207C70.6755 74.2255 70.6781 74.2303 70.6798 74.2351C71.3376 75.8668 72.7183 77.0845 74.3729 77.6702V77.9491C74.3541 79.0462 75.2943 79.9499 76.4732 79.9667C77.6522 79.9843 78.6233 79.1093 78.6422 78.0122C78.6422 77.997 78.6422 77.9826 78.6422 77.9675V77.7469C81.4346 76.8656 83.2489 74.2495 82.9012 71.4808C82.5362 68.5778 79.8993 66.3493 76.7712 66.2749C76.7274 66.2725 76.6845 66.2717 76.6407 66.2717C75.5854 66.2669 74.731 65.5606 74.6022 64.5857C74.4725 63.6109 75.1165 62.7327 76.1392 62.489C77.161 62.2453 78.1794 62.728 78.5692 63.6405C78.9977 64.6625 80.2359 65.1675 81.3341 64.7687C82.4323 64.37 82.975 63.2178 82.5465 62.1958C82.5431 62.1878 82.5397 62.1806 82.5362 62.1726C81.8399 60.5433 80.4214 59.3448 78.7401 58.7934L78.7444 57.996C78.7659 56.8989 77.8291 55.9936 76.6501 55.9728C76.6295 55.9744 76.6089 55.9744 76.5874 55.9744Z" fill="#B7BBFF"/>
<path d="M46.1857 61.9097C35.9341 68.7176 56.7111 76.0161 61.4501 79.2619L63.8251 76.3517C59.0561 73.2618 57.8901 70.4923 53.3134 66.99C51.4063 65.5302 47.8317 63.0411 46.1857 61.9097Z" fill="#F6CDC1"/>
<path d="M71.9781 83.5896C71.9214 84.2823 71.0628 84.3215 69.6073 83.9356C68.1047 83.5368 64.263 82.9447 63.7659 82.4605C63.2678 81.9763 61.335 78.9686 61.335 78.9686L61.2646 78.884L63.8251 76.351C64.2227 76.4804 64.7044 76.7393 65.4798 76.8655C65.5691 76.8799 68.2395 77.1572 69.0458 77.7301C69.8521 78.303 68.4868 79.54 68.4868 79.54C68.4868 79.54 71.9858 82.7617 71.9807 83.52C71.9815 83.544 71.9798 83.5672 71.9781 83.5896Z" fill="#F6CDC1"/>
<path d="M50.7151 65.7827L51.9936 63.9465L44.525 62.6129L43.5126 65.0037L50.7151 65.7827Z" fill="#F6CDC1"/>
<path d="M51.9937 63.9464L53.5152 62.1893L43.067 58.0758L43.1409 62.5577L51.9937 63.9464Z" fill="white"/>
<path d="M90.0177 56.5121C91.1606 54.9899 93.4163 55.9616 94.6322 56.9732C96.413 58.5377 95.2598 60.9932 93.1329 62.4267C91.067 63.4032 89.7653 63.523 88.7366 62.0408C87.9243 60.636 88.4936 57.6068 90.0177 56.5121Z" fill="#F6CDC1"/>
<path d="M131.277 29.3157C131.23 38.3857 123.292 45.7026 113.545 45.6595C103.798 45.6155 95.9357 38.2283 95.9829 29.1583C96.0292 20.0882 103.968 12.7713 113.714 12.8145C123.461 12.8584 131.324 20.2464 131.277 29.3157Z" fill="#E3E1FF"/>
<path d="M119.593 3.30896C120.966 3.30896 122.071 4.33734 122.071 5.61423V27.2006C122.071 28.4775 120.966 29.5059 119.593 29.5059C118.22 29.5059 117.116 28.4775 117.116 27.2006V5.61423C117.115 4.33654 118.22 3.30896 119.593 3.30896Z" fill="#E3E1FF"/>
<path d="M109.683 8.12158C111.056 8.12158 112.16 9.14996 112.16 10.4268V32.0124C112.16 33.2901 111.055 34.3177 109.683 34.3177C108.311 34.3177 107.206 33.2893 107.206 32.0124V10.4268C107.206 9.14996 108.311 8.12158 109.683 8.12158Z" fill="#E3E1FF"/>
<path d="M114.638 3.71161C116.01 3.71161 117.115 4.73999 117.115 6.01687V13.4017C117.115 14.6786 116.01 15.707 114.638 15.707C113.266 15.707 112.161 14.6786 112.161 13.4017V6.01687C112.161 4.73999 113.266 3.71161 114.638 3.71161Z" fill="#F2F4FF"/>
<path d="M113.585 17.2421C112.406 17.2533 111.462 18.1506 111.472 19.2461L111.468 20.0859C108.743 21.0176 107 23.6121 107.363 26.3409C107.746 29.227 110.374 31.434 113.486 31.5091C113.53 31.5115 113.574 31.5131 113.618 31.5131C114.678 31.5179 115.535 32.2307 115.658 33.2111C115.782 34.1915 115.125 35.0689 114.094 35.3014C113.062 35.534 112.048 35.0329 111.675 34.1084C111.265 33.0793 110.037 32.5543 108.931 32.9362C107.826 33.3174 107.261 34.46 107.672 35.4892C107.674 35.494 107.676 35.4988 107.678 35.5036C108.336 37.1353 109.716 38.353 111.371 38.9387V39.2176C111.352 40.3147 112.292 41.2184 113.471 41.2352C114.65 41.2528 115.621 40.3778 115.639 39.2807C115.639 39.2655 115.639 39.2511 115.639 39.236V39.0154C118.432 38.1333 120.246 35.518 119.898 32.7493C119.533 29.8463 116.896 27.6178 113.769 27.5434C113.725 27.541 113.682 27.5402 113.639 27.5402C112.583 27.5354 111.729 26.8291 111.6 25.8542C111.471 24.8794 112.115 24.0012 113.137 23.7575C114.159 23.5138 115.177 23.9964 115.567 24.909C115.997 25.931 117.234 26.436 118.332 26.0372C119.43 25.6377 119.973 24.4863 119.545 23.4643C119.541 23.4571 119.539 23.4491 119.535 23.4419C118.839 21.8126 117.42 20.6141 115.739 20.0635L115.743 19.2661C115.766 18.169 114.828 17.2628 113.649 17.2429C113.627 17.2421 113.606 17.2421 113.585 17.2421Z" fill="#A5A3FF"/>
<path d="M124.548 8.21985C125.92 8.21985 127.025 9.24823 127.025 10.5251V17.9099C127.025 19.1868 125.92 20.2152 124.548 20.2152C123.175 20.2152 122.071 19.1868 122.071 17.9099V10.5251C122.071 9.24823 123.176 8.21985 124.548 8.21985Z" fill="#F2F4FF"/>
<path d="M101.508 2.9054C102.881 2.9054 103.985 3.93378 103.985 5.21066V7.32095C103.985 8.59784 102.88 9.62702 101.508 9.62702C100.135 9.62702 99.0303 8.59864 99.0303 7.32095V5.21066C99.0303 3.93298 100.135 2.9054 101.508 2.9054Z" fill="#E3E1FF"/>
<path d="M115.518 132.583C116.021 134.711 114.576 136.816 112.29 137.284C110.003 137.752 107.741 136.407 107.238 134.279C106.735 132.151 108.181 130.046 110.468 129.578C112.753 129.11 115.015 130.456 115.518 132.583Z" fill="#A5A3FF"/>
<path d="M109.574 121.282C107.397 121.229 105.531 122.719 105.256 124.729C105.052 126.237 105.798 127.722 107.174 128.543C106.571 130.468 106.051 132.538 105.683 134.306C105.581 134.798 105.926 135.274 106.455 135.369C106.983 135.464 107.495 135.143 107.597 134.651C107.952 132.946 108.451 130.989 109.029 129.147C111.317 129.365 113.374 127.846 113.666 125.723C113.961 123.561 112.317 121.587 109.995 121.312C109.855 121.296 109.715 121.286 109.574 121.282Z" fill="#CECFFF"/>
<path d="M106.536 112.962C104.194 112.962 102.297 114.728 102.297 116.907C102.298 118.488 103.315 119.915 104.879 120.533C104 123.831 103.143 131.459 102.928 134.555C102.892 135.056 103.299 135.487 103.837 135.52C104.375 135.553 104.838 135.173 104.873 134.673C105.088 131.591 105.942 124.28 106.836 120.837C109.054 120.691 110.773 118.976 110.776 116.906C110.775 114.728 108.877 112.962 106.536 112.962Z" fill="#A5A3FF"/>
<path d="M89.1874 139.981L90.952 149.958C91.1967 151.627 92.41 152.999 94.2209 152.999H108.743C110.554 152.999 111.733 151.622 112.012 149.958L113.676 139.981H89.1874Z" fill="#CECFFF"/>
<path d="M89.1874 139.981L89.5901 142.26H113.295L113.676 139.981H89.1874Z" fill="#B7BBFF"/>
<path d="M94.5979 132.583C95.101 134.711 93.655 136.816 91.3684 137.284C89.0818 137.752 86.8201 136.407 86.3169 134.279C85.8138 132.151 87.2597 130.046 89.5464 129.578C91.833 129.11 94.0947 130.456 94.5979 132.583Z" fill="#A5A3FF"/>
<path d="M92.8333 121.282C92.6925 121.286 92.5508 121.296 92.4109 121.313C90.0882 121.588 88.4447 123.562 88.7392 125.724C89.0312 127.846 91.0885 129.366 93.3769 129.148C93.9556 130.989 94.4545 132.946 94.8091 134.651C94.9113 135.144 95.423 135.465 95.9511 135.37C96.4792 135.275 96.8252 134.798 96.7231 134.307C96.3556 132.539 95.8352 130.47 95.2324 128.543C96.608 127.723 97.3542 126.239 97.1498 124.73C96.8759 122.719 95.01 121.229 92.8333 121.282Z" fill="#CECFFF"/>
<path d="M96.3178 112.962C93.9762 112.962 92.0786 114.728 92.0786 116.907C92.0811 118.976 93.8002 120.692 96.0181 120.838C96.912 124.281 97.7663 131.592 97.981 134.674C98.0153 135.174 98.479 135.553 99.0165 135.521C99.5541 135.488 99.9611 135.056 99.9259 134.556C99.7095 131.46 98.8534 123.832 97.975 120.534C99.5386 119.915 100.554 118.488 100.557 116.908C100.557 114.728 98.6593 112.962 96.3178 112.962Z" fill="#A5A3FF"/>
<path d="M88.3889 133.898H114.559C116.37 133.898 117.827 135.255 117.827 136.94C117.827 138.625 116.369 139.981 114.559 139.981H88.3889C86.5779 139.981 85.1208 138.624 85.1208 136.94C85.1199 135.254 86.5779 133.898 88.3889 133.898Z" fill="#CECFFF"/>
<path d="M101.912 105.993C99.5704 105.993 97.6727 107.759 97.6727 109.938C97.6727 111.557 98.7366 113.011 100.354 113.606V137.041C100.343 137.553 100.781 137.976 101.331 137.986C101.882 137.996 102.337 137.589 102.347 137.076C102.347 137.065 102.347 137.052 102.347 137.04V113.861C104.509 113.653 106.151 111.959 106.151 109.938C106.151 107.76 104.253 105.993 101.912 105.993Z" fill="#CECFFF"/>
</svg>
