<svg width="186" height="181" viewBox="0 0 186 181" fill="none" xmlns="http://www.w3.org/2000/svg">
<path d="M152.654 155.715C120.875 189.252 72.0605 179.331 64.8451 177.736C55.7548 175.728 34.1276 170.949 17.9884 152.082C-6.72069 123.195 -4.22556 78.0502 14.8573 47.614C20.4097 38.7577 39.0957 12.4393 74.186 6.71719C76.2369 6.38282 112.879 1.01025 142.361 25.7477C146.337 29.0832 152.753 35.1232 158.376 43.9183C175.821 71.2014 184.077 122.555 152.654 155.715Z" fill="url(#paint0_linear_205_3796)"/>
<path d="M160.264 143.064C155.906 147.556 152.007 150.196 149.022 152.189C119.908 171.629 86.6269 166.026 76.3374 164.111C59.7363 161.021 45.7231 158.842 33.6829 147.964C6.32386 123.246 7.65494 71.6834 28.5601 39.7424C31.0386 35.9551 51.9126 5.01344 85.2653 0.653408C86.0809 0.546616 86.6899 0.486227 87.2232 0.429653C92.3829 -0.116385 124.356 -2.99976 150.427 18.8424C154.159 21.9692 160.165 27.6088 165.734 36.21C186.097 67.6603 186.161 116.37 160.264 143.064Z" fill="url(#paint1_linear_205_3796)"/>
<path d="M144.476 60.6972L159.327 57.2399C159.327 57.2399 169.256 56.3474 170.598 65.1723C171.941 73.9973 171.552 126.282 171.132 137.065C170.993 140.619 171.01 143.903 171.313 146.766C171.943 152.731 167.289 157.941 161.292 158.045L133.646 158.524L144.476 60.6972Z" fill="url(#paint2_linear_205_3796)"/>
<path d="M136.576 162.773C136.576 162.773 139.542 121.175 160.643 95.8184C160.918 95.4879 161.394 95.5705 161.54 95.9774C163.839 102.401 176.762 143.708 136.576 162.773Z" fill="#BDD0FB"/>
<path d="M159.732 107.89C159.554 110.317 159.203 112.711 158.796 115.102C158.375 117.489 157.881 119.863 157.298 122.218C156.137 126.927 154.684 131.57 152.898 136.089C151.997 138.345 151.041 140.581 149.972 142.764C149.454 143.863 148.876 144.934 148.321 146.015C147.733 147.079 147.158 148.15 146.52 149.186C144.05 153.372 141.157 157.317 137.855 160.867C137.757 160.972 137.591 160.979 137.485 160.88C137.385 160.787 137.375 160.635 137.455 160.529L137.458 160.526C140.397 156.717 143.044 152.713 145.34 148.51C145.932 147.47 146.458 146.393 147.022 145.338C147.546 144.261 148.093 143.197 148.581 142.104C148.826 141.558 149.091 141.021 149.328 140.471L150.051 138.828C150.288 138.278 150.511 137.722 150.741 137.17C150.974 136.619 151.191 136.061 151.406 135.502C151.853 134.391 152.267 133.267 152.686 132.144C153.085 131.015 153.484 129.885 153.857 128.746C154.627 126.475 155.311 124.176 155.971 121.869C156.618 119.559 157.219 117.233 157.759 114.892C158.309 112.555 158.797 110.195 159.212 107.834L159.214 107.826C159.238 107.684 159.374 107.588 159.517 107.614C159.65 107.636 159.741 107.758 159.732 107.89Z" fill="url(#paint3_linear_205_3796)"/>
<path d="M139.191 158.219C139.191 158.219 160.943 121.631 184.608 121.058C185.028 121.048 185.347 121.434 185.26 121.844C184.253 126.627 177.207 151.663 139.191 158.219Z" fill="#91B3FA"/>
<path d="M179.598 126.863C178.164 128.368 176.687 129.817 175.19 131.251C174.434 131.959 173.678 132.667 172.914 133.367C172.142 134.058 171.381 134.761 170.603 135.444C167.498 138.186 164.295 140.82 161.009 143.343C159.378 144.622 157.689 145.822 156.022 147.052L153.472 148.829C153.046 149.124 152.623 149.423 152.193 149.711L150.891 150.561C147.452 152.875 143.858 154.95 140.24 156.965C140.113 157.036 139.954 156.99 139.884 156.864C139.814 156.739 139.858 156.583 139.98 156.511L139.987 156.507L142.657 154.941L143.992 154.158C144.433 153.89 144.866 153.609 145.303 153.336L147.927 151.693C148.791 151.131 149.646 150.551 150.505 149.981L151.793 149.123L153.06 148.235L155.594 146.457C157.251 145.227 158.929 144.025 160.549 142.746C162.191 141.496 163.797 140.199 165.404 138.904L167.784 136.924L170.134 134.909C170.918 134.237 171.684 133.546 172.459 132.864C173.228 132.175 173.988 131.479 174.749 130.781C176.264 129.382 177.77 127.963 179.216 126.501L179.22 126.497C179.322 126.394 179.487 126.393 179.59 126.495C179.694 126.597 179.695 126.76 179.598 126.863Z" fill="#BDD0FB"/>
<path d="M114.286 61.4149C114.286 61.4149 141.326 62.9005 159.326 57.2399C159.326 57.2399 147.36 56.4199 147.36 84.0472C147.36 105.17 150.492 145.487 147.757 153.14C145.022 160.794 134.794 171.081 120.133 162.24C105.473 153.398 114.286 61.4149 114.286 61.4149Z" fill="#7D97F4"/>
<path d="M107.097 19.9948C107.097 19.9948 136.932 23.2469 140.775 18.1902C140.775 18.1902 137.717 9.08933 128.638 9.69448C119.56 10.3003 107.097 19.9948 107.097 19.9948Z" fill="url(#paint4_linear_205_3796)"/>
<path d="M10.0654 30.2341C12.6671 59.4716 18.1313 121.314 20.5087 151.439C21.0389 158.154 26.4217 163.459 33.1445 163.891C57.0926 165.428 110.988 168.41 131.67 165.635C126.933 163.3 123.949 158.459 123.992 153.177L125.09 17.9988C125.129 13.2224 129.887 9.78984 134.36 11.4661C137.178 12.5219 139.312 14.7716 140.775 18.1908C138.822 12.5003 135.751 8.33734 128.638 9.69513C128.638 9.69513 59.0727 10.3905 25.315 12.4838C16.143 13.0521 9.25107 21.0799 10.0654 30.2341Z" fill="#91B3FA"/>
<mask id="mask0_205_3796" style="mask-type:alpha" maskUnits="userSpaceOnUse" x="12" y="12" width="114" height="153">
<path d="M27.2741 16.3524L120.749 12.7539C116.894 41.296 118.521 99.4207 119.992 156.703C120.079 160.099 122.071 163.155 125.143 164.607C125.143 164.607 62.7952 165.325 36.0056 163.425C29.6979 162.978 24.5522 158.205 23.6152 151.951C19.9373 127.409 11.1384 64.0077 12.9697 30.442C13.3899 22.7548 19.5819 16.6486 27.2741 16.3524Z" fill="url(#paint5_linear_205_3796)"/>
</mask>
<g mask="url(#mask0_205_3796)">
<path opacity="0.53" d="M27.2741 16.3524L120.749 12.7539C116.894 41.296 118.521 99.4207 119.992 156.703C120.079 160.099 122.071 163.155 125.143 164.607C125.143 164.607 62.7952 165.325 36.0056 163.425C29.6979 162.978 24.5522 158.205 23.6152 151.951C19.9373 127.409 11.1384 64.0077 12.9697 30.442C13.3899 22.7548 19.5819 16.6486 27.2741 16.3524Z" fill="url(#paint6_linear_205_3796)"/>
<path d="M26.0371 60.6248L27.1279 71.0948C27.3282 73.0139 28.9084 74.4944 30.8364 74.5681L36.9324 74.802C39.1312 74.8866 40.9594 73.127 40.9594 70.9264V59.6312C40.9594 57.3638 39.0232 55.5801 36.7634 55.7657L29.5765 56.3563C27.4089 56.5355 25.8115 58.4616 26.0371 60.6248Z" fill="url(#paint7_linear_205_3796)"/>
<path d="M47.4738 57.3975C57.6196 57.0822 96.5682 55.8159 106.403 55.4956C107.644 55.4555 108.669 56.4497 108.669 57.6911C108.669 58.8729 107.735 59.8422 106.554 59.8861L47.6626 62.0728C46.5279 62.1148 45.5483 61.2858 45.4028 60.1601L45.3659 59.8753C45.1987 58.5881 46.1764 57.4375 47.4738 57.3975Z" fill="url(#paint8_linear_205_3796)"/>
<path d="M46.8368 71.2003C47.009 71.4889 47.3231 71.6631 47.6593 71.6561L88.0972 70.7776C88.6051 70.7668 89.0113 70.3517 89.0113 69.8432V67.1772C89.0113 66.6477 88.5715 66.2237 88.0419 66.2434L48.7317 67.7131C46.9811 67.7792 45.9392 69.6957 46.8368 71.2003Z" fill="url(#paint9_linear_205_3796)"/>
<path d="M26.0371 89.6836L27.1279 100.154C27.3282 102.073 28.9084 103.553 30.8364 103.627L36.9324 103.861C39.1312 103.945 40.9594 102.186 40.9594 99.9852V88.6901C40.9594 86.4226 39.0232 84.6389 36.7634 84.8246L29.5765 85.4151C27.4089 85.595 25.8115 87.5204 26.0371 89.6836Z" fill="url(#paint10_linear_205_3796)"/>
<path d="M47.4738 86.4563C57.6196 86.141 96.5682 84.8747 106.403 84.5544C107.644 84.5137 108.669 85.5085 108.669 86.75C108.669 87.9317 107.735 88.9011 106.554 88.9449L47.6626 91.131C46.5279 91.1729 45.5483 90.344 45.4028 89.2182L45.3659 88.9335C45.1987 87.6469 46.1764 86.497 47.4738 86.4563Z" fill="url(#paint11_linear_205_3796)"/>
<path opacity="0.78" d="M46.8368 100.26C47.009 100.548 47.3231 100.723 47.6593 100.716L88.0972 99.837C88.6051 99.8262 89.0113 99.4111 89.0113 98.9032V96.2373C89.0113 95.7077 88.5715 95.2837 88.0419 95.3035L48.7317 96.7731C46.9811 96.838 45.9392 98.7545 46.8368 100.26Z" fill="white"/>
<path d="M26.0371 118.743L27.1279 129.213C27.3282 131.132 28.9084 132.613 30.8364 132.686L36.9324 132.92C39.1312 133.005 40.9594 131.245 40.9594 129.045V117.749C40.9594 115.482 39.0232 113.698 36.7634 113.884L29.5765 114.474C27.4089 114.654 25.8115 116.579 26.0371 118.743Z" fill="url(#paint12_linear_205_3796)"/>
<path d="M47.4738 115.516C57.6196 115.2 96.5682 113.934 106.403 113.614C107.644 113.574 108.669 114.568 108.669 115.809C108.669 116.991 107.735 117.96 106.554 118.004L47.6626 120.19C46.5279 120.232 45.5483 119.403 45.4028 118.278L45.3659 117.993C45.1987 116.706 46.1764 115.556 47.4738 115.516Z" fill="url(#paint13_linear_205_3796)"/>
<path d="M46.8368 129.319C47.009 129.607 47.3231 129.781 47.6593 129.774L88.0972 128.896C88.6051 128.885 89.0113 128.47 89.0113 127.962V125.296C89.0113 124.767 88.5715 124.343 88.0419 124.362L48.7317 125.832C46.9811 125.897 45.9392 127.814 46.8368 129.319Z" fill="url(#paint14_linear_205_3796)"/>
<path opacity="0.78" d="M105.431 44.3148L30.9655 46.5244C28.2906 46.6038 26.0442 44.5277 25.9132 41.8548L25.6399 36.2844C25.5051 33.5313 27.6613 31.2054 30.4169 31.133L105.253 29.1541C108.051 29.0804 110.345 31.3555 110.294 34.1537L110.197 39.4933C110.15 42.1147 108.052 44.2366 105.431 44.3148Z" fill="white"/>
</g>
<path d="M81.9746 102.984C81.9746 102.984 79.491 101.355 79.1471 101.731C79.0244 101.864 78.739 102.319 78.4727 102.815C78.2845 103.164 78.343 103.595 78.6189 103.881L79.259 104.542C79.8692 105.173 80.9016 105.128 81.44 104.435C81.7114 104.085 81.9282 103.614 81.9746 102.984Z" fill="url(#paint15_linear_205_3796)"/>
<path d="M84.5071 99.8892C84.5071 99.8892 83.6547 97.6453 82.6592 97.8513C81.6638 98.0566 80.5742 98.8213 80.5742 98.8213L78.9749 100.984C78.9749 100.984 83.4646 102.753 85.0436 101.74C85.0436 101.74 89.6293 102.532 95.4209 101.582C94.5824 99.8123 94.0828 98.0401 93.7897 96.6645C90.8561 98.3249 87.6969 99.565 84.5071 99.8892Z" fill="url(#paint16_linear_205_3796)"/>
<path d="M108.8 83.6149C108.8 83.6149 102.234 91.8849 93.7898 96.6645C94.0834 98.04 94.5831 99.8116 95.4209 101.582C99.8013 100.863 104.871 99.148 109.168 95.3365L108.8 83.6149Z" fill="url(#paint17_linear_205_3796)"/>
<path d="M116.988 120.269C115.704 114.17 114.42 110.639 110.12 99.0782C108.767 95.4402 107.538 91.7591 108.132 87.9229L108.799 83.6149C108.799 83.6149 117.155 80.7875 126.416 83.4961C126.416 83.4961 139.053 88.9857 130.47 116.096C126.601 120.424 122.074 121.658 116.988 120.269Z" fill="url(#paint18_linear_205_3796)"/>
<path d="M110.222 78.1163L112.388 83.3212C112.525 83.6498 112.821 83.8844 113.172 83.9441C114.421 84.1583 117.442 84.4927 119.426 83.1883C119.663 83.0326 119.723 82.7116 119.561 82.4795L115.558 76.7325L110.222 78.1163Z" fill="url(#paint19_linear_205_3796)"/>
<path d="M112.462 70.1527C112.372 70.2385 108.622 77.6008 108.622 77.6008L112.872 79.6521L117.462 73.202C117.462 73.202 113.985 68.7187 112.462 70.1527Z" fill="url(#paint20_linear_205_3796)"/>
<path d="M115.531 73.9763L113.411 77.5093C113.379 77.5627 113.341 77.6117 113.295 77.6543C113.043 77.8888 112.179 78.5722 111.512 77.6422C110.943 76.8495 110.41 76.1293 109.838 75.8318C109.504 75.6583 109.093 75.7968 108.923 76.1331C108.574 76.8253 107.898 78.2359 107.472 79.574C107.366 79.909 107.539 80.2694 107.865 80.4016C108.726 80.75 110.426 81.3805 111.935 81.589C112.183 81.6234 112.429 81.5185 112.576 81.3163C113.225 80.427 115.055 77.9409 115.68 77.3193C116.26 76.7414 117.331 76.9588 117.814 77.0981C117.997 77.1508 118.192 77.1254 118.356 77.0269C118.845 76.7319 119.699 75.9977 118.918 74.7544C118.724 74.4454 118.823 74.0335 119.128 73.8326C119.675 73.4728 120.268 72.7984 119.703 71.7051C119.131 70.5984 118.109 70.4992 117.413 70.5844C117.105 70.6219 116.793 70.4604 116.674 70.1737C116.622 70.046 116.518 69.9373 116.325 69.8985C115.96 69.8248 115.721 69.491 115.792 69.1255C115.915 68.4994 115.822 67.6857 114.823 67.1365C112.989 66.1284 111.383 67.7709 110.975 69.1573C110.566 70.5437 112.617 71.5239 113.906 71.6873C114.853 71.8074 115.372 72.841 115.582 73.3813C115.657 73.5771 115.639 73.7958 115.531 73.9763Z" fill="url(#paint21_linear_205_3796)"/>
<path d="M114.788 78.3758C114.788 78.3758 115.7 76.2298 116.743 76.3175C117.787 76.4052 118.608 77.4445 117.314 78.6135C115.706 80.0673 114.788 78.3758 114.788 78.3758Z" fill="url(#paint22_linear_205_3796)"/>
<path d="M116.165 174.023C118.183 174.197 121.686 174.48 124.447 174.602C126.106 174.675 127.062 174.512 127.612 174.292C127.612 174.354 127.61 174.413 127.607 174.467C127.594 174.757 127.358 174.99 127.064 175.007C121.847 175.298 117.698 175.108 116.22 175.017C115.915 174.999 115.733 174.667 115.889 174.406C115.968 174.276 116.063 174.149 116.165 174.023Z" fill="url(#paint23_linear_205_3796)"/>
<path d="M124.447 174.602C121.686 174.481 118.183 174.197 116.166 174.023C118.15 171.589 124.447 169.949 124.447 169.949H126.226C127.449 171.712 127.626 173.391 127.613 174.293C127.062 174.513 126.107 174.675 124.447 174.602Z" fill="url(#paint24_linear_205_3796)"/>
<path d="M126.525 167.044L126.359 170.338C126.341 170.694 126.074 170.994 125.717 171.045C125.361 171.096 124.885 171.102 124.381 170.934C124.07 170.831 123.84 170.57 123.782 170.25L123.207 167.044H126.525Z" fill="url(#paint25_linear_205_3796)"/>
<path d="M149.627 174.577C150.503 174.455 150.899 174.001 151.065 173.515C151.066 173.519 151.067 173.524 151.068 173.528C151.196 174.041 150.898 174.572 150.301 174.825C149.58 175.13 148.791 175.182 148.179 175.157C147.522 175.13 146.919 174.858 146.588 174.423L146.582 174.417C147.242 174.743 148.168 174.781 149.627 174.577Z" fill="url(#paint26_linear_205_3796)"/>
<path d="M145.5 167.023H146.967C149.201 166.977 150.604 171.69 151.063 173.515C150.897 174.001 150.501 174.455 149.626 174.577C148.166 174.781 147.241 174.743 146.582 174.417C145.375 172.828 144.776 170.502 144.489 169.144C144.162 167.6 145.5 167.023 145.5 167.023Z" fill="url(#paint27_linear_205_3796)"/>
<path d="M146.779 163.966L147.593 167.205C147.693 167.602 147.503 168.013 147.135 168.202C146.68 168.436 146.038 168.681 145.449 168.611C145.172 168.577 144.941 168.382 144.85 168.12L143.654 164.712L146.779 163.966Z" fill="url(#paint28_linear_205_3796)"/>
<path d="M147.751 164.902C146.738 165.801 143.442 165.92 143.442 165.92C131.569 137.423 126.619 129.579 126.619 129.579C128.333 140.335 126.988 167.943 126.988 167.943C125.029 168.807 122.503 167.943 122.503 167.943C122.344 150.334 119.865 131.413 116.667 119.306C124.692 119.126 129.053 117.376 130.447 116.275C137.135 127.059 147.751 164.902 147.751 164.902Z" fill="url(#paint29_linear_205_3796)"/>
<path d="M114.645 127.269L116.122 136.453C116.379 138.055 117.863 139.166 119.48 138.968L141.58 136.272C142.662 136.141 143.482 135.237 143.503 134.154C143.55 131.781 143.458 127.557 142.461 123.71L114.645 127.269Z" fill="url(#paint30_linear_205_3796)"/>
<path d="M120.226 138.353C120.19 138.353 120.158 138.325 120.153 138.289C120.148 138.249 120.177 138.213 120.217 138.208L120.794 138.138C120.836 138.133 120.87 138.161 120.875 138.201C120.88 138.241 120.851 138.277 120.812 138.282L120.235 138.352C120.231 138.352 120.228 138.353 120.226 138.353ZM118.879 138.327C118.873 138.327 118.867 138.327 118.861 138.325C118.669 138.277 118.48 138.21 118.301 138.125C118.265 138.107 118.249 138.064 118.267 138.028C118.284 137.992 118.328 137.976 118.363 137.994C118.534 138.075 118.713 138.139 118.896 138.184C118.935 138.194 118.959 138.233 118.949 138.273C118.941 138.305 118.911 138.327 118.879 138.327ZM122.15 138.118C122.114 138.118 122.083 138.09 122.077 138.053C122.072 138.014 122.101 137.977 122.141 137.973L122.718 137.902C122.757 137.896 122.794 137.926 122.799 137.966C122.804 138.005 122.775 138.042 122.735 138.046L122.158 138.117C122.156 138.118 122.153 138.118 122.15 138.118ZM124.075 137.883C124.038 137.883 124.007 137.856 124.003 137.819C123.998 137.779 124.026 137.743 124.066 137.739L124.643 137.668C124.685 137.662 124.719 137.692 124.724 137.732C124.729 137.772 124.7 137.808 124.661 137.812L124.084 137.883C124.08 137.883 124.077 137.883 124.075 137.883ZM125.999 137.648C125.963 137.648 125.931 137.621 125.927 137.585C125.922 137.545 125.951 137.509 125.99 137.504L126.567 137.434C126.609 137.429 126.643 137.457 126.648 137.496C126.653 137.537 126.624 137.573 126.585 137.577L126.008 137.648C126.005 137.648 126.001 137.648 125.999 137.648ZM127.923 137.414C127.887 137.414 127.856 137.387 127.851 137.35C127.846 137.31 127.875 137.274 127.914 137.27L128.491 137.199C128.533 137.193 128.568 137.223 128.572 137.263C128.577 137.303 128.549 137.339 128.508 137.343L127.931 137.414C127.929 137.413 127.926 137.414 127.923 137.414ZM117.286 137.288C117.264 137.288 117.243 137.278 117.229 137.259C117.107 137.102 117.002 136.932 116.915 136.753C116.897 136.717 116.912 136.674 116.948 136.656C116.984 136.639 117.028 136.654 117.046 136.69C117.128 136.86 117.229 137.022 117.344 137.17C117.368 137.202 117.363 137.248 117.331 137.272C117.317 137.283 117.301 137.288 117.286 137.288ZM129.847 137.179C129.811 137.179 129.78 137.151 129.775 137.115C129.77 137.075 129.799 137.039 129.838 137.034L130.415 136.964C130.457 136.957 130.492 136.987 130.496 137.027C130.501 137.067 130.473 137.104 130.433 137.108L129.855 137.179C129.853 137.179 129.85 137.179 129.847 137.179ZM131.771 136.944C131.735 136.944 131.704 136.917 131.7 136.881C131.694 136.84 131.723 136.804 131.762 136.8L132.34 136.729C132.378 136.725 132.415 136.753 132.42 136.792C132.425 136.832 132.397 136.868 132.357 136.873L131.78 136.943C131.778 136.944 131.775 136.944 131.771 136.944ZM133.696 136.71C133.66 136.71 133.629 136.682 133.624 136.646C133.619 136.606 133.647 136.57 133.687 136.565L134.264 136.495C134.306 136.49 134.341 136.518 134.345 136.558C134.35 136.598 134.322 136.635 134.282 136.639L133.705 136.71C133.702 136.71 133.699 136.71 133.696 136.71ZM135.62 136.474C135.584 136.474 135.553 136.447 135.548 136.411C135.543 136.371 135.572 136.335 135.611 136.33L136.189 136.259C136.231 136.253 136.265 136.283 136.269 136.323C136.274 136.363 136.246 136.399 136.206 136.404L135.629 136.474C135.626 136.474 135.623 136.474 135.62 136.474ZM137.544 136.24C137.508 136.24 137.477 136.212 137.473 136.176C137.468 136.136 137.496 136.1 137.536 136.095L138.113 136.025C138.155 136.02 138.19 136.048 138.194 136.088C138.199 136.128 138.171 136.164 138.131 136.169L137.554 136.239C137.55 136.24 137.548 136.24 137.544 136.24ZM139.469 136.005C139.432 136.005 139.401 135.978 139.397 135.942C139.392 135.902 139.42 135.865 139.46 135.861L140.037 135.79C140.079 135.785 140.113 135.814 140.118 135.853C140.123 135.893 140.094 135.93 140.054 135.934L139.477 136.005C139.474 136.005 139.472 136.005 139.469 136.005ZM141.385 135.726C141.355 135.726 141.326 135.706 141.316 135.677C141.303 135.638 141.323 135.597 141.361 135.584C141.538 135.523 141.706 135.438 141.859 135.331C141.892 135.308 141.938 135.316 141.96 135.349C141.983 135.382 141.976 135.427 141.943 135.45C141.777 135.565 141.597 135.656 141.408 135.722C141.4 135.724 141.392 135.726 141.385 135.726ZM116.646 135.486C116.611 135.486 116.58 135.46 116.574 135.425L116.482 134.851C116.475 134.811 116.502 134.774 116.542 134.768C116.582 134.761 116.619 134.788 116.625 134.828L116.717 135.402C116.724 135.441 116.697 135.479 116.657 135.485C116.653 135.485 116.649 135.486 116.646 135.486ZM142.691 134.389C142.684 134.389 142.676 134.387 142.669 134.385C142.631 134.373 142.609 134.332 142.622 134.294C142.678 134.116 142.709 133.93 142.714 133.742C142.715 133.703 142.747 133.671 142.786 133.671C142.787 133.671 142.787 133.671 142.788 133.671C142.828 133.672 142.86 133.705 142.859 133.745C142.854 133.947 142.821 134.147 142.761 134.337C142.75 134.369 142.721 134.389 142.691 134.389ZM116.339 133.572C116.304 133.572 116.273 133.546 116.267 133.511L116.175 132.937C116.168 132.897 116.195 132.86 116.235 132.854C116.276 132.847 116.312 132.875 116.318 132.914L116.41 133.488C116.417 133.527 116.39 133.565 116.35 133.571C116.346 133.571 116.342 133.572 116.339 133.572ZM142.794 132.46C142.754 132.46 142.721 132.428 142.721 132.388C142.719 132.2 142.717 132.006 142.712 131.807C142.712 131.767 142.744 131.734 142.784 131.732C142.827 131.725 142.857 131.763 142.858 131.803C142.862 132.004 142.865 132.198 142.867 132.386C142.866 132.427 142.834 132.46 142.794 132.46ZM116.03 131.658C115.995 131.658 115.964 131.632 115.959 131.597L115.866 131.023C115.86 130.983 115.887 130.946 115.927 130.94C115.967 130.934 116.004 130.96 116.01 131L116.102 131.574C116.109 131.613 116.082 131.651 116.042 131.657C116.038 131.657 116.034 131.658 116.03 131.658ZM142.737 130.522C142.698 130.522 142.666 130.492 142.664 130.453C142.655 130.263 142.643 130.069 142.631 129.873C142.629 129.833 142.659 129.798 142.699 129.795C142.747 129.799 142.774 129.823 142.777 129.863C142.789 130.06 142.8 130.254 142.81 130.445C142.812 130.485 142.781 130.519 142.741 130.521C142.739 130.522 142.738 130.522 142.737 130.522ZM115.723 129.744C115.688 129.744 115.657 129.718 115.651 129.683L115.559 129.109C115.552 129.069 115.579 129.032 115.619 129.026C115.66 129.019 115.696 129.047 115.702 129.086L115.795 129.66C115.801 129.699 115.774 129.737 115.734 129.743C115.73 129.743 115.727 129.744 115.723 129.744ZM142.595 128.588C142.558 128.588 142.526 128.56 142.522 128.523C142.504 128.332 142.484 128.139 142.462 127.946C142.458 127.906 142.486 127.87 142.526 127.866C142.566 127.86 142.602 127.89 142.606 127.93C142.629 128.124 142.648 128.317 142.667 128.509C142.671 128.549 142.642 128.585 142.602 128.589C142.599 128.588 142.597 128.588 142.595 128.588ZM115.415 127.83C115.38 127.83 115.349 127.804 115.343 127.769L115.239 127.121L115.772 127.052C115.813 127.046 115.848 127.076 115.853 127.115C115.858 127.155 115.83 127.192 115.79 127.197L115.407 127.246L115.487 127.746C115.493 127.785 115.467 127.823 115.426 127.829C115.423 127.829 115.419 127.83 115.415 127.83ZM117.127 127.025C117.091 127.025 117.059 126.998 117.055 126.961C117.05 126.921 117.078 126.885 117.118 126.88L117.695 126.806C117.742 126.8 117.771 126.829 117.777 126.869C117.782 126.909 117.754 126.945 117.714 126.95L117.136 127.024C117.133 127.025 117.13 127.025 117.127 127.025ZM119.05 126.779C119.014 126.779 118.982 126.752 118.978 126.715C118.973 126.675 119.001 126.639 119.041 126.634L119.617 126.56C119.663 126.554 119.694 126.583 119.699 126.623C119.704 126.663 119.676 126.699 119.636 126.704L119.059 126.778C119.056 126.779 119.053 126.779 119.05 126.779ZM142.358 126.664C142.322 126.664 142.292 126.638 142.286 126.602C142.257 126.412 142.226 126.22 142.194 126.029C142.187 125.99 142.214 125.952 142.253 125.945C142.295 125.939 142.331 125.966 142.337 126.005C142.37 126.197 142.401 126.389 142.43 126.581C142.435 126.62 142.409 126.658 142.369 126.663C142.365 126.663 142.362 126.664 142.358 126.664ZM120.973 126.533C120.936 126.533 120.905 126.506 120.9 126.469C120.895 126.429 120.923 126.393 120.963 126.388L121.54 126.314C121.586 126.309 121.617 126.337 121.622 126.377C121.627 126.417 121.599 126.453 121.559 126.458L120.982 126.532C120.979 126.533 120.976 126.533 120.973 126.533ZM122.896 126.287C122.859 126.287 122.828 126.26 122.823 126.223C122.818 126.183 122.846 126.147 122.886 126.142L123.463 126.068C123.508 126.063 123.539 126.091 123.545 126.131C123.55 126.171 123.522 126.207 123.482 126.212L122.904 126.286C122.902 126.287 122.899 126.287 122.896 126.287ZM124.818 126.041C124.782 126.041 124.751 126.014 124.747 125.977C124.742 125.937 124.769 125.901 124.81 125.896L125.387 125.822C125.432 125.818 125.463 125.845 125.468 125.885C125.473 125.925 125.445 125.961 125.405 125.966L124.829 126.04C124.825 126.041 124.822 126.041 124.818 126.041ZM126.741 125.795C126.705 125.795 126.674 125.768 126.669 125.731C126.664 125.691 126.692 125.655 126.732 125.65L127.309 125.576C127.353 125.569 127.385 125.599 127.39 125.639C127.395 125.679 127.367 125.715 127.327 125.72L126.751 125.794C126.748 125.795 126.745 125.795 126.741 125.795ZM128.664 125.549C128.628 125.549 128.597 125.522 128.592 125.485C128.587 125.445 128.615 125.409 128.655 125.404L129.232 125.33C129.273 125.324 129.308 125.353 129.313 125.393C129.318 125.433 129.29 125.469 129.25 125.474L128.673 125.548C128.671 125.549 128.667 125.549 128.664 125.549ZM130.587 125.303C130.551 125.303 130.52 125.276 130.515 125.239C130.51 125.199 130.538 125.163 130.578 125.158L131.155 125.084C131.199 125.079 131.232 125.107 131.237 125.147C131.242 125.187 131.214 125.223 131.174 125.228L130.597 125.302C130.593 125.302 130.59 125.303 130.587 125.303ZM132.51 125.057C132.474 125.057 132.443 125.03 132.438 124.993C132.432 124.953 132.46 124.917 132.5 124.912L133.078 124.838C133.124 124.833 133.154 124.861 133.159 124.901C133.164 124.941 133.136 124.977 133.096 124.982L132.519 125.056C132.516 125.056 132.513 125.057 132.51 125.057ZM134.433 124.81C134.397 124.81 134.366 124.783 134.361 124.746C134.356 124.706 134.384 124.67 134.424 124.665L135.001 124.591C135.047 124.587 135.077 124.615 135.083 124.654C135.088 124.694 135.06 124.73 135.02 124.735L134.442 124.809C134.439 124.81 134.436 124.81 134.433 124.81ZM142.007 124.758C141.973 124.758 141.943 124.735 141.936 124.701C141.894 124.512 141.85 124.323 141.805 124.135C141.796 124.097 141.82 124.057 141.859 124.048C141.899 124.038 141.938 124.062 141.946 124.101C141.992 124.29 142.036 124.479 142.078 124.669C142.086 124.708 142.062 124.748 142.023 124.756C142.018 124.757 142.012 124.758 142.007 124.758ZM136.356 124.565C136.32 124.565 136.288 124.538 136.283 124.501C136.278 124.461 136.306 124.425 136.346 124.42L136.923 124.346C136.969 124.339 137 124.369 137.005 124.409C137.01 124.449 136.982 124.485 136.942 124.49L136.365 124.564C136.362 124.564 136.359 124.565 136.356 124.565ZM138.279 124.318C138.242 124.318 138.211 124.291 138.207 124.254C138.202 124.214 138.23 124.178 138.27 124.173L138.847 124.099C138.892 124.093 138.923 124.123 138.928 124.162C138.933 124.202 138.905 124.238 138.865 124.243L138.289 124.317C138.285 124.318 138.282 124.318 138.279 124.318ZM140.202 124.072C140.165 124.072 140.134 124.045 140.13 124.008C140.125 123.968 140.153 123.932 140.193 123.927L140.769 123.853C140.814 123.847 140.845 123.877 140.851 123.916C140.856 123.956 140.828 123.992 140.788 123.997L140.21 124.071C140.208 124.072 140.205 124.072 140.202 124.072Z" fill="white"/>
<path d="M120.261 119.747L120.236 119.027C120.289 118.848 120.43 118.707 120.61 118.655C121.283 118.457 122.965 118.046 123.866 118.555L124.094 119.365L120.261 119.747Z" fill="url(#paint31_linear_205_3796)"/>
<path d="M122.322 118.787C122.169 118.847 122.01 118.866 121.846 118.848C121.648 118.825 121.49 118.671 121.465 118.473L121.18 116.247L122.313 116.102L122.598 118.327C122.623 118.524 122.509 118.716 122.322 118.787Z" fill="url(#paint32_linear_205_3796)"/>
<path d="M131.238 118.342L131.213 117.622C131.267 117.443 131.407 117.303 131.587 117.25C132.261 117.052 133.943 116.642 134.843 117.15L135.071 117.961L131.238 118.342Z" fill="url(#paint33_linear_205_3796)"/>
<path d="M133.3 117.383C133.146 117.442 132.987 117.462 132.823 117.443C132.625 117.42 132.467 117.266 132.442 117.069L132.127 114.607L133.26 114.462L133.575 116.922C133.601 117.12 133.487 117.311 133.3 117.383Z" fill="url(#paint34_linear_205_3796)"/>
<path d="M121.134 116.807L133.271 114.844C133.547 114.799 133.758 114.569 133.77 114.29C133.788 113.899 133.774 113.321 133.611 112.74C133.425 112.079 132.782 111.653 132.096 111.724C129.815 111.961 124.027 112.703 120.999 114.373C120.678 114.55 120.465 114.871 120.425 115.233C120.386 115.578 120.389 116.033 120.554 116.474C120.641 116.709 120.886 116.847 121.134 116.807Z" fill="url(#paint35_linear_205_3796)"/>
<path d="M120.835 116.34C120.747 116.34 120.668 116.28 120.647 116.19C120.642 116.17 120.533 115.693 120.6 115.212C120.654 114.817 120.916 114.472 121.284 114.311C121.944 114.022 123.211 113.513 124.283 113.345C124.389 113.331 124.487 113.401 124.504 113.506C124.521 113.612 124.449 113.711 124.343 113.728C123.276 113.895 121.957 114.44 121.44 114.667C121.195 114.774 121.02 115.003 120.984 115.265C120.928 115.674 121.024 116.099 121.025 116.104C121.049 116.208 120.984 116.312 120.879 116.336C120.865 116.339 120.85 116.34 120.835 116.34Z" fill="url(#paint36_linear_205_3796)"/>
<path d="M114.57 120.193C118.501 119.639 135.513 117.28 140.537 117.244C140.97 117.241 141.357 117.508 141.503 117.914C141.964 119.198 142.946 122.194 143.265 125.246C143.309 125.662 143.05 126.049 142.651 126.18L131.63 129.762L127.617 130.275L115.276 129.423C114.842 129.393 114.482 129.074 114.406 128.647C114.132 127.126 113.549 123.548 113.668 121.182C113.693 120.679 114.069 120.264 114.57 120.193Z" fill="url(#paint37_linear_205_3796)"/>
<path d="M127.598 129.361L127.004 129.322C126.964 129.319 126.933 129.284 126.937 129.244C126.94 129.204 126.977 129.177 127.014 129.177L127.594 129.217L127.905 129.176C127.952 129.172 127.982 129.199 127.987 129.239C127.992 129.279 127.964 129.315 127.924 129.32L127.598 129.361ZM125.654 129.228C125.652 129.228 125.651 129.228 125.649 129.228L125.069 129.188C125.029 129.185 124.998 129.151 125.002 129.111C125.005 129.071 125.042 129.043 125.079 129.043L125.659 129.083C125.7 129.087 125.73 129.121 125.727 129.161C125.724 129.199 125.693 129.228 125.654 129.228ZM129.26 129.148C129.224 129.148 129.193 129.122 129.187 129.085C129.182 129.045 129.21 129.008 129.25 129.003L129.828 128.93C129.873 128.924 129.904 128.953 129.909 128.993C129.914 129.033 129.886 129.069 129.846 129.074L129.269 129.148C129.266 129.148 129.262 129.148 129.26 129.148ZM123.721 129.095C123.719 129.095 123.718 129.095 123.716 129.095L123.135 129.055C123.095 129.052 123.065 129.017 123.068 128.977C123.071 128.937 123.107 128.909 123.145 128.91L123.726 128.95C123.766 128.953 123.796 128.987 123.793 129.027C123.791 129.066 123.759 129.095 123.721 129.095ZM121.787 128.961C121.785 128.961 121.784 128.961 121.782 128.961L121.202 128.921C121.161 128.918 121.131 128.884 121.134 128.844C121.137 128.804 121.172 128.775 121.212 128.776L121.792 128.816C121.832 128.82 121.863 128.854 121.859 128.894C121.857 128.932 121.825 128.961 121.787 128.961ZM131.183 128.902C131.147 128.902 131.115 128.876 131.111 128.839C131.106 128.799 131.134 128.762 131.174 128.757L131.405 128.728L131.724 128.623C131.762 128.612 131.803 128.632 131.815 128.67C131.828 128.708 131.806 128.749 131.769 128.761L131.437 128.869L131.193 128.901C131.188 128.902 131.185 128.902 131.183 128.902ZM119.853 128.828C119.851 128.828 119.849 128.828 119.848 128.828L119.267 128.788C119.227 128.785 119.197 128.75 119.2 128.71C119.203 128.67 119.238 128.646 119.277 128.643L119.858 128.683C119.898 128.686 119.928 128.72 119.925 128.761C119.923 128.799 119.891 128.828 119.853 128.828ZM117.919 128.694C117.917 128.694 117.916 128.694 117.914 128.694L117.334 128.654C117.293 128.651 117.263 128.617 117.266 128.577C117.269 128.537 117.304 128.512 117.344 128.509L117.924 128.549C117.964 128.553 117.995 128.587 117.991 128.627C117.989 128.665 117.957 128.694 117.919 128.694ZM115.985 128.561C115.983 128.561 115.981 128.561 115.98 128.561L115.399 128.521C115.359 128.518 115.329 128.483 115.332 128.443C115.335 128.403 115.373 128.378 115.409 128.376L115.99 128.416C116.03 128.419 116.06 128.453 116.057 128.494C116.055 128.532 116.023 128.561 115.985 128.561ZM133.036 128.345C133.005 128.345 132.977 128.326 132.966 128.295C132.954 128.257 132.975 128.216 133.013 128.204L133.566 128.024C133.604 128.012 133.645 128.033 133.657 128.07C133.67 128.108 133.649 128.15 133.61 128.162L133.057 128.342C133.051 128.344 133.043 128.345 133.036 128.345ZM134.88 127.746C134.849 127.746 134.821 127.726 134.811 127.696C134.798 127.658 134.819 127.616 134.857 127.604L135.41 127.424C135.447 127.413 135.489 127.433 135.501 127.471C135.514 127.509 135.493 127.55 135.455 127.562L134.902 127.742C134.894 127.745 134.887 127.746 134.88 127.746ZM115.147 127.216C115.112 127.216 115.081 127.191 115.076 127.155C115.046 126.971 115.017 126.778 114.987 126.578C114.982 126.539 115.009 126.501 115.049 126.496C115.087 126.489 115.126 126.517 115.132 126.557C115.161 126.756 115.191 126.949 115.219 127.132C115.226 127.171 115.198 127.209 115.159 127.215C115.154 127.216 115.151 127.216 115.147 127.216ZM136.723 127.147C136.693 127.147 136.664 127.127 136.654 127.097C136.641 127.059 136.663 127.017 136.701 127.005L137.254 126.826C137.293 126.814 137.333 126.834 137.346 126.872C137.358 126.91 137.337 126.951 137.299 126.963L136.746 127.143C136.738 127.146 136.731 127.147 136.723 127.147ZM138.567 126.548C138.536 126.548 138.508 126.528 138.497 126.498C138.485 126.459 138.506 126.418 138.544 126.406L139.097 126.226C139.135 126.215 139.176 126.235 139.188 126.272C139.201 126.311 139.179 126.352 139.142 126.364L138.589 126.544C138.582 126.546 138.574 126.548 138.567 126.548ZM140.411 125.948C140.38 125.948 140.352 125.929 140.341 125.898C140.329 125.86 140.35 125.819 140.388 125.807L140.941 125.627C140.979 125.615 141.02 125.636 141.032 125.673C141.045 125.711 141.024 125.753 140.986 125.765L140.433 125.944C140.425 125.947 140.418 125.948 140.411 125.948ZM142.254 125.35C142.224 125.35 142.195 125.33 142.185 125.299C142.176 125.272 142.184 125.244 142.203 125.225C142.185 125.059 142.165 124.894 142.142 124.728C142.137 124.688 142.165 124.652 142.205 124.646C142.245 124.64 142.281 124.669 142.287 124.709C142.311 124.892 142.334 125.076 142.354 125.26L142.36 125.319L142.277 125.346C142.269 125.348 142.262 125.35 142.254 125.35ZM114.877 125.295C114.84 125.295 114.809 125.268 114.804 125.232C114.781 125.041 114.758 124.847 114.737 124.653C114.733 124.613 114.762 124.577 114.802 124.573C114.844 124.57 114.877 124.598 114.882 124.637C114.903 124.831 114.925 125.023 114.948 125.214C114.954 125.254 114.925 125.29 114.885 125.295C114.882 125.295 114.88 125.295 114.877 125.295ZM141.995 123.452C141.961 123.452 141.93 123.428 141.924 123.393C141.887 123.202 141.849 123.012 141.809 122.824C141.801 122.785 141.826 122.746 141.865 122.738C141.906 122.73 141.943 122.755 141.952 122.793C141.992 122.982 142.03 123.173 142.067 123.365C142.074 123.404 142.048 123.443 142.009 123.45C142.004 123.451 141.999 123.452 141.995 123.452ZM114.688 123.366C114.65 123.366 114.618 123.336 114.615 123.298C114.602 123.101 114.591 122.907 114.582 122.715C114.58 122.675 114.611 122.64 114.651 122.639C114.695 122.631 114.725 122.668 114.727 122.708C114.736 122.898 114.747 123.092 114.76 123.287C114.763 123.327 114.733 123.362 114.693 123.365C114.691 123.365 114.689 123.366 114.688 123.366ZM141.571 121.56C141.539 121.56 141.509 121.538 141.501 121.505C141.452 121.313 141.402 121.126 141.352 120.944C141.341 120.905 141.364 120.865 141.403 120.855C141.443 120.843 141.482 120.867 141.492 120.906C141.542 121.089 141.592 121.277 141.641 121.469C141.652 121.508 141.628 121.548 141.589 121.558C141.583 121.558 141.577 121.56 141.571 121.56ZM114.642 121.427C114.641 121.427 114.64 121.427 114.639 121.427C114.599 121.426 114.568 121.392 114.569 121.352L114.574 121.228C114.577 121.159 114.629 121.103 114.696 121.093L115.054 121.043C115.094 121.034 115.131 121.064 115.136 121.105C115.142 121.145 115.114 121.181 115.074 121.187L114.716 121.237L114.714 121.358C114.713 121.396 114.681 121.427 114.642 121.427ZM116.41 121C116.374 121 116.343 120.973 116.338 120.937C116.332 120.897 116.36 120.86 116.4 120.855L116.977 120.775C117.02 120.768 117.053 120.798 117.059 120.838C117.065 120.878 117.037 120.914 116.997 120.92L116.42 120.999C116.416 121 116.413 121 116.41 121ZM118.331 120.736C118.295 120.736 118.264 120.709 118.259 120.673C118.253 120.633 118.281 120.597 118.321 120.591L118.898 120.512C118.939 120.507 118.974 120.535 118.98 120.574C118.985 120.614 118.958 120.651 118.918 120.656L118.341 120.735C118.337 120.735 118.334 120.736 118.331 120.736ZM120.253 120.476C120.217 120.476 120.186 120.45 120.181 120.414C120.176 120.374 120.204 120.337 120.244 120.332L120.821 120.255C120.859 120.25 120.897 120.278 120.902 120.318C120.907 120.357 120.879 120.394 120.839 120.399L120.263 120.476C120.259 120.476 120.256 120.476 120.253 120.476ZM122.175 120.221C122.139 120.221 122.108 120.194 122.103 120.158C122.098 120.118 122.126 120.082 122.166 120.077L122.743 120.001C122.783 119.995 122.819 120.024 122.824 120.064C122.829 120.104 122.802 120.14 122.761 120.145L122.184 120.221C122.182 120.221 122.179 120.221 122.175 120.221ZM124.099 119.971C124.063 119.971 124.032 119.944 124.027 119.908C124.022 119.868 124.05 119.831 124.09 119.826L124.667 119.752C124.709 119.746 124.743 119.775 124.749 119.815C124.754 119.854 124.726 119.891 124.686 119.896L124.109 119.971C124.105 119.971 124.101 119.971 124.099 119.971ZM126.035 119.725L126.016 119.58L126.589 119.508C126.631 119.503 126.666 119.532 126.671 119.571C126.676 119.611 126.647 119.648 126.608 119.653L126.035 119.725ZM141.041 119.695C141.01 119.695 140.981 119.674 140.971 119.644C140.91 119.446 140.85 119.262 140.794 119.091C140.781 119.053 140.802 119.011 140.84 118.999C140.879 118.986 140.92 119.007 140.932 119.046C140.989 119.217 141.048 119.403 141.111 119.601C141.123 119.639 141.101 119.68 141.063 119.691C141.055 119.693 141.048 119.695 141.041 119.695ZM126.022 119.653H126.024H126.022ZM127.946 119.487C127.91 119.487 127.879 119.46 127.874 119.424C127.869 119.384 127.898 119.348 127.937 119.343L128.514 119.273C128.553 119.269 128.59 119.296 128.595 119.336C128.6 119.376 128.571 119.412 128.531 119.417L127.954 119.487C127.952 119.487 127.949 119.487 127.946 119.487ZM129.87 119.256C129.834 119.256 129.802 119.229 129.798 119.192C129.794 119.152 129.822 119.116 129.862 119.111L130.44 119.044C130.482 119.039 130.516 119.068 130.52 119.107C130.525 119.147 130.497 119.184 130.457 119.188L129.879 119.255C129.876 119.256 129.873 119.256 129.87 119.256ZM131.796 119.034C131.759 119.034 131.728 119.007 131.724 118.969C131.719 118.929 131.748 118.894 131.788 118.889L132.366 118.825C132.406 118.822 132.442 118.849 132.446 118.889C132.45 118.929 132.422 118.965 132.382 118.969L131.804 119.034C131.802 119.034 131.799 119.034 131.796 119.034ZM133.724 118.824C133.687 118.824 133.655 118.796 133.651 118.759C133.647 118.719 133.676 118.683 133.716 118.679L134.294 118.618C134.334 118.615 134.37 118.643 134.374 118.683C134.379 118.723 134.35 118.759 134.31 118.763L133.732 118.824C133.729 118.823 133.726 118.824 133.724 118.824ZM135.653 118.629C135.615 118.629 135.584 118.601 135.58 118.563C135.576 118.523 135.606 118.488 135.646 118.484C135.843 118.465 136.037 118.447 136.225 118.43C136.267 118.425 136.301 118.456 136.304 118.495C136.308 118.535 136.278 118.571 136.238 118.574C136.049 118.591 135.857 118.61 135.659 118.628C135.657 118.629 135.655 118.629 135.653 118.629ZM137.584 118.458C137.546 118.458 137.515 118.428 137.511 118.391C137.508 118.351 137.538 118.316 137.578 118.313C137.778 118.297 137.972 118.282 138.159 118.268C138.205 118.271 138.234 118.296 138.237 118.336C138.24 118.376 138.209 118.411 138.169 118.414C137.982 118.427 137.79 118.442 137.59 118.458C137.588 118.458 137.586 118.458 137.584 118.458ZM139.518 118.329C139.479 118.329 139.448 118.299 139.446 118.26C139.444 118.22 139.475 118.186 139.515 118.184C139.723 118.173 139.917 118.166 140.097 118.161C140.098 118.161 140.099 118.161 140.1 118.161C140.139 118.161 140.172 118.192 140.172 118.231C140.174 118.271 140.142 118.305 140.102 118.306C139.922 118.311 139.729 118.319 139.522 118.329C139.521 118.329 139.52 118.329 139.518 118.329Z" fill="white"/>
<path d="M131.467 131.495L127.952 131.945C127.491 132.004 127.06 131.711 126.947 131.262L126.108 127.932C125.975 127.401 126.336 126.874 126.882 126.804L131.105 126.264C131.638 126.196 132.116 126.597 132.137 127.133L132.268 130.554C132.286 131.025 131.938 131.434 131.467 131.495Z" fill="url(#paint38_linear_205_3796)"/>
<path d="M130.955 130.928L128.28 131.27C127.929 131.315 127.6 131.092 127.514 130.751L126.876 128.216C126.774 127.812 127.05 127.41 127.465 127.357L130.679 126.946C131.085 126.894 131.449 127.2 131.464 127.607L131.564 130.211C131.578 130.571 131.314 130.882 130.955 130.928Z" fill="url(#paint39_linear_205_3796)"/>
<path d="M128.865 103.974C129.693 107.4 129.716 110.752 129.589 111.971C129.541 112.432 129.172 112.791 128.711 112.823C128.186 112.86 127.473 112.908 126.835 112.945C126.135 112.985 125.357 112.542 124.837 112.172C124.571 111.983 124.228 112.278 124.376 112.568C124.632 113.067 125.075 113.461 125.516 113.796C125.781 113.997 126.661 114.354 126.6 114.751C126.581 114.876 126.506 114.985 126.424 115.082C125.935 115.67 125.194 115.983 124.464 116.207C124.372 116.235 124.275 116.265 124.211 116.337C124.192 116.809 125.646 117.334 126.022 117.458C126.584 117.645 127.18 117.724 127.771 117.662C129.233 117.508 130.584 116.498 131.372 115.281C133.478 112.026 134.567 108.096 134.965 105.091C133.006 103.133 130.048 103.63 128.865 103.974Z" fill="url(#paint40_linear_205_3796)"/>
<path d="M134.965 105.401C136.527 93.598 127.432 84.522 127.432 84.522L122.02 90.831C126.129 95.9525 128.081 100.645 128.974 104.331C130.157 103.987 133.006 103.443 134.965 105.401Z" fill="url(#paint41_linear_205_3796)"/>
<path d="M128.845 104.273C128.693 104.273 128.556 104.17 128.519 104.017C127.42 99.4735 125.101 94.9755 121.63 90.6479C121.514 90.5036 121.537 90.2926 121.681 90.1769C121.826 90.0612 122.037 90.0841 122.152 90.2284C125.686 94.6335 128.048 99.2192 129.171 103.86C129.214 104.039 129.103 104.221 128.924 104.264C128.897 104.271 128.871 104.273 128.845 104.273Z" fill="url(#paint42_linear_205_3796)"/>
<path d="M55.5504 174.246C55.5511 174.188 55.5472 174.13 55.5326 174.071C54.6624 170.62 50.3424 168.471 50.3424 168.471L48.6306 168.605C47.6465 171.646 47.773 173.511 47.9307 174.342C47.9351 174.366 47.9421 174.387 47.9485 174.41C49.3609 174.537 52.2672 174.619 55.5504 174.246Z" fill="url(#paint43_linear_205_3796)"/>
<path d="M47.9485 174.41C48.0248 174.688 48.2295 174.904 48.492 174.959C50.5007 175.382 53.6937 175.042 55.0336 174.866C55.3292 174.827 55.5454 174.554 55.5504 174.245C52.2672 174.619 49.361 174.537 47.9485 174.41Z" fill="url(#paint44_linear_205_3796)"/>
<path d="M47.9422 166.055L48.6675 169.546C48.7209 169.801 48.9173 169.993 49.1551 170.015C49.4462 170.043 49.8613 170.059 50.2783 169.998C50.652 169.943 50.9127 169.563 50.8466 169.155L50.3425 166.056H47.9422V166.055Z" fill="url(#paint45_linear_205_3796)"/>
<path d="M62.9643 174.367C61.0738 174.314 60.0955 174.091 59.5902 173.884C59.5889 174.072 59.5902 174.264 59.5959 174.461C59.6022 174.673 59.7592 174.842 59.9519 174.841L70.3323 174.774C70.6635 174.772 70.8573 174.387 70.7137 174.084C69.3534 174.197 65.8871 174.449 62.9643 174.367Z" fill="url(#paint46_linear_205_3796)"/>
<path d="M70.7143 174.084C70.7016 174.058 70.6908 174.031 70.673 174.006C69.7563 172.725 67.4215 170.174 62.8078 169.068L60.5945 168.998C60.5945 168.998 59.6092 170.711 59.5901 173.885C60.0955 174.091 61.0738 174.314 62.9642 174.367C65.887 174.448 69.3533 174.197 70.7143 174.084Z" fill="url(#paint47_linear_205_3796)"/>
<path d="M60.0853 165.747C60.1203 165.91 60.5805 168.393 60.7591 169.356C60.8017 169.585 60.9797 169.753 61.192 169.765C61.5709 169.786 62.1824 169.788 62.7081 169.646C62.9916 169.569 63.1823 169.28 63.162 168.959L62.9141 165.03L60.0853 165.747Z" fill="url(#paint48_linear_205_3796)"/>
<path d="M58.4084 119.893C58.4084 119.893 61.4533 140.814 63.6501 165.711C63.6908 166.175 63.3215 166.578 62.8664 166.674C62.1951 166.815 61.2086 166.983 60.3917 166.96C59.9557 166.948 59.5914 166.625 59.5177 166.195C58.7689 161.805 53.428 138.247 52.0257 133.062C52.0257 133.062 50.4156 155.087 50.9305 166.514C50.9432 166.798 50.7353 167.044 50.4524 167.077C50.024 167.126 49.3381 167.164 48.4653 167.071C48.1342 167.036 47.8672 166.786 47.8195 166.456C47.2862 162.741 44.2172 140.627 44.3481 124.697C44.3558 123.799 45.4021 116.418 45.4021 116.418L58.4084 119.893Z" fill="url(#paint49_linear_205_3796)"/>
<path d="M44.9451 121.098C44.6323 120.987 44.4136 120.704 44.38 120.373C43.975 116.445 42.0146 92.0884 54.3911 82.0696C54.3911 82.0696 55.1011 80.2128 60.9346 84.7776C66.7688 89.3423 63.6451 94.127 62.2485 100.726C60.5583 108.712 57.5929 115.24 58.9049 120.154C58.9952 120.493 58.8172 120.85 58.4879 120.971C53.9556 122.64 49.4411 122.696 44.9451 121.098Z" fill="url(#paint50_linear_205_3796)"/>
<path d="M59.2184 74.7715C59.2146 75.118 54.2723 82.1376 54.2723 82.1376C54.2723 82.1376 55.159 83.8845 59.3945 85.3033L63.0502 77.7872L59.2184 74.7715Z" fill="url(#paint51_linear_205_3796)"/>
<path d="M63.1099 70.749C63.1099 70.749 64.8681 74.7887 64.9864 76.9086C65.1046 79.0286 65.561 80.4048 63.1099 80.8313C60.6581 81.2585 58.5928 80.0367 57.4741 77.9251C57.4741 77.9251 55.7209 74.6704 56.1144 73.3381C56.5078 72.0057 63.1099 70.749 63.1099 70.749Z" fill="url(#paint52_linear_205_3796)"/>
<path d="M58.3119 76.4071L58.4517 76.3454C58.6291 76.2672 58.7053 76.0556 58.6164 75.8833C58.2705 75.2152 57.5967 73.6845 58.4676 73.3279C59.5896 72.8677 64.0341 71.9612 64.9927 70.3841C65.9144 68.8687 65.0976 66.9121 63.8708 66.3553C63.7888 66.3178 63.6915 66.3477 63.6496 66.4271L63.5472 66.6204C63.4773 66.7526 63.2815 66.7329 63.2402 66.5886C63.2001 66.4506 63.0164 66.4239 62.9402 66.5454C62.6452 67.017 61.8494 67.7824 59.7218 68.1746C56.6973 68.7327 54.6981 69.957 54.6479 72.0464C54.6447 72.1793 54.5036 72.253 54.3898 72.1837C54.1667 72.0477 53.8094 71.9835 53.3314 72.3852C52.5006 73.0838 52.8407 74.8955 54.6612 76.3855C54.7477 76.456 54.7471 76.5914 54.6536 76.6525C54.3237 76.8673 53.8317 77.3784 55.1062 78.0605C56.4252 78.7654 57.4099 78.7076 57.7893 78.6453C57.8834 78.63 57.9445 78.5385 57.9241 78.445L57.5192 76.608C57.4963 76.5037 57.5751 76.4058 57.6819 76.4058H58.3119V76.4071Z" fill="url(#paint53_linear_205_3796)"/>
<path d="M58.3882 76.7949C58.3882 76.7949 57.7175 74.2147 56.5606 74.9381C55.4037 75.6615 57.1607 77.8291 58.0913 77.9258L58.3882 76.7949Z" fill="url(#paint54_linear_205_3796)"/>
<path d="M62.811 86.895L63.1517 96.0461C64.1198 96.3792 65.0409 96.6379 65.9181 96.8318C66.4667 95.0646 67.6757 92.8963 68.6648 91.2837C65.0295 89.999 62.811 86.895 62.811 86.895Z" fill="url(#paint55_linear_205_3796)"/>
<path d="M80.9632 86.7399C75.9757 92.1246 71.9392 92.4418 68.6656 91.2842C67.6758 92.8969 66.4674 95.0652 65.9189 96.8323C79.2373 99.7685 82.3737 87.5249 82.3737 87.5249L80.9632 86.7399Z" fill="url(#paint56_linear_205_3796)"/>
<path d="M81.9745 86.1677C81.9745 86.1677 82.5492 85.5505 83.612 85.7444C84.6755 85.9383 85.622 86.3076 86.2844 85.7444C86.9467 85.1812 87.18 85.937 87.18 85.937L85.1961 87.4448L81.9745 86.1677Z" fill="url(#paint57_linear_205_3796)"/>
<path d="M80.7883 87.2223C80.7883 87.2223 81.1818 85.5766 82.3679 85.8023C83.5541 86.0279 86.2474 87.4925 86.9416 87.2223C87.6357 86.9528 88.5231 86.307 88.9782 86.5352L88.176 87.5325C88.176 87.5325 90.2381 86.3432 90.5928 87.0742L87.1621 89.0047C87.1621 89.0041 82.1429 88.5019 80.7883 87.2223Z" fill="url(#paint58_linear_205_3796)"/>
<path d="M57.2751 98.8722C57.2751 98.8722 66.6518 106.725 76.7767 103.298C77.4047 103.086 78.0912 103.132 78.6773 103.441L81.588 104.979C82.8098 105.624 84.3227 105.201 85.0321 104.015C85.4363 103.338 85.7815 102.565 85.8502 101.826L80.1546 99.52L80.5748 98.8214C80.5748 98.8214 77.7937 98.5856 77.0659 100.579C77.0659 100.579 71.7689 102.782 62.8365 92.9567C62.8359 92.9567 58.7822 96.4033 57.2751 98.8722Z" fill="url(#paint59_linear_205_3796)"/>
<path d="M56.7704 98.7914C56.7393 98.7914 56.7081 98.7825 56.6808 98.7641C52.7326 96.0968 50.8752 91.7915 50.8574 91.7476C50.8231 91.6656 50.8613 91.5715 50.9426 91.5372C51.0246 91.5022 51.1181 91.5404 51.153 91.6224C51.1708 91.665 52.9939 95.8852 56.8607 98.4984C56.9344 98.548 56.9535 98.6478 56.9039 98.7215C56.8727 98.7666 56.8219 98.7914 56.7704 98.7914Z" fill="url(#paint60_linear_205_3796)"/>
<path d="M62.6509 92.8239C62.5981 92.8239 62.5467 92.7978 62.5155 92.7501C62.5034 92.7317 61.2976 90.8539 59.0003 86.7405C58.2941 85.4756 57.3653 84.6746 56.2408 84.36C54.3783 83.8394 52.5839 84.838 52.5661 84.8482C52.4885 84.8907 52.3913 84.8653 52.3474 84.7878C52.3035 84.7109 52.3302 84.613 52.4078 84.5691C52.4853 84.5252 54.3313 83.4923 56.3248 84.0504C57.5363 84.3886 58.5305 85.241 59.2812 86.5842C61.5728 90.6874 62.7742 92.5582 62.7863 92.5766C62.834 92.651 62.813 92.7501 62.7386 92.7984C62.7107 92.8156 62.6808 92.8239 62.6509 92.8239Z" fill="url(#paint61_linear_205_3796)"/>
<defs>
<linearGradient id="paint0_linear_205_3796" x1="174.302" y1="195.439" x2="16.5103" y2="15.6762" gradientUnits="userSpaceOnUse">
<stop stop-color="#DAE3FE"/>
<stop offset="1" stop-color="#E9EFFD"/>
</linearGradient>
<linearGradient id="paint1_linear_205_3796" x1="195.705" y1="193.477" x2="77.6644" y2="67.8208" gradientUnits="userSpaceOnUse">
<stop stop-color="#DAE3FE"/>
<stop offset="1" stop-color="#E9EFFD"/>
</linearGradient>
<linearGradient id="paint2_linear_205_3796" x1="133.645" y1="107.869" x2="171.527" y2="107.869" gradientUnits="userSpaceOnUse">
<stop stop-color="#4F52FF"/>
<stop offset="1" stop-color="#4042E2"/>
</linearGradient>
<linearGradient id="paint3_linear_205_3796" x1="137.401" y1="134.28" x2="159.733" y2="134.28" gradientUnits="userSpaceOnUse">
<stop stop-color="#DAE3FE"/>
<stop offset="1" stop-color="#E9EFFD"/>
</linearGradient>
<linearGradient id="paint4_linear_205_3796" x1="138.88" y1="50.0892" x2="84.8727" y2="-62.1732" gradientUnits="userSpaceOnUse">
<stop stop-color="#4042E2"/>
<stop offset="1" stop-color="#4F52FF"/>
</linearGradient>
<linearGradient id="paint5_linear_205_3796" x1="111.196" y1="41.4201" x2="-32.7416" y2="225.616" gradientUnits="userSpaceOnUse">
<stop stop-color="white"/>
<stop offset="1"/>
</linearGradient>
<linearGradient id="paint6_linear_205_3796" x1="111.196" y1="41.4201" x2="-32.7416" y2="225.616" gradientUnits="userSpaceOnUse">
<stop stop-color="white"/>
<stop offset="1" stop-color="white"/>
</linearGradient>
<linearGradient id="paint7_linear_205_3796" x1="26.0159" y1="65.2794" x2="40.9597" y2="65.2794" gradientUnits="userSpaceOnUse">
<stop stop-color="#DAE3FE"/>
<stop offset="1" stop-color="#E9EFFD"/>
</linearGradient>
<linearGradient id="paint8_linear_205_3796" x1="45.347" y1="58.7845" x2="108.669" y2="58.7845" gradientUnits="userSpaceOnUse">
<stop stop-color="#DAE3FE"/>
<stop offset="1" stop-color="#E9EFFD"/>
</linearGradient>
<linearGradient id="paint9_linear_205_3796" x1="46.5078" y1="68.9498" x2="89.0113" y2="68.9498" gradientUnits="userSpaceOnUse">
<stop stop-color="#DAE3FE"/>
<stop offset="1" stop-color="#E9EFFD"/>
</linearGradient>
<linearGradient id="paint10_linear_205_3796" x1="26.0159" y1="94.3385" x2="40.9597" y2="94.3385" gradientUnits="userSpaceOnUse">
<stop stop-color="#DAE3FE"/>
<stop offset="1" stop-color="#E9EFFD"/>
</linearGradient>
<linearGradient id="paint11_linear_205_3796" x1="45.347" y1="87.8436" x2="108.669" y2="87.8436" gradientUnits="userSpaceOnUse">
<stop stop-color="#DAE3FE"/>
<stop offset="1" stop-color="#E9EFFD"/>
</linearGradient>
<linearGradient id="paint12_linear_205_3796" x1="26.0159" y1="123.398" x2="40.9597" y2="123.398" gradientUnits="userSpaceOnUse">
<stop stop-color="#DAE3FE"/>
<stop offset="1" stop-color="#E9EFFD"/>
</linearGradient>
<linearGradient id="paint13_linear_205_3796" x1="45.347" y1="116.903" x2="108.669" y2="116.903" gradientUnits="userSpaceOnUse">
<stop stop-color="#DAE3FE"/>
<stop offset="1" stop-color="#E9EFFD"/>
</linearGradient>
<linearGradient id="paint14_linear_205_3796" x1="46.5078" y1="127.068" x2="89.0113" y2="127.068" gradientUnits="userSpaceOnUse">
<stop stop-color="#DAE3FE"/>
<stop offset="1" stop-color="#E9EFFD"/>
</linearGradient>
<linearGradient id="paint15_linear_205_3796" x1="81.9618" y1="102.919" x2="78.4177" y2="103.614" gradientUnits="userSpaceOnUse">
<stop stop-color="#FEBBBA"/>
<stop offset="1" stop-color="#FF928E"/>
</linearGradient>
<linearGradient id="paint16_linear_205_3796" x1="78.975" y1="99.3588" x2="95.421" y2="99.3588" gradientUnits="userSpaceOnUse">
<stop stop-color="#FEBBBA"/>
<stop offset="1" stop-color="#FF928E"/>
</linearGradient>
<linearGradient id="paint17_linear_205_3796" x1="127.771" y1="44.1578" x2="117.752" y2="63.9121" gradientUnits="userSpaceOnUse">
<stop stop-color="#09005D"/>
<stop offset="1" stop-color="#1A0F91"/>
</linearGradient>
<linearGradient id="paint18_linear_205_3796" x1="143.767" y1="52.2706" x2="133.749" y2="72.0248" gradientUnits="userSpaceOnUse">
<stop stop-color="#09005D"/>
<stop offset="1" stop-color="#1A0F91"/>
</linearGradient>
<linearGradient id="paint19_linear_205_3796" x1="115.773" y1="82.9093" x2="113.136" y2="74.9977" gradientUnits="userSpaceOnUse">
<stop stop-color="#FEBBBA"/>
<stop offset="1" stop-color="#FF928E"/>
</linearGradient>
<linearGradient id="paint20_linear_205_3796" x1="109.613" y1="73.2003" x2="119.091" y2="77.3215" gradientUnits="userSpaceOnUse">
<stop stop-color="#FEBBBA"/>
<stop offset="1" stop-color="#FF928E"/>
</linearGradient>
<linearGradient id="paint21_linear_205_3796" x1="116.467" y1="78.8798" x2="108.706" y2="70.6356" gradientUnits="userSpaceOnUse">
<stop stop-color="#09005D"/>
<stop offset="1" stop-color="#1A0F91"/>
</linearGradient>
<linearGradient id="paint22_linear_205_3796" x1="109.022" y1="74.5589" x2="118.501" y2="78.6801" gradientUnits="userSpaceOnUse">
<stop stop-color="#FEBBBA"/>
<stop offset="1" stop-color="#FF928E"/>
</linearGradient>
<linearGradient id="paint23_linear_205_3796" x1="127.613" y1="174.592" x2="115.833" y2="174.592" gradientUnits="userSpaceOnUse">
<stop stop-color="#4042E2"/>
<stop offset="1" stop-color="#4F52FF"/>
</linearGradient>
<linearGradient id="paint24_linear_205_3796" x1="156.046" y1="163.571" x2="113.392" y2="175.729" gradientUnits="userSpaceOnUse">
<stop stop-color="#09005D"/>
<stop offset="1" stop-color="#1A0F91"/>
</linearGradient>
<linearGradient id="paint25_linear_205_3796" x1="126.525" y1="169.06" x2="123.207" y2="169.06" gradientUnits="userSpaceOnUse">
<stop stop-color="#FEBBBA"/>
<stop offset="1" stop-color="#FF928E"/>
</linearGradient>
<linearGradient id="paint26_linear_205_3796" x1="151.097" y1="174.338" x2="146.583" y2="174.338" gradientUnits="userSpaceOnUse">
<stop stop-color="#4042E2"/>
<stop offset="1" stop-color="#4F52FF"/>
</linearGradient>
<linearGradient id="paint27_linear_205_3796" x1="132.267" y1="161.1" x2="158.848" y2="178.409" gradientUnits="userSpaceOnUse">
<stop stop-color="#09005D"/>
<stop offset="1" stop-color="#1A0F91"/>
</linearGradient>
<linearGradient id="paint28_linear_205_3796" x1="147.62" y1="166.294" x2="143.654" y2="166.294" gradientUnits="userSpaceOnUse">
<stop stop-color="#FEBBBA"/>
<stop offset="1" stop-color="#FF928E"/>
</linearGradient>
<linearGradient id="paint29_linear_205_3796" x1="148.179" y1="172.117" x2="87.6686" y2="88.4579" gradientUnits="userSpaceOnUse">
<stop stop-color="#09005D"/>
<stop offset="1" stop-color="#1A0F91"/>
</linearGradient>
<linearGradient id="paint30_linear_205_3796" x1="133.616" y1="161.225" x2="128.936" y2="127.569" gradientUnits="userSpaceOnUse">
<stop stop-color="#FF928E"/>
<stop offset="1" stop-color="#FE7062"/>
</linearGradient>
<linearGradient id="paint31_linear_205_3796" x1="122.48" y1="121.337" x2="121.814" y2="117.424" gradientUnits="userSpaceOnUse">
<stop stop-color="#E1473D"/>
<stop offset="1" stop-color="#E9605A"/>
</linearGradient>
<linearGradient id="paint32_linear_205_3796" x1="121.519" y1="115.458" x2="123.773" y2="126.627" gradientUnits="userSpaceOnUse">
<stop stop-color="#E1473D"/>
<stop offset="1" stop-color="#E9605A"/>
</linearGradient>
<linearGradient id="paint33_linear_205_3796" x1="133.381" y1="119.483" x2="132.715" y2="115.57" gradientUnits="userSpaceOnUse">
<stop stop-color="#E1473D"/>
<stop offset="1" stop-color="#E9605A"/>
</linearGradient>
<linearGradient id="paint34_linear_205_3796" x1="132.348" y1="113.273" x2="134.602" y2="124.442" gradientUnits="userSpaceOnUse">
<stop stop-color="#E1473D"/>
<stop offset="1" stop-color="#E9605A"/>
</linearGradient>
<linearGradient id="paint35_linear_205_3796" x1="127.143" y1="108.36" x2="127.076" y2="116.528" gradientUnits="userSpaceOnUse">
<stop stop-color="#E1473D"/>
<stop offset="1" stop-color="#E9605A"/>
</linearGradient>
<linearGradient id="paint36_linear_205_3796" x1="122.433" y1="114.042" x2="118.693" y2="92.8067" gradientUnits="userSpaceOnUse">
<stop stop-color="#FEBBBA"/>
<stop offset="1" stop-color="#FF928E"/>
</linearGradient>
<linearGradient id="paint37_linear_205_3796" x1="128.273" y1="114.571" x2="129.056" y2="152.552" gradientUnits="userSpaceOnUse">
<stop stop-color="#FF928E"/>
<stop offset="1" stop-color="#FE7062"/>
</linearGradient>
<linearGradient id="paint38_linear_205_3796" x1="129.156" y1="119.157" x2="129.179" y2="131.89" gradientUnits="userSpaceOnUse">
<stop stop-color="#E1473D"/>
<stop offset="1" stop-color="#E9605A"/>
</linearGradient>
<linearGradient id="paint39_linear_205_3796" x1="127.026" y1="129.422" x2="131.624" y2="128.833" gradientUnits="userSpaceOnUse">
<stop stop-color="#FF928E"/>
<stop offset="1" stop-color="#FE7062"/>
</linearGradient>
<linearGradient id="paint40_linear_205_3796" x1="132.028" y1="105.889" x2="123.048" y2="123.158" gradientUnits="userSpaceOnUse">
<stop stop-color="#FEBBBA"/>
<stop offset="1" stop-color="#FF928E"/>
</linearGradient>
<linearGradient id="paint41_linear_205_3796" x1="150.111" y1="55.4877" x2="140.093" y2="75.242" gradientUnits="userSpaceOnUse">
<stop stop-color="#09005D"/>
<stop offset="1" stop-color="#1A0F91"/>
</linearGradient>
<linearGradient id="paint42_linear_205_3796" x1="153.321" y1="65.5736" x2="96.4424" y2="129.903" gradientUnits="userSpaceOnUse">
<stop stop-color="#4042E2"/>
<stop offset="1" stop-color="#4F52FF"/>
</linearGradient>
<linearGradient id="paint43_linear_205_3796" x1="47.8228" y1="171.494" x2="55.5506" y2="171.494" gradientUnits="userSpaceOnUse">
<stop stop-color="#09005D"/>
<stop offset="1" stop-color="#1A0F91"/>
</linearGradient>
<linearGradient id="paint44_linear_205_3796" x1="67.169" y1="162.377" x2="39.0551" y2="184.452" gradientUnits="userSpaceOnUse">
<stop stop-color="#4042E2"/>
<stop offset="1" stop-color="#4F52FF"/>
</linearGradient>
<linearGradient id="paint45_linear_205_3796" x1="49.9719" y1="162.696" x2="48.4958" y2="175.579" gradientUnits="userSpaceOnUse">
<stop stop-color="#A22B25"/>
<stop offset="1" stop-color="#C0423C"/>
</linearGradient>
<linearGradient id="paint46_linear_205_3796" x1="72.1633" y1="168.729" x2="44.0493" y2="190.804" gradientUnits="userSpaceOnUse">
<stop stop-color="#4042E2"/>
<stop offset="1" stop-color="#4F52FF"/>
</linearGradient>
<linearGradient id="paint47_linear_205_3796" x1="59.5902" y1="171.69" x2="70.7142" y2="171.69" gradientUnits="userSpaceOnUse">
<stop stop-color="#09005D"/>
<stop offset="1" stop-color="#1A0F91"/>
</linearGradient>
<linearGradient id="paint48_linear_205_3796" x1="61.7948" y1="164.057" x2="61.1319" y2="177.007" gradientUnits="userSpaceOnUse">
<stop stop-color="#A22B25"/>
<stop offset="1" stop-color="#C0423C"/>
</linearGradient>
<linearGradient id="paint49_linear_205_3796" x1="49.5644" y1="177.428" x2="60.493" y2="97.4503" gradientUnits="userSpaceOnUse">
<stop stop-color="#4F52FF"/>
<stop offset="1" stop-color="#4042E2"/>
</linearGradient>
<linearGradient id="paint50_linear_205_3796" x1="205.85" y1="-98.0645" x2="165.914" y2="-44.8273" gradientUnits="userSpaceOnUse">
<stop stop-color="#FF928E"/>
<stop offset="1" stop-color="#FE7062"/>
</linearGradient>
<linearGradient id="paint51_linear_205_3796" x1="54.4493" y1="89.4398" x2="62.3974" y2="71.5566" gradientUnits="userSpaceOnUse">
<stop stop-color="#A22B25"/>
<stop offset="1" stop-color="#C0423C"/>
</linearGradient>
<linearGradient id="paint52_linear_205_3796" x1="51.8182" y1="61.4415" x2="63.1064" y2="78.656" gradientUnits="userSpaceOnUse">
<stop stop-color="#A22B25"/>
<stop offset="1" stop-color="#C0423C"/>
</linearGradient>
<linearGradient id="paint53_linear_205_3796" x1="52.875" y1="64.4519" x2="61.3513" y2="74.3797" gradientUnits="userSpaceOnUse">
<stop stop-color="#09005D"/>
<stop offset="1" stop-color="#1A0F91"/>
</linearGradient>
<linearGradient id="paint54_linear_205_3796" x1="48.8665" y1="63.3771" x2="60.1547" y2="80.5916" gradientUnits="userSpaceOnUse">
<stop stop-color="#A22B25"/>
<stop offset="1" stop-color="#C0423C"/>
</linearGradient>
<linearGradient id="paint55_linear_205_3796" x1="115.721" y1="39.7323" x2="69.0159" y2="87.1425" gradientUnits="userSpaceOnUse">
<stop stop-color="#FF928E"/>
<stop offset="1" stop-color="#FE7062"/>
</linearGradient>
<linearGradient id="paint56_linear_205_3796" x1="87.5476" y1="85.9707" x2="65.9811" y2="96.6988" gradientUnits="userSpaceOnUse">
<stop stop-color="#A22B25"/>
<stop offset="1" stop-color="#C0423C"/>
</linearGradient>
<linearGradient id="paint57_linear_205_3796" x1="87.2319" y1="83.28" x2="79.855" y2="90.9847" gradientUnits="userSpaceOnUse">
<stop stop-color="#A22B25"/>
<stop offset="1" stop-color="#C0423C"/>
</linearGradient>
<linearGradient id="paint58_linear_205_3796" x1="87.65" y1="85.8435" x2="66.0836" y2="96.5716" gradientUnits="userSpaceOnUse">
<stop stop-color="#A22B25"/>
<stop offset="1" stop-color="#C0423C"/>
</linearGradient>
<linearGradient id="paint59_linear_205_3796" x1="96.6624" y1="104.046" x2="34.0746" y2="92.7286" gradientUnits="userSpaceOnUse">
<stop stop-color="#A22B25"/>
<stop offset="1" stop-color="#C0423C"/>
</linearGradient>
<linearGradient id="paint60_linear_205_3796" x1="74.4426" y1="56.3572" x2="17.9341" y2="163.025" gradientUnits="userSpaceOnUse">
<stop stop-color="#E1473D"/>
<stop offset="1" stop-color="#E9605A"/>
</linearGradient>
<linearGradient id="paint61_linear_205_3796" x1="74.6398" y1="56.4619" x2="18.1313" y2="163.13" gradientUnits="userSpaceOnUse">
<stop stop-color="#E1473D"/>
<stop offset="1" stop-color="#E9605A"/>
</linearGradient>
</defs>
</svg>
